<?xml version="1.0" encoding="utf-8"?>
<!-- Generator: Adobe Illustrator 21.0.0, SVG Export Plug-In . SVG Version: 6.00 Build 0)  -->
<svg version="1.1" id="Layer_1" xmlns="http://www.w3.org/2000/svg" xmlns:xlink="http://www.w3.org/1999/xlink" x="0px" y="0px"
	 viewBox="0 0 425 116.7" style="enable-background:new 0 0 425 116.7;" xml:space="preserve">
<style type="text/css">
	.st0{enable-background:new    ;}
	.st1{fill:#2BFDA9;}
</style>
<g class="st0">
	<path class="st1" d="M41.9,39.2c0.2,0.5-0.3,1.1-0.4,1.3c-1,1.1-2.6,2.6-3.7,3.1c-1.7,0.8-1.4,0.4-4.6,1.8
		c-0.4,0.1-0.8,0.4-1.3,0.6c-0.1,1.2-0.4,1.5-0.3,2.6c0,0.1,0,0.1,0,0.1c-0.7,3.4-1,5.2-2.5,8.6c-0.1,0.3-0.3,0.6-0.4,0.9
		c-0.6,1-1.2,2.1-1.8,3.1c-0.3,0.1-0.7,0.1-1.1,0.6c-0.3,0.6-0.7,1.1-1,1.6c-0.3,0.5-0.7,1.1-1.4,1.3c-0.1,0.1-0.3,0.3-0.5,0.4
		c-0.3,0.4-0.6,0.8-1,1.1c-0.3,0.2-0.6,0.4-1,0.7c-1.4,0.5-4.6,1-4.6,1c-1.5,0.1-3.1,0.4-4.6,0.5c-0.6,0.1-1.3,0.2-1.6-0.4
		c-0.1-0.1-0.4-0.1-0.5,0c-0.7,0.5-1,0.4-1.4-0.1c-0.1-0.2-0.5-0.2-0.7-0.3c0,0-0.5-0.1-0.9-0.6c0-0.4,0.1-0.9,0-1.1
		C6,64.8,6,63.4,6.2,61.9c0.1-0.9,0.3-1.7,0.7-2.6c0.3-0.8,0.7-1.6,1-2.4c0.5-1.4,1.6-2.6,2.8-3.4c1.7-1.1,3.1-1.8,4.8-3
		c0.5-0.3,0.9-0.6,1.4-0.9c2.5-1.2,4.5-1.9,7.1-2.8c0.7-0.2,1.4-0.8,2.2-1.1c0.3-0.6,0.7-1.6,0.8-3.1c0.1-1.1-0.1-4.3-0.1-5.5
		c0-1.7,0.3-3.1,0.1-3.8c-0.4-1.8,0.6-2.1,2-2.5c0.3-0.1,0.5-0.1,0.7-0.1c0.5,0.1,1,0,1.4,0.6c0.3,1.1,1,1.7,0.7,3
		c0,0.1,0.3,1,0.4,2c0,0.7-0.5,1.7-0.5,2.5c0.1,1.2,0.4,2.1,0.4,2.2c0.1,0.7-0.3,3,0.3,2.8c1.6-0.4,2.6-0.7,4.3-1.6
		c2.2-1.1,2.5-1.6,3.5-2.6C41,39,41.6,38.6,41.9,39.2z M8.1,66.6C8,66.4,7.9,66.2,7.8,66c0-0.1-0.1,0-0.2,0
		c-0.1,0.1-0.2,0.2-0.2,0.3c0,0.2,0.1,0.4,0.1,0.6c0.3-0.1,0.3-0.1,0.5-0.1C8.1,66.7,8.1,66.6,8.1,66.6z M26.5,49
		c0-0.4-0.2-1.1-1.1-0.9c-2,0.8-3.5,1.1-5.5,2.3c-1.9,1.1-3.9,1.3-5.7,2.9c-0.5,0.4-1,0.8-1.6,1.1c-2,1.2-3,3.2-3.7,5.2
		c-0.2,0.6-0.2,1.2-0.1,1.7C9,62.2,9.3,63,9.7,63.9c0.5,1.2,1.3,2.1,2.7,2.2c1.4,0.1,3,0.2,4.6-0.8c0.6-0.4,1.4-0.5,1.8-1
		c0.6-0.8,1.6-1.3,1.8-2.4c0.1-0.4,0.5-0.7,0.7-1.1c0.5-0.8,1.1-1.5,1.5-2.3c0.3-0.7,0.8-1.1,1.3-1.6c0.4-1.3,0.3-2.6,1.2-3.9
		c0.1-1,0,0.4,0.3-0.6C25.6,52.3,26.3,49.6,26.5,49z M27.5,24c0.3-0.9-0.3-1.4,0-2.3c1.6-0.9,2.9-0.6,4.2-0.2
		c0.3,0.1,0.4,0.4,0.5,0.6c0.6,1.3,0.7,2.7-0.3,4.5c-0.8,1.6-1.8,2.6-3,2c-0.4-1-1.4-0.4-1.6-1.5c-0.1-0.3-0.1-0.5-0.1-0.7
		C27.6,25.5,27.3,24.7,27.5,24z"/>
	<path class="st1" d="M56.7,47.2c-1,1.4-2.2,2.5-3.6,3.5c-0.5,0.4-1.1,0.6-1.7,0.6c-1.6,0.3-3.3,0.6-5,0.6c-1,0-1.8-0.2-2.5-0.9
		c-0.8-0.8-1.8-1.4-2.3-2.6c-0.1-0.2-0.2-0.3-0.3-0.4c-0.1-0.3-0.3-1.8-0.5-2.4c-0.1-0.6-0.5-0.8-0.6-1.8c0-0.3-0.1-0.6-0.1-0.9
		c0.1-0.9,0.1-2.7,0.3-3.3c0.6-1.9,1.5-3.7,2.4-5.5c0.5-1,1-2,1.6-2.9c0.2-0.3,0.1-0.7,0.5-1c0.5-0.3,1.1-0.9,1.6-1
		c1.1-0.1,2.2-0.3,3.2,0.4c0.3,0.1,0.6,0.4,1,0.6c0.5-0.3,1.1-0.6,1.6-0.9c1,0.1,2,0.3,3.1,0c1.6-0.4,3,0.4,4.3,1.2
		c0.5,0.4,0.7,1.1,1,1.8c0.2,0.8,0.3,1.6,0.3,2.4c-0.1,1.8-0.2,3.5-0.3,5.2c-0.1,0.3-0.1,0.5-0.2,0.7c-0.1,0.3-0.4,0.4-0.5,0.7
		c-0.3,0.6-0.4,1.1-0.7,1.8c1,0.4,1.8,0.2,2.7,0.1c2-0.2,4-1.2,5.7-2.5c1.2-0.9,3.4-2.9,3-1.1c-0.7,1.3-1.8,2.1-3.2,3.2
		c-1.3,0.5-2.6,1.5-3.9,1.8c-1.7,0.5-3.4,0.9-5.1,0.9C57.7,46,57.1,46.6,56.7,47.2z M43.5,41.4c-0.2,0.9-0.1,1.5,0.1,2.1
		C43.8,42.7,43.8,42.4,43.5,41.4z M44.7,38.9c0-0.1-0.1-0.2-0.2-0.2c-0.1,0-0.3,0.1-0.3,0.2c0,0.4,0,0.8,0.1,1.3
		C44.8,39.8,44.9,39.4,44.7,38.9z M45.9,39.8c-0.1,0.4,0,0.8-0.1,1.1c-1.2,2.6-0.5,5.1,0.7,7.4c1,1.7,2.2,2,3.9,1.1
		c1.8-1,3.1-2.4,4.2-4.1c0.1-0.1,0.1-0.4,0.1-0.6c-0.5-0.3-0.9-0.6-1.4-0.9c-1.8-1-3.3-2.3-4.2-4.3c-0.7-1.3-1.2-2.6-1.2-4.2
		C46.8,36.6,46,38,45.9,39.8z M53.5,32.8c-0.3,0.4-0.5,0.9-0.7,1.3c-1.2,1.9-0.7,3.8,0.3,5.5c0.4,0.8,1.1,1.5,1.7,2.1
		c0.3,0.3,0.7,0.6,1.2,0.4c0.5-1.6,1.2-3.1,1.6-4.7c0.1-0.2,0.1-0.5,0-0.8c0-0.4-0.1-0.9-0.1-1.3c-0.1-1.8-0.7-3.3-2.7-3.7
		C54.2,31.7,53.8,32.2,53.5,32.8z"/>
	<path class="st1" d="M100.6,39.6c-0.2,0.4-0.5,0.7-0.6,1.1c-0.5,1.5-1.6,2.6-2.7,3.6c-0.5,0.6-1.2,1-1.4,1.8
		c-0.1,0.2-0.3,0.4-0.5,0.6c-1.9,1.4-3.9,2.3-6,2.1c-1.2-0.1-2.1-0.6-2.6-1.8c-0.3-0.8-0.8-1.5-1.3-2.1c-0.6-0.7-0.4-1.6-0.3-2.6
		c0-0.3,0.1-1.2,0.2-1.4c0.4-1.4,0.3-2.9,1.2-4.3c0.7-1,1.1-2,1.2-3.1c0.1-0.6,0.5-1.3,0.7-2.1c0.5-0.9,1.5-3.5,1.6-3.9
		c0-0.6,0.1-1.1,0-1.7c0-0.7-0.4-1.1-1.2-1.2c-2.2-0.2-3.8,0.6-5.2,2.5c-0.3,0.5-1.8,2.5-2.5,3.6c-0.8,1.2-1.4,2.5-2.1,3.8
		c-0.3,0.4-0.5,0.9-0.8,1.3c-0.2,0.4-0.5,0.7-0.6,1.1c-0.5,1.5-1.4,2.8-2.1,4.1c-0.1,0.4-0.3,0.6-0.4,0.9c-0.2,1.3-1,2.3-1.8,3.4
		c-0.4,0.5-0.8,0.8-1.4,0.9c-0.6,0.1-1.2,0-1.8,0c-0.7-0.7-0.4-2.1-1.2-2.7c-0.1-0.1-0.1-0.3-0.1-0.5c0.1-1.3,0-2.5-0.3-3.7
		c-0.1-0.6,0-1.5,0.2-2.2c0.3-1.3,0.1-2.3-0.3-3.3c-0.1-0.2-0.2-0.4-0.3-0.7c1-1,2.1-1.3,3.2-1.3c0.9-0.1,1.6,0.3,2.2,0.9
		c0.6,0.5,1,1.1,1,2c0,0.7,0.2,1.3,0.3,1.8c0.2,0.1,0.2,0.1,0.3,0.1s0.1-0.1,0.1-0.1c1.6-2.6,3.1-5.2,4.6-7.7c0,0,0.9-1.1,1.6-1.6
		c1-1,2-1.9,3.1-2.9c1.7-1.6,3.6-1.9,5.5-2.2c0.5,0,0.9,0.1,1.3,0c1.5-0.1,2.5,0.6,3.5,1.5c0.5,0.5,0.7,1.2,0.6,2.1
		c-0.1,0.5-0.1,1-0.1,1.5c-0.1,0.8-0.4,1.3-0.4,1.3c-0.5,1.7-1.4,3.3-1.7,4.9c-0.3,1.1-0.7,2.2-1.2,3.3c-0.3,0.6-0.6,2-0.8,2.3
		c-0.3,0.5-0.5,1.1-0.5,1.5c0.1,0.4,0.1,0.7-0.1,1.1c-0.1,0.3-0.2,0.6-0.3,0.9c0.1,0.5,0.4,1,0.4,1.5c0.1,0.6,0.3,0.9,0.7,1.1
		c1,0.7,1.9,0.6,3.2-0.3c1.2-1,2.5-2.4,3.5-3.7c0.6-0.9,1.4-1.6,2-2.3C100.8,38.6,101.2,38.4,100.6,39.6z M86.4,38.7
		c-0.1-0.1-0.1-0.1-0.1-0.1l-0.1,0.1c-0.1,0.1,0,0.1,0,0.1S86.3,38.7,86.4,38.7z M87.4,40.1c-0.1,0.1-0.3,0.3-0.3,0.4
		c-0.1,0.1-0.1,0.4-0.2,0.5C87.3,40.8,87.6,40.6,87.4,40.1z M87.3,37.7c0.1,0,0.1-0.1,0.1-0.1C87.4,37.5,87.3,37.5,87.3,37.7
		C87.3,37.6,87.3,37.7,87.3,37.7z M88.2,39c-0.1,0-0.2,0.1-0.3,0.1c-0.1,0.1-0.1,0.2-0.1,0.4c0.1,0,0.3,0,0.3,0
		C88.2,39.3,88.2,39.1,88.2,39z M89.1,31.8C89.1,31.8,89,31.8,89.1,31.8C89,31.8,89,31.9,89,32c0.1,0,0.1,0,0.1,0
		C89.1,31.9,89.1,31.9,89.1,31.8z M90.1,31.5c-0.1,0.4-0.1,0.7-0.2,1.1c-0.1,0.4-0.5,0.6-0.6,1.1c-0.1,0.4-0.5,0.6-0.1,1.1
		c0.3-0.4,0.6-0.6,0.8-1.1c1.1-2.3,2.4-5,2-7.4c-0.1-0.4-0.3-0.6-0.5-1c0,0,0,0,0.1,0c-0.1-0.1-0.1-0.1-0.1-0.1
		c0-0.8-0.7-1.4-1.6-1.5c0.5,0.6,1.4,1,1.6,1.5c0,0.1,0,0.1,0,0.1c-0.2,0.5-0.2,0.7-0.1,1.1C91.6,27.9,90.7,29.9,90.1,31.5z"/>
	<path class="st1" d="M117.9,32.5c0.4,0.1,0.8,0.1,1.2,0.1c1.4,0.3,1.8,0.8,1.7,2.3c0,0.5-0.1,1.1,0,1.6c0.1,0.8,0.3,1.6,0.3,2.4
		c-0.1,0.7-0.5,1.4-0.6,2.1c-0.3,1.3-0.4,2.8-0.7,4c-0.4,1.7,0,2.2,0.2,3.9c0,0.1,0,0.3,0.1,0.4c0.3,1.8,1.4,2.3,2.9,1.3
		c1.7-1.1,2.5-1.8,3.8-3.3c1.1-1.3,2.2-2.2,3.2-3.6c0.3-0.5,0.7-1,1.1-1.5c0.3-0.3,0.4-0.6,0.7-0.9c1-1.1,0.8-1.2,2-2.3
		c0.1-0.1,0.7-0.8,0.9-0.9c1.1-0.6,1.3,0.6,1.1,0.9c-0.3,0.6-1.3,2-1.8,2.5c-1,0.9-1.1,1.6-1.8,2.3c-1.2,1.5-2.9,2.9-4,4.6
		c-1.2,1.8-2.9,2.9-4.5,4.3c-0.6,0.5-1.4,0.8-2.1,1.1c-1.9,0.9-3.6,0.4-5.3-0.6c-0.4-0.3-0.7-0.6-0.9-1.2c-0.3-1.4-1.2-2.7-1.2-4.3
		c-0.2,0.1-0.4,0.1-0.4,0.2c-1,2.2-2.7,3.4-5,3.8c-0.5,0.1-1.2,0.3-1.8,0.4c-2.4,0.5-4.9-1.5-5.5-3.4c-0.2-0.5-0.5-1-0.7-1.5
		c-0.4-1-0.6-2.1-0.6-3.1c0-0.9-0.2-1.7,0-2.5s0.1-1.5,0.1-2.2c-0.1-0.7,0.5-1,0.3-1.8c-0.1-0.5,0.2-1.2,0.3-1.8
		c0.4-0.5,0.5-0.9,0.8-1.7c0.3-0.8,0.6-1.5,0.5-2.3c0.7-1.4,0.9-3.1,2-4.4c0.3-0.4,0.6-0.8,0.8-1.2c0.5-1.1,1.2-1.9,2-2.6
		c0.3-0.2,0.5-0.4,0.8-0.4c1.2,0.3,2.5,0,3.8,0c1,0.1,1.9,0.1,2.9,0.3c2,0.3,3.4,1.6,4.5,3.3c0.3,0.5,0.3,1.3,0.5,2
		c-0.6,0.5-1,1.1-1.2,1.7c-0.1,0.6-0.7,0.9-1.2,1.5C117.2,32.3,117.6,32.5,117.9,32.5z M104.8,51.1c-0.6-0.6-1.1-1.1-1.5-1.5
		c0.1-0.6-0.1-1-0.3-1.4c-0.7-1.4-1.2-2.9-1.1-4.5c0-0.4-0.1-0.7-0.1-1.1c0-0.4,0-0.9,0-1.3c-0.1-0.4,0.3-0.7-0.2-1.1
		c-0.1,0.4-0.4,0.9-0.5,1.3c-0.4,2.5,0.2,4.8,1.3,7.1c0.2,0.4,0.6,0.7,1,1C103.5,50.3,103.6,51.1,104.8,51.1z M102.8,34.6
		c-0.1,0.1-0.3,0.1-0.3,0.1c0,0.1,0.1,0.3,0.1,0.4c0.1-0.1,0.1-0.1,0.2-0.2C102.9,34.8,102.9,34.7,102.8,34.6z M103.1,33.8
		c0.1-0.2,0.1-0.4,0.2-0.5c0-0.1,0-0.4,0-0.5C103,33.1,102.7,33.4,103.1,33.8z M104.6,43.6c0-0.5,0-0.9,0-1.3
		C104.5,42.7,104.2,43.1,104.6,43.6z M109.7,27.2c-0.3,0.4-0.7,0.6-1,1c-0.3,0.4-0.4,0.9-0.6,1.3c-1.4,2.8-2.2,5.7-2.2,8.8
		c0,0.4,0.1,0.7-0.1,0.9c-0.4,0.9-0.3,1.8-0.4,2.8c-0.4,2.5,0.6,4.5,1.5,6.7c0.3,0.8,0.9,1,1.6,0.9c1-0.1,1.8-0.6,2.5-1.3
		c1-1.1,1.8-2.2,2.7-3.3c0.3-0.4,0.6-1,0.7-1.5c0.2-1.1,0-2.1,0.4-3.2c-0.3-1.6,0.5-2.9,0.9-4.3c0.2-0.9,1-1.7,0.8-2.8
		c-1-0.4-1.7-1.3-2-2.5c-0.1-0.4-0.3-0.6-0.5-0.9c-0.1-0.4-0.3-0.7-0.4-1.1c-0.3-1.3-1.1-2-2.1-2.8
		C110.9,26.4,110.2,26.7,109.7,27.2z M118.2,47.8c0.1-0.5,0.1-0.5,0.1-1.8C118.1,46.1,118.1,46.1,118.2,47.8z M119,37.1
		c-0.2,1.2-0.4,2.2-0.5,3.5c0.1,0.8-0.1,1.4-0.1,2.1c-0.1,0.8-0.3,1.5-0.1,2.4c0.1-0.1,0.2-0.1,0.2-0.3c0.1-0.1,0.1-0.2,0.1-0.5
		c0.1-2.6,0.6-5,0.7-7.7C119.2,36.9,119,36.9,119,37.1z"/>
	<path class="st1" d="M144.5,13.7c1.4-0.6,2.9-0.5,4.3-0.6c1.8-0.2,3.7-0.1,5.7,0.1c1.2,0.1,2.2,0.2,3.3-0.1c0.1,0,0.3,0.1,0.7,0.1
		c-0.1,0.3-0.1,0.6-0.2,0.8s-0.3,0.4-0.6,0.6c-0.3,0.1-0.5,0.4-0.9,0.5c-0.7,0.1-1.3,0.4-2,0.7c-0.3,0.2-0.8,0.1-1.2,0.1
		c-1.2,0-2.5,0.1-3.7,0.1c-0.5,0.1-1,0.1-1.4,0.2c-1.4,0.6-2.9,0.7-4.4,1c-1,0.2-1.6,0.9-1.9,1.7c-0.1,0.4-0.1,0.8-0.3,1.2
		c-0.3,1.2-1.5,8.1-1.8,9.4c-0.3,1.4-0.6,2.9-1,4.3c-0.1,0.2-0.1,0.6-0.3,0.7c-0.7,0.8-1.4,5.5-1.6,7.1c-0.2,2.3-0.2,4.7-0.2,7.1
		c0.1,1.4,0.4,2.8,0.7,4.3c0.1,0.5,0.4,0.9,0.7,1.3c1,1.3,1.8,1.4,2.7,0.4c1-1.1,1.9-2.3,2.7-3.5c0.7-1.3,1.8-2.3,2-3.8
		c0.1-0.1,0.2-0.3,0.3-0.4c2-2.1,2.1-2.8,3.5-5.3c0.4-0.8,0.7-1.6,1.2-2.3c0.2-0.4,0.6-0.7,1.2-0.7c0.3,0,0.4,0.4,0.4,0.6
		c-0.1,0.7-0.2,1.1-0.6,2.2c-0.3,0.7-0.4,1.3-0.7,1.9c-0.5,0.9-0.9,1.9-1.4,2.8c-1.1,1.6-0.8,1.3-2.2,2.8c-0.9,1-1.7,2.1-2.2,3.3
		c-0.6,1.3-1.4,2.5-2.4,3.3c-0.9,0.7-1.7,1.4-2.9,1.7c-0.8,0.2-1.8,0.2-2.5-0.2c-0.7-0.4-1.7-0.6-2-1.6c-1-0.9-1.2-2.1-1.8-3.1
		c-0.1-0.1-0.1-0.2-0.1-0.4c0.2-1.3-0.2-2.6-0.5-3.8c-0.1-0.4,0-0.6,0-0.9c0.1-2.5,0.3-5,0.3-7.4c0.1-1.2,0.2-2.4,0.4-3.5
		c0.3-1.6,0.8-3.3,0.8-5c-0.1-1.1,0.6-3.8,0.7-4.1c0.1-0.2-0.2-0.7-0.1-1c0.4-1.2,0-6.1,1-7.1c-0.5,0.1-0.9,0.3-1.4,0.4
		c-1.3,0.5-2.8,0.4-4.1,0.9c-0.3,0.1-0.6,0.2-1,0.4c-0.3,0.1-0.7,0.2-1.2,0.1c-0.5-0.1-1.2-0.1-1.7-0.1c-0.5-0.1-1-0.4-1.4-0.7
		c-0.4-1.1,1.9-1.7,3.1-2.1c2-0.6,4-1.1,6-1.6c0.6-0.1,1.1-0.4,1.4-0.9c0.1-0.1,1-0.7,1.2-1.3c0.3-0.6,0.4-1.4,0.5-2.1
		c0.3-0.9,0.5-1.9,0.4-3.1c-0.1-0.5,0.2-1.1,0.3-1.6c0-0.1,0.1-0.5-0.1-0.6c-0.1-0.2-0.2-1.3-0.3-2c-0.1-0.6,0.1-2.4,2.9-2.7
		c2.8-0.3,3.7,0.8,4.2,1.3c0.2,0.1,0.5,0.4,0.7,0.5c0.6,0.4,1,1,0.9,1.6c-0.1,0.9,0.2,2-0.3,2.9c-0.1,0.2-0.8,2.8-0.9,3.2
		C145,12.8,144.6,13.2,144.5,13.7z M134.6,42.5c-0.3,0.9-0.7,1.5,0,2.5C135.3,44.3,134.9,43.5,134.6,42.5z M134.6,46.2
		c-0.1,0-0.1,0-0.1,0l-0.1,0.1C134.5,46.3,134.5,46.3,134.6,46.2z M135.1,39.2c0.1-0.4,0.1-0.5,0.1-0.7c0-0.2,0-0.5-0.3-0.5
		c-0.1,0-0.3,0.1-0.3,0.1c-0.1,0.1-0.1,0.4-0.1,0.6C134.5,38.9,134.7,38.9,135.1,39.2z M135,40.1c-0.1,0.2-0.9,0.4-0.2,0.9
		C134.9,40.6,134.9,40.3,135,40.1z M135.6,30.6c-0.7,0.4-0.7,0.4-0.3,1.1C135.4,31.3,135.5,31,135.6,30.6z M135.4,34.2
		c0,0-0.1-0.1-0.1-0.1c0,0.1-0.1,0.2-0.1,0.3l0.1,0.1C135.4,34.4,135.4,34.3,135.4,34.2z M136,40.3c-0.2,1.1-0.7,2,0.3,3.4
		C136.1,42.5,136.4,41.6,136,40.3z M136.6,28.6c-0.6,0.2-0.6,0.2-0.7,1.6c0.1,0,0.3,0.1,0.3,0C136.5,29.7,136.6,29.2,136.6,28.6z
		 M136.2,31c-0.1-0.1-0.1-0.2-0.2-0.3l-0.1,0.1C135.9,30.9,136,31,136.2,31L136.2,31z M136.1,46.4c-0.1-0.1-0.1-0.1-0.1-0.2
		c-0.1,0-0.1,0.1-0.1,0.1c0,0.1,0,0.2,0.1,0.3C136,46.5,136,46.4,136.1,46.4z M136,48.5c0-0.1,0-0.2-0.1-0.3h-0.1
		C135.9,48.3,136,48.4,136,48.5L136,48.5z M136.4,50.2h-0.1l0.1,0.2L136.4,50.2z M137.1,19.3c-0.5,2.4-1.2,8-0.6,7.2
		C136.4,25.4,137.8,17.8,137.1,19.3z M143.5,6.2c0-0.6-0.3-0.6-0.8-1.4c-0.5-0.4-1,1.3-0.9,2.3c0.1,1.3,0,2.6-0.5,3.7
		c-0.2,0.4-0.3,1.1-0.4,1.6c-0.1,0.6,0.4,1.1,0.4,1.8c0.6-0.5,0.7-1.1,1-1.7c0.2-0.5,0.7-1.6,0.7-2.1
		C143.1,10.8,143.6,5.2,143.5,6.2z"/>
	<path class="st1" d="M183,39.3c-0.1,1.3-3,6.5-3.7,7.3c-2,2.4-3.8,4.9-5.6,7.4c-0.4,0.6-1.1,1.1-1.8,1.6c-1.6,1.1-3.3,1.8-5.3,1.6
		c-1.4-0.1-2.5-0.9-3.3-2.1c-0.5-0.8-0.7-1.8-1-2.6c-0.1-0.1-0.1-0.1-0.1-0.2c-0.1-1-0.6-1.8-0.4-2.9c0.1-1,0.1-2,0.1-3.1
		c0-0.3,0.1-0.6,0-0.9c-0.1-0.8-0.1-1.6,0.4-2.3c0.2-0.3,0.2-0.7,0.3-1.1c0.3-1.1,0.7-2.3,1-3.4c0.2-0.8,0.4-1.6,0.5-2.4
		c0-0.7-0.2-1.5-0.1-2.3c0.2-0.8-0.3-1.4-0.5-2.1c-0.3-1.6-1.4-2.6-2.9-2.8c-0.4,0-1,0-1.2,0.2c-1,0.9-2.3,1.5-3,2.8
		c-0.6,1.1-1.2,2.3-1.6,3.5c-0.4,1.3-0.4,4.9-0.6,6.3c0,0.2-0.1,1-0.1,1.2c0,0.5,0.1,1,0.1,1.5c-0.1,0.6-0.1,1.4-0.2,2
		c-0.2,1.6-1.8,2.8-2.5,0.6c-1-1.1-1-2.5-1-4c0.1-0.8,0.1-2-0.3-2.7c-0.4-0.9-0.1-3.8-0.2-4.7c-0.1-0.3,0.1-0.6,0-0.9
		c-0.5-1.5,0-2.8,0.5-4.2c0.2-0.6,0.3-1,0.2-1.6c-0.2-0.8-0.1-1.6,0-2.4c0.3-2,0.7-4,1.1-6.1c0,0-0.2-0.2,0-0.8
		c0.7-1.1,0.8-2.4,1.2-3.6c0.4-1.8,0.9-3.6,1.3-5.5c0.3-1.2,1-2.3,1.6-3.5c0,0,0.7-1.3,1.4-1.7c1.1,0.1,1.2-0.4,2-1.1
		c0.8-0.7,1.8-0.9,2.9-0.9c0.5-0.1,0.9,0,1.2,0c1,0.6,1.6,1.6,1.9,2.8c0,0,0.1,0.4,0,0.8c-0.1,0.2-0.3,0.4-0.3,0.6
		c-0.1,1.1-0.7,2-1.4,2.8c-0.2,0.1-0.3,0.4-0.4,0.6c-1.8,2.3-2.7,5-4,7.4c-0.2,0.4-0.3,0.8-0.7,1.4c-0.2,1.1-1.7,2.5-1.7,2.5
		c-0.5,1.6-1.6,3.1-2,4.8c-0.2,0.6-0.3,1.1,0,1.6c0.4,0.2,0.6-0.1,0.8-0.2c0.4-0.2,0.7-0.5,1.1-0.7c1.1-0.8,2.2-1.3,3.6-1.2
		c1,0.1,2.1-0.1,3.2,0.4c2,0.9,3.9,1.8,5,4c0.5,0.9,0.6,1.2,1.2,2.1c0.1,0.5,0.1,1.5,0.3,2.1c0,0.8-0.7,2.7-0.9,3
		c-0.3,0.5-0.7,3-1.2,3.8c-0.2,0.4-0.4,0.9-0.3,1.2c0.1,0.4-0.3,1.1-0.5,1.3c-0.5,0.7-0.3,2.1-0.7,2.9c-0.3,0.6-0.5,1.1-0.2,1.8
		c0.1,0.1-0.1,0.4-0.1,0.6c-0.2,1.2-0.3,2.4,0.3,3.5c0.6,0.9,1.5,1.3,2.5,1.1c1-0.4,1.8-0.7,2.6-1.4c0.5-0.4,1-0.9,1.4-1.3
		c1.2-1.4,3.2-3.8,5-6.5c1.1-1.6,2.3-4.2,3.1-5.1c0.2-0.2,0.3-0.6,0.5-0.9C182.8,37.5,183,38.8,183,39.3z M153.5,25.7
		c0.1-0.6,0.6-1.2,0.1-2C152.9,24.5,152.9,25.2,153.5,25.7C153.5,25.8,153.5,25.8,153.5,25.7c-0.6,0.3-0.6,0.6-0.6,1.1
		C153.7,26.6,153.4,26.2,153.5,25.7C153.5,25.8,153.5,25.8,153.5,25.7C153.5,25.8,153.5,25.8,153.5,25.7z M155.8,14.7
		c0.1-0.1,0.1-0.4,0.1-0.5c-0.1-0.1-0.1-0.3-0.3-0.4c-0.7,0.8-0.7,1.6-0.9,2.3c-0.2,0.8-0.3,1.6-0.5,2.3c-0.5,1.3-0.5,2.6-0.8,3.9
		c0,0.1,0.2,0.4,0.4,0.6C154.7,20.1,154.9,17.4,155.8,14.7z M155.9,13c0.7-1.3,0.6-1.3,0.6-2.1C155.6,12.5,155.6,12.5,155.9,13z
		 M156.5,16.7c0.1,0.1,0.1,0.1,0.1,0.1c0.1,0,0.1-0.1,0.3-0.1c-0.1,0-0.1-0.1-0.1-0.1C156.7,16.7,156.7,16.7,156.5,16.7z M156.9,7.9
		c0.1,0.1,0.1,0,0.2-0.1c0.1-0.3,0.3-0.6,0.5-0.9c-0.1-0.1-0.2-0.1-0.3-0.1C157.1,7.1,157,7.5,156.9,7.9
		C156.9,7.9,156.9,7.9,156.9,7.9z M157.6,14.4c0.1,0.4-0.8,2.6-0.1,2.1c0.3-0.3,2.3-2.8,2.4-3c0.4-0.9,1.1-1.6,1.7-2.4
		c0.9-1.2,1.4-2.5,1.2-4c-0.1-0.4,0-0.2-0.3-0.7c-0.6-1-0.7-1-1.8,0C159.3,7.9,157.6,12.9,157.6,14.4z M166.5,54.5
		c-0.5-0.6-0.8-1.1-1.2-1.7v-0.1c0-0.1,0-0.1,0-0.1c0.1-0.5,0-0.9-0.1-1.4c-0.3-1.5-0.6-3.1-0.1-4.6c0.1-0.4,0.1-0.8,0.1-1.1
		c0.1-0.4,0.2-0.9,0.2-1.3c0.1-0.4,0.5-0.6,0.1-1.1c-0.3,0.4-0.6,0.7-0.7,1.1c-0.9,2.4-0.8,4.8-0.2,7.2c0.1,0.4,0.5,0.8,0.7,1.2
		l-0.1,0.1c0.1,0,0.1,0.1,0.1,0.1C165.5,53.5,165.4,54.2,166.5,54.5z M167.7,37.9c0,0.1,0,0.4,0.1,0.5c0.1-0.1,0.1-0.1,0.2-0.1
		c0-0.1,0-0.3,0-0.4C167.9,37.9,167.7,37.9,167.7,37.9z M168.5,37.2c0.1-0.2,0.2-0.3,0.3-0.5c0.1-0.1,0.1-0.3,0.1-0.5
		C168.5,36.5,168.1,36.7,168.5,37.2z"/>
	<path class="st1" d="M199,32.5c0.4,0.1,0.8,0.1,1.2,0.1c1.4,0.3,1.8,0.8,1.7,2.3c0,0.5-0.1,1.1,0,1.6c0.1,0.8,0.3,1.6,0.3,2.4
		c-0.1,0.7-0.5,1.4-0.6,2.1c-0.3,1.3-0.4,2.8-0.7,4c-0.4,1.7,0,2.2,0.2,3.9c0,0.1,0,0.3,0.1,0.4c0.3,1.8,1.4,2.3,2.9,1.3
		c1.7-1.1,2.5-1.8,3.8-3.3c1.1-1.3,2.2-2.2,3.2-3.6c0.3-0.5,0.7-1,1.1-1.5c0.3-0.3,0.4-0.6,0.7-0.9c1-1.1,0.8-1.2,2-2.3
		c0.1-0.1,0.8-0.8,0.9-0.9c1.1-0.6,1.3,0.6,1.1,0.9c-0.3,0.6-1.3,2-1.8,2.5c-1,0.9-1.1,1.6-1.8,2.3c-1.2,1.5-2.9,2.9-4,4.6
		c-1.2,1.8-2.9,2.9-4.5,4.3c-0.6,0.5-1.4,0.8-2.1,1.1c-1.9,0.9-3.6,0.4-5.3-0.6c-0.4-0.3-0.7-0.6-0.9-1.2c-0.3-1.4-1.2-2.7-1.2-4.3
		c-0.2,0.1-0.4,0.1-0.4,0.2c-1,2.2-2.7,3.4-5,3.8c-0.5,0.1-1.2,0.3-1.8,0.4c-2.4,0.5-4.9-1.5-5.5-3.4c-0.2-0.5-0.5-1-0.7-1.5
		c-0.4-1-0.6-2.1-0.6-3.1c0-0.9-0.2-1.7,0-2.5s0.1-1.5,0.1-2.2c-0.1-0.7,0.5-1,0.3-1.8c-0.1-0.5,0.2-1.2,0.3-1.8
		c0.4-0.5,0.5-0.9,0.8-1.7c0.3-0.8,0.6-1.5,0.5-2.3c0.7-1.4,0.9-3.1,2-4.4c0.3-0.4,0.6-0.8,0.8-1.2c0.5-1.1,1.2-1.9,2-2.6
		c0.3-0.2,0.5-0.4,0.8-0.4c1.2,0.3,2.5,0,3.8,0c1,0.1,1.9,0.1,2.9,0.3c2,0.3,3.4,1.6,4.5,3.3c0.3,0.5,0.3,1.3,0.5,2
		c-0.6,0.5-1,1.1-1.2,1.7c-0.1,0.6-0.7,0.9-1.2,1.5C198.4,32.3,198.7,32.5,199,32.5z M185.9,51.1c-0.6-0.6-1.1-1.1-1.5-1.5
		c0.1-0.6-0.1-1-0.3-1.4c-0.7-1.4-1.2-2.9-1.1-4.5c0-0.4-0.1-0.7-0.1-1.1c0-0.4,0-0.9,0-1.3c-0.1-0.4,0.3-0.7-0.2-1.1
		c-0.1,0.4-0.4,0.9-0.5,1.3c-0.4,2.5,0.2,4.8,1.3,7.1c0.2,0.4,0.6,0.7,1,1C184.6,50.3,184.7,51.1,185.9,51.1z M183.9,34.6
		c-0.1,0.1-0.3,0.1-0.3,0.1c0,0.1,0.1,0.3,0.1,0.4c0.1-0.1,0.1-0.1,0.2-0.2C184,34.8,184,34.7,183.9,34.6z M184.3,33.8
		c0.1-0.2,0.1-0.4,0.2-0.5c0-0.1,0-0.4,0-0.5C184.1,33.1,183.8,33.4,184.3,33.8z M185.8,43.6c0-0.5,0-0.9,0-1.3
		C185.6,42.7,185.3,43.1,185.8,43.6z M190.9,27.2c-0.3,0.4-0.7,0.6-1,1c-0.3,0.4-0.4,0.9-0.6,1.3c-1.4,2.8-2.2,5.7-2.2,8.8
		c0,0.4,0.1,0.7-0.1,0.9c-0.4,0.9-0.3,1.8-0.4,2.8c-0.4,2.5,0.6,4.5,1.5,6.7c0.3,0.8,0.9,1,1.6,0.9c1-0.1,1.8-0.6,2.5-1.3
		c1-1.1,1.8-2.2,2.7-3.3c0.3-0.4,0.6-1,0.7-1.5c0.2-1.1,0-2.1,0.4-3.2c-0.3-1.6,0.5-2.9,0.9-4.3c0.2-0.9,1-1.7,0.8-2.8
		c-1-0.4-1.7-1.3-2-2.5c-0.1-0.4-0.3-0.6-0.5-0.9c-0.1-0.4-0.3-0.7-0.4-1.1c-0.3-1.3-1.1-2-2.1-2.8C192,26.4,191.3,26.7,190.9,27.2z
		 M199.3,47.8c0.1-0.5,0.1-0.5,0.1-1.8C199.2,46.1,199.2,46.1,199.3,47.8z M200.1,37.1c-0.2,1.2-0.4,2.2-0.5,3.5
		c0.1,0.8-0.1,1.4-0.1,2.1c-0.1,0.8-0.3,1.5-0.1,2.4c0.1-0.1,0.2-0.1,0.2-0.3c0.1-0.1,0.1-0.2,0.1-0.5c0.1-2.6,0.6-5,0.7-7.7
		C200.3,36.9,200.1,36.9,200.1,37.1z"/>
	<path class="st1" d="M246.2,39.6c-0.2,0.4-0.5,0.7-0.6,1.1c-0.5,1.5-1.6,2.6-2.7,3.6c-0.5,0.6-1.2,1-1.4,1.8
		c-0.1,0.2-0.3,0.4-0.5,0.6c-1.9,1.4-3.9,2.3-6,2.1c-1.2-0.1-2.1-0.6-2.6-1.8c-0.3-0.8-0.8-1.5-1.3-2.1c-0.6-0.7-0.4-1.6-0.3-2.6
		c0-0.3,0.1-1.2,0.2-1.4c0.4-1.4,0.3-2.9,1.2-4.3c0.7-1,1.1-2,1.2-3.1c0.1-0.6,0.5-1.3,0.8-2.1c0.5-0.9,1.5-3.5,1.6-3.9
		c0-0.6,0.1-1.1,0-1.7c0-0.7-0.4-1.1-1.2-1.2c-2.2-0.2-3.8,0.6-5.2,2.5c-0.3,0.5-1.8,2.5-2.5,3.6c-0.8,1.2-1.4,2.5-2.1,3.8
		c-0.3,0.4-0.5,0.9-0.8,1.3c-0.2,0.4-0.5,0.7-0.6,1.1c-0.5,1.5-1.4,2.8-2.1,4.1c-0.1,0.4-0.3,0.6-0.4,0.9c-0.2,1.3-1,2.3-1.8,3.4
		c-0.4,0.5-0.8,0.8-1.4,0.9c-0.6,0.1-1.2,0-1.8,0c-0.7-0.7-0.4-2.1-1.2-2.7c-0.1-0.1-0.1-0.3-0.1-0.5c0.1-1.3,0-2.5-0.3-3.7
		c-0.1-0.6,0-1.5,0.2-2.2c0.3-1.3,0.1-2.3-0.3-3.3c-0.1-0.2-0.2-0.4-0.3-0.7c1-1,2.1-1.3,3.2-1.3c0.9-0.1,1.6,0.3,2.2,0.9
		c0.6,0.5,1,1.1,1,2c0,0.7,0.2,1.3,0.3,1.8c0.2,0.1,0.2,0.1,0.3,0.1c0.1,0,0.1-0.1,0.1-0.1c1.6-2.6,3.1-5.2,4.6-7.7
		c0,0,0.9-1.1,1.6-1.6c1-1,2-1.9,3.1-2.9c1.7-1.6,3.6-1.9,5.5-2.2c0.5,0,0.9,0.1,1.3,0c1.5-0.1,2.5,0.6,3.5,1.5
		c0.5,0.5,0.8,1.2,0.6,2.1c-0.1,0.5-0.1,1-0.1,1.5c-0.1,0.8-0.4,1.3-0.4,1.3c-0.5,1.7-1.4,3.3-1.7,4.9c-0.3,1.1-0.7,2.2-1.2,3.3
		c-0.3,0.6-0.6,2-0.8,2.3c-0.3,0.5-0.5,1.1-0.5,1.5c0.1,0.4,0.1,0.7-0.1,1.1c-0.1,0.3-0.2,0.6-0.3,0.9c0.1,0.5,0.4,1,0.4,1.5
		c0.1,0.6,0.3,0.9,0.8,1.1c1,0.7,1.9,0.6,3.2-0.3c1.2-1,2.5-2.4,3.5-3.7c0.6-0.9,1.4-1.6,2-2.3C246.3,38.6,246.8,38.4,246.2,39.6z
		 M231.9,38.7c-0.1-0.1-0.1-0.1-0.1-0.1l-0.1,0.1c-0.1,0.1,0,0.1,0,0.1S231.9,38.7,231.9,38.7z M232.9,40.1
		c-0.1,0.1-0.3,0.3-0.3,0.4c-0.1,0.1-0.1,0.4-0.2,0.5C232.8,40.8,233.2,40.6,232.9,40.1z M232.8,37.7c0.1,0,0.1-0.1,0.1-0.1
		C232.9,37.5,232.9,37.5,232.8,37.7C232.8,37.6,232.8,37.7,232.8,37.7z M233.8,39c-0.1,0-0.2,0.1-0.3,0.1c-0.1,0.1-0.1,0.2-0.1,0.4
		c0.1,0,0.3,0,0.3,0C233.8,39.3,233.8,39.1,233.8,39z M234.6,31.8C234.6,31.8,234.6,31.8,234.6,31.8c-0.1,0-0.1,0.1-0.1,0.1
		c0.1,0,0.1,0,0.1,0C234.6,31.9,234.6,31.9,234.6,31.8z M235.7,31.5c-0.1,0.4-0.1,0.7-0.2,1.1c-0.1,0.4-0.5,0.6-0.6,1.1
		c-0.1,0.4-0.5,0.6-0.1,1.1c0.3-0.4,0.6-0.6,0.8-1.1c1.1-2.3,2.4-5,2-7.4c-0.1-0.4-0.3-0.6-0.5-1c0,0,0,0,0.1,0
		c-0.1-0.1-0.1-0.1-0.1-0.1c0-0.8-0.7-1.4-1.6-1.5c0.5,0.6,1.4,1,1.6,1.5c0,0.1,0,0.1,0,0.1c-0.2,0.5-0.2,0.7-0.1,1.1
		C237.1,27.9,236.3,29.9,235.7,31.5z"/>
</g>
<g class="st0">
</g>
<g class="st0">
	<path class="st1" d="M136.2,70.5c1.4-0.6,2.9-0.5,4.3-0.6c1.8-0.2,3.7-0.1,5.7,0.1c1.2,0.1,2.2,0.2,3.3-0.1c0.1,0,0.3,0.1,0.7,0.1
		c-0.1,0.3-0.1,0.6-0.2,0.8s-0.3,0.4-0.6,0.6c-0.3,0.1-0.5,0.4-0.9,0.5c-0.7,0.1-1.3,0.4-2,0.7c-0.3,0.2-0.8,0.1-1.2,0.1
		c-1.2,0-2.5,0.1-3.7,0.1c-0.5,0.1-1,0.1-1.4,0.2c-1.4,0.6-2.9,0.7-4.4,1c-1,0.2-1.6,0.9-1.9,1.7c-0.1,0.4-0.1,0.8-0.3,1.2
		c-0.3,1.2-1.5,8.1-1.8,9.4c-0.3,1.4-0.6,2.9-1,4.3c-0.1,0.2-0.1,0.6-0.3,0.7c-0.7,0.8-1.4,5.5-1.6,7.1c-0.2,2.3-0.2,4.7-0.2,7.1
		c0.1,1.4,0.4,2.8,0.7,4.3c0.1,0.5,0.4,0.9,0.7,1.3c1,1.3,1.8,1.4,2.7,0.4c1-1.1,1.9-2.3,2.7-3.5c0.7-1.3,1.8-2.3,2-3.8
		c0.1-0.1,0.2-0.3,0.3-0.4c2-2.1,2.1-2.8,3.5-5.3c0.4-0.8,0.7-1.6,1.2-2.3c0.2-0.4,0.6-0.7,1.2-0.7c0.3,0,0.4,0.4,0.4,0.6
		c-0.1,0.7-0.2,1.1-0.6,2.2c-0.3,0.7-0.4,1.3-0.7,1.9c-0.5,0.9-0.9,1.9-1.4,2.8c-1.1,1.6-0.8,1.3-2.2,2.8c-0.9,1-1.7,2.1-2.2,3.3
		c-0.6,1.3-1.4,2.5-2.4,3.3c-0.9,0.7-1.7,1.4-2.9,1.7c-0.8,0.2-1.8,0.2-2.5-0.2c-0.7-0.4-1.7-0.6-2-1.6c-1-0.9-1.2-2.1-1.8-3.1
		c-0.1-0.1-0.1-0.2-0.1-0.4c0.2-1.3-0.2-2.6-0.5-3.8c-0.1-0.4,0-0.6,0-0.9c0.1-2.5,0.3-5,0.3-7.4c0.1-1.2,0.2-2.4,0.4-3.5
		c0.3-1.6,0.8-3.3,0.8-5c-0.1-1.1,0.6-3.8,0.7-4.1c0.1-0.2-0.2-0.7-0.1-1c0.4-1.2,0-6.1,1-7.1c-0.5,0.1-0.9,0.3-1.4,0.4
		c-1.3,0.5-2.8,0.4-4.1,0.9c-0.3,0.1-0.6,0.2-1,0.4c-0.3,0.1-0.7,0.2-1.2,0.1c-0.5-0.1-1.2-0.1-1.7-0.1c-0.5-0.1-1-0.4-1.4-0.7
		c-0.4-1.1,1.9-1.7,3.1-2.1c2-0.6,4-1.1,6-1.6c0.6-0.1,1.1-0.4,1.4-0.9c0.1-0.1,1-0.7,1.2-1.3c0.3-0.6,0.4-1.4,0.5-2.1
		c0.3-0.9,0.5-1.9,0.4-3.1c-0.1-0.5,0.2-1.1,0.3-1.6c0-0.1,0.1-0.5-0.1-0.6c-0.1-0.2-0.2-1.3-0.3-2c-0.1-0.6,0.1-2.4,2.9-2.7
		c2.8-0.3,3.7,0.8,4.2,1.3c0.2,0.1,0.5,0.4,0.7,0.5c0.6,0.4,1,1,0.9,1.6c-0.1,0.9,0.2,2-0.3,2.9c-0.1,0.2-0.8,2.8-0.9,3.2
		C136.7,69.6,136.3,70,136.2,70.5z M126.3,99.3c-0.3,0.9-0.7,1.5,0,2.5C127,101.1,126.7,100.3,126.3,99.3z M126.3,103
		c-0.1,0-0.1,0-0.1,0l-0.1,0.1C126.2,103.1,126.3,103.1,126.3,103z M126.8,96c0.1-0.4,0.1-0.5,0.1-0.7s0-0.5-0.3-0.5
		c-0.1,0-0.3,0.1-0.3,0.1c-0.1,0.1-0.1,0.4-0.1,0.6C126.3,95.7,126.5,95.7,126.8,96z M126.7,96.9c-0.1,0.2-0.9,0.4-0.2,0.9
		C126.6,97.4,126.7,97.1,126.7,96.9z M127.3,87.4c-0.7,0.4-0.7,0.4-0.3,1.1C127.1,88.1,127.2,87.8,127.3,87.4z M127.1,91
		c0,0-0.1-0.1-0.1-0.1c0,0.1-0.1,0.2-0.1,0.3l0.1,0.1C127.1,91.2,127.1,91.1,127.1,91z M127.8,97.1c-0.2,1.1-0.7,2,0.3,3.4
		C127.8,99.3,128.2,98.4,127.8,97.1z M128.3,85.4c-0.6,0.2-0.6,0.2-0.7,1.6c0.1,0,0.3,0.1,0.3,0C128.2,86.5,128.3,86,128.3,85.4z
		 M127.9,87.8c-0.1-0.1-0.1-0.2-0.2-0.3l-0.1,0.1C127.6,87.7,127.8,87.8,127.9,87.8L127.9,87.8z M127.8,103.2
		c-0.1-0.1-0.1-0.1-0.1-0.2c-0.1,0-0.1,0.1-0.1,0.1c0,0.1,0,0.2,0.1,0.3C127.7,103.3,127.8,103.2,127.8,103.2z M127.8,105.3
		c0-0.1,0-0.2-0.1-0.3h-0.1C127.6,105.1,127.7,105.2,127.8,105.3L127.8,105.3z M128.1,107H128l0.1,0.2L128.1,107z M128.8,76.1
		c-0.5,2.4-1.2,8-0.6,7.2C128.2,82.2,129.5,74.6,128.8,76.1z M135.2,63c0-0.6-0.3-0.6-0.8-1.4c-0.5-0.4-1,1.3-0.9,2.3
		c0.1,1.3,0,2.6-0.5,3.7c-0.2,0.4-0.3,1.1-0.4,1.6c-0.1,0.6,0.4,1.1,0.4,1.8c0.6-0.5,0.7-1.1,1-1.7c0.2-0.5,0.7-1.6,0.7-2.1
		C134.8,67.6,135.3,62,135.2,63z"/>
	<path class="st1" d="M167.9,96.3c-0.3,0.8-1.3,1.9-2,2.2c-1.8,1.3-2.2,1.8-3,2.2c-1.6,0.8-0.7,0.1-2.3,0.9
		c-0.4,0.2-0.6,0.6-1.1,0.9c-0.7,0.4-1.1,0.9-1.1,1.8c0,0.7-0.2,1.3-0.4,2c-0.3,0.9-0.7,1.4-1.4,1.9c-0.9,0.8-1.8,1.6-2.7,2.3
		c-0.6,0.5-1.2,1.1-2.2,1c-0.7-0.1-1.6,0.5-2.4,0.8c-0.3,0.1-0.6,0.3-0.9,0.2c-1.4-0.1-2.7-0.2-4.2-0.4c-0.2-0.7-0.3-1.3-0.5-1.9
		c1.4-2.8,3.9-4.2,6.3-5.5c0.5-0.3,1.1-0.6,1.7-0.8c1-0.4,1.6-0.5,1.7-2.2c0,0,0.4-0.9,0.2-1.1c-0.1-0.4-0.5-0.4-0.6-0.9
		c-0.2-0.9-1.1-1.3-2-1.4c-1.2-0.2-2.5-0.1-3.7-0.2c-0.9-0.1-1.8-0.1-2.5-0.6c-0.1-0.1-0.7-0.3-0.8-0.4c-0.1-0.3-0.9-0.8-0.9-0.8
		c-0.4-0.4-0.5-1.3-0.9-1.8c-0.1-0.1-0.1-0.6,0.1-0.9c0.1-0.4-0.5-1.2-0.4-1.5c0.2-0.6,0.1-1.8-0.1-2.5c-0.2-0.4,0.4-0.9,0.1-1.1
		c-0.2-0.8,0.3-1.1,0.5-1.7c0.1-0.3,0.7-0.6,0.9-1.1c0.1-0.4,0.4-0.8,0.4-1.1c0.3-0.4,1.3-2.2,2-2.6c0.8-0.4,2-0.1,2.6-0.7
		c0.1-0.1,1.8-0.6,2-0.6c1.3,0,2.5,0.1,3.9,0.6c1.4,0.5,2.3,1.3,2.9,2.6c0.1,0.1,0.2,2-0.2,2.6c-0.8,3.5-6.5,6.5-6.1,3.8
		c0-0.4-0.1-0.7,0-0.9c0.3-0.7,0.6-1.3,1-2.1c0.2-0.4,0.5-0.7,0.7-1.1c0.2-0.4,0.3-0.9-0.1-1.2c-0.4-0.4-0.8-0.8-1.4-0.5
		c-1.5,0.6-2.7,1.7-3.7,3c-0.8,1.2-1.5,2.5-1.4,4c0.1,1,0.1,2.3,1,3c0.2,0.1,0.4,0.4,0.5,0.6c0.7,0.6,1,0.6,1.8,0.6
		c1.2,0.1,2.5,0.4,3.7,0.4c1.9,0.1,3.3,0.9,4.4,2.6c0.3,0.5,0.6,0.9,1,1.4c0.6,0.3,1.2,0.2,1.7-0.1c2.1-0.9,1.2,0.1,3.6-1.8
		c1.8-0.8,1.7-1.8,3.5-2.4c0.1-0.1,0.3-0.1,0.5-0.1c0.1,0,0.2,0.1,0.3,0.2S168,96.2,167.9,96.3z M143.4,87.3
		c-0.1-0.1-0.2-0.1-0.3-0.1c0,0-0.1,0.1-0.1,0.1c0.1,0.1,0.1,0.1,0.2,0.2C143.3,87.4,143.4,87.4,143.4,87.3z M145.1,90.3l-0.1-0.1
		c-0.1,0-0.1,0.1-0.1,0.1c-0.3,0.9-0.3,3.3,0,2.7C145.1,92,144.9,91.2,145.1,90.3z M144.9,87c0,0,0.1,0.1,0.1,0.1
		c0-0.1,0.1-0.1,0.1-0.1c0,0,0-0.1-0.1-0.1C145,86.9,144.9,86.9,144.9,87z M152.6,105.7c-0.7,0.3-1.2,0.5-1.6,0.8
		c-1,0.5-1.8,1.2-2.9,1.6c-0.9,0.4-1.4,1-2,1.8c0.5,0.6,1.2,0.9,2,0.8c1-0.1,1.9-0.6,2.5-1.3c0.7-0.8,1.4-1.8,2-2.7
		C152.7,106.4,152.6,106.1,152.6,105.7z M152.3,110.1c0-0.1-0.1-0.3-0.1-0.4c-0.3-0.1-0.3,0.2-0.5,0.4v0.1c0,0,0,0-0.1,0
		c0,0.1,0,0.1,0,0.1c-0.1-0.1-0.1-0.1-0.3-0.1c-0.1-0.1-0.3,0-0.4,0.1c0.1,0.1,0,0.3,0.1,0.4c0.1,0.1,0.3,0.2,0.4,0.1
		c0.1-0.1,0.1-0.3,0.2-0.4c0.1,0,0.1,0,0.1-0.1C152,110.3,152.3,110.6,152.3,110.1z M156.2,100.6c0-0.1-0.2-0.1-0.3-0.2
		c-0.1,0.1-0.2,0.3-0.2,0.4c-0.1,0.9-0.3,1.6-0.3,2.4c-0.1,1.1-0.3,2.1-1,3.1c-0.3,0.7-1.2,1.1-0.8,1.2c0.3,0.1,1-0.7,1.2-0.4
		c0.2-0.4,0.4-0.6,0.5-1c0.2-0.6,0.1-1.2,0.4-1.8C156.2,103.2,156.2,101.9,156.2,100.6z"/>
	<path class="st1" d="M182.6,104c-1,1.4-2.2,2.5-3.6,3.5c-0.5,0.4-1.1,0.6-1.7,0.6c-1.6,0.3-3.3,0.6-5,0.6c-1,0-1.8-0.2-2.5-0.9
		c-0.8-0.8-1.8-1.4-2.3-2.6c-0.1-0.2-0.2-0.3-0.3-0.4c-0.1-0.3-0.3-1.8-0.5-2.4c-0.1-0.6-0.5-0.8-0.6-1.8c0-0.3-0.1-0.6-0.1-0.9
		c0.1-0.9,0.1-2.7,0.3-3.3c0.6-1.9,1.5-3.7,2.4-5.5c0.5-1,1-2,1.6-2.9c0.2-0.3,0.1-0.7,0.5-1c0.5-0.3,1.1-0.9,1.6-1
		c1.1-0.1,2.2-0.3,3.2,0.4c0.3,0.1,0.6,0.4,1,0.6c0.5-0.3,1.1-0.6,1.6-0.9c1,0.1,2,0.3,3.1,0c1.6-0.4,3,0.4,4.3,1.2
		c0.5,0.4,0.7,1.1,1,1.8c0.2,0.8,0.3,1.6,0.3,2.4c-0.1,1.8-0.2,3.5-0.3,5.2c-0.1,0.3-0.1,0.5-0.2,0.7c-0.1,0.3-0.4,0.4-0.5,0.7
		c-0.3,0.6-0.4,1.1-0.7,1.8c1,0.4,1.8,0.2,2.7,0.1c2-0.2,4-1.2,5.7-2.5c1.2-0.9,3.4-2.9,3-1.1c-0.7,1.3-1.8,2.1-3.2,3.2
		c-1.3,0.5-2.6,1.5-3.9,1.8c-1.7,0.5-3.4,0.9-5.1,0.9C183.7,102.8,183.1,103.4,182.6,104z M169.4,98.2c-0.2,0.9-0.1,1.5,0.1,2.1
		C169.8,99.5,169.8,99.2,169.4,98.2z M170.7,95.7c0-0.1-0.1-0.2-0.2-0.2c-0.1,0-0.3,0.1-0.3,0.2c0,0.4,0,0.8,0.1,1.3
		C170.8,96.6,170.9,96.2,170.7,95.7z M171.8,96.6c-0.1,0.4,0,0.8-0.1,1.1c-1.2,2.6-0.5,5.1,0.7,7.4c1,1.7,2.2,2,3.9,1.1
		c1.8-1,3.1-2.4,4.2-4.1c0.1-0.1,0.1-0.4,0.1-0.6c-0.5-0.3-0.9-0.6-1.4-0.9c-1.8-1-3.3-2.3-4.2-4.3c-0.7-1.3-1.2-2.6-1.2-4.2
		C172.8,93.4,172,94.8,171.8,96.6z M179.4,89.6c-0.3,0.4-0.5,0.9-0.7,1.3c-1.2,1.9-0.7,3.8,0.3,5.5c0.4,0.8,1.1,1.5,1.7,2.1
		c0.3,0.3,0.7,0.6,1.2,0.4c0.5-1.6,1.2-3.1,1.6-4.7c0.1-0.2,0.1-0.5,0-0.8c0-0.4-0.1-0.9-0.1-1.3c-0.1-1.8-0.7-3.3-2.7-3.7
		C180.1,88.5,179.8,89,179.4,89.6z"/>
	<path class="st1" d="M223.7,59c0.1,0.4,0.1,0.6,0.2,0.8c0.7,1.5,0.5,3.1,0.3,4.8c-0.2,1.6-0.5,3.1-1,4.6c-0.3,0.8-0.5,1.5-0.8,2.2
		c0,0.6-0.3,1.1-0.3,1.1c-0.6,1.2-0.9,2.5-1.8,3.5c-0.1,0.1-0.2,0.5-0.2,0.7c-0.3,1.6-0.6,3-1.1,4.5c-0.1,0.6-0.1,1.3-0.3,1.9
		c-0.4,1-0.1,2.1-0.8,3c-0.6,0.9-0.9,2-1.4,3c-0.9,1.6-1.5,3.4-2.2,5.2c-0.3,0.7,0.3,1.4-0.1,2.2c-0.3,0.7,0.5,1.2,0.3,1.9
		c0.5,0.3,0.4,0.9,0.3,1.3c-0.1,0.7,0.1,1.3,0.5,1.8c0.9,1.1,1.6,2.3,2.8,3.1c1.4,0.9,2.7,0.6,4-0.1c1.6-1,2.7-2.3,3.7-4
		c1.1-1.7,2.2-3.3,3.1-5.1c0.3-0.5,0.7-0.5,1-0.5c0.3-0.1,0.6,0.4,0.5,0.9c-0.1,0.4-0.7,2-0.9,2.3c-0.3,0.5-0.8,1-1,1.5
		c-0.4,1.3-1.6,2.3-2.3,3.5c-0.2,0.3-0.5,0.6-0.8,0.9c-0.3,0.3-0.7,0.5-1,0.9c-2,2.1-4.5,2.7-7.2,2.6c-0.6,0-1.2-0.2-1.7-0.4
		c-0.7-0.1-1.2-0.4-1.8-0.6c-0.3-0.1-0.5-0.4-0.6-0.5c-1.3-1.3-2.3-2.9-3.5-4.3c-0.5,0.3-0.7,0.7-0.9,1.2c-0.3,0.7-0.7,1.6-1.2,2.1
		c-0.7,0.9-1.5,1.6-2.7,1.7c-0.7,0-1.4,0.1-2,0.4c-1,0.4-2,0.3-3,0c-1.8-0.5-3-1.6-3.3-3.5c0,0,0.1,0,0.1,0.1c0-0.1,0-0.1,0-0.1
		c0.1,0.1,0.3,0.2,0.4,0.2c0.1,0.1,0.1,0,0.2-0.1c0.1,0,0-0.1,0-0.2c-0.2-0.3-0.4-0.4-0.6,0.1c0,0,0,0-0.1,0
		c-0.2-0.4-0.4-0.6-0.5-0.9c-0.2-0.6,0.5-0.8,0.2-1.3c-0.2-0.5-0.5-0.2-1-0.4c-0.2-0.2-0.2-0.9-0.3-1.2c-0.1-0.4-0.2-0.9-0.3-1.3
		c-0.1-0.6,0.5-1.7,0.8-1.2c0.6,1-0.4,2.8,0,3c0.6,0,0.5-0.4,0.6-0.8c0-1.1-0.2-1.8-0.2-3c0-0.5-0.7,0.1-0.8-0.8
		c0.3-1.6,0.3-3.5,1.6-5c-0.1-0.2-0.3-0.5-0.2-0.7c0.3-0.8,0.3-1.5,0.3-2.2c0-0.9,0.2-1.8,0.9-2.6c0.8-1.1,1.5-2.5,2.1-3.8
		c0.8-1.7,2.2-2.8,3.7-3.8c0.3-0.2,0.7-0.4,1-0.6c0.5-0.4,1-0.5,1.6-0.5c1.5,0,3.1-0.2,4.5,0.3c0.1,0.1,0.3,0,0.6-0.1
		c0.5-1.2,0.5-2.6,1-3.8c0,0,0.1-0.5,0.3-1.1c0.2-0.5,0.4-0.9,0.6-1.4c0.3-0.9,0.7-1.9,1-2.9c0.1-0.4-0.1-0.9-0.1-1.4
		c0-1.3,0.3-2.6,0.8-3.9c0.4-0.9,1-1.8,2.1-2c0.3,0,0.5-0.4,0.7-0.5c0,0,1.4-1,3.4-1.1C223,58.2,223.7,59,223.7,59z M209.3,96.5
		c-0.1-0.4-0.1-0.9-0.2-1.3c0.7-0.6,0.3-1.1,0.2-1.7c-0.1-0.5-0.1-1-0.1-1.5c0-1.5,0.5-3,0.4-4.5c0.5-0.7,0.1-1.3-0.3-2
		c0.5-1,0.7-1.9,0.7-2.8c0-0.7,0.1-1.4,0.3-2.1c0.1-0.3,0.1-0.6,0.1-0.9c0-0.8-0.6-1.3-1.4-1.1c-0.5,0.1-1,0.3-1.4,0.6
		c-1.6,1.2-3.3,2.5-4.2,4.4c-0.5,1-0.8,2.1-1.5,2.9c-0.3,0.5-0.3,1.1-0.5,1.6c-0.1,0.5-0.2,1-0.3,1.5c-0.3,1.6-0.7,3.1-0.8,4.7
		c-0.1,0.6-0.1,1.2-0.4,1.8c-0.2,0.4-0.2,0.9-0.2,1.3c0,1,0.1,2,0.2,3c0.1,0.4,0.1,0.7,0.3,1c0.5,0.8,1,1.6,1.5,2.3
		c1,1.3,2.2,1.3,3.4,0.1c1.7-1.5,3-3.4,4-5.5C209.5,97.7,209.6,97.1,209.3,96.5z M200.7,89c0.1-0.4,0.1-0.7,0.1-0.9h0.1
		c0-0.1,0-0.1,0-0.1c0.3,0,0.3-0.2,0.3-0.4c0-0.1-0.1-0.1-0.1-0.1c-0.1,0-0.1,0.1-0.1,0.1c0,0.1-0.1,0.3-0.1,0.4c0,0,0,0-0.1,0
		c0,0,0,0,0,0.1C200.3,88.1,200.4,88.4,200.7,89z M201.4,86.5c0.1,0,0.1,0.1,0.2,0.1c0-0.1,0-0.1,0-0.2c0,0-0.1,0-0.1,0
		C201.5,86.4,201.4,86.5,201.4,86.5z M210.4,88.8c-0.2,0.4-0.2,0.4,0,0.9C210.6,89.3,210.6,89.1,210.4,88.8z M210.5,87.4
		c0,0.1,0.1,0.1,0.1,0.2c0-0.1,0-0.1,0.1-0.1c-0.1-0.1-0.1-0.1-0.1-0.1C210.6,87.4,210.5,87.4,210.5,87.4z M212.5,88.3
		c0.1-1,0.3-1.9,0.4-2.8c0.1-1,0.3-1.9,0.4-2.9c0.1-0.7,0.2-1.3,0.3-2.1c0.1-0.9,0.2-1.9,0.3-2.9c-0.2,0.4-0.3,0.5-0.3,0.8
		c-0.1,0.5-0.2,1.1-0.3,1.6c-0.2,1.1-0.3,2.1-0.5,3.1c-0.1,0.9-0.2,1.6-0.3,2.6c0,0.3-0.1,0.6-0.1,0.9c-0.1,1.6-0.5,3.2-0.7,4.8
		c-0.1,0.8-0.1,1.6-0.1,2.3c0,0.4,0.1,0.9,0.1,1.3c0,0.4-0.3,1.6-0.1,1.8c0.1-0.3,0.3-0.7,0.3-0.9c0.1-0.3,0.1-0.6,0.2-1.1
		c0.1-0.4-0.1-1.1-0.1-1.4c0.1-0.6,0-1.4,0-2.1c0-1.1,0.2-1.7,0.3-2.8C212.6,88.5,212.6,88.4,212.5,88.3z M213,91.7
		c0-0.1,0-0.3-0.1-0.5l-0.1,0.1c0.1,0.1,0.1,0.3,0.1,0.5C213,91.8,213,91.8,213,91.7z M215.5,67.1c0.5-1.3-0.1-0.4-0.1-0.5
		c-0.1,0.1-0.9,2.4-1.3,4c-0.3,1.2-0.3,1.9-0.1,2.1C213.8,72.7,214.9,68.8,215.5,67.1z M217.1,72.5c-0.7,1.3-1.2,2.6-1.2,4
		c0,0.4,0,0.7-0.1,1.1c-0.7,2.2-0.8,3.3-0.4,5.6c0.5-1,0.8-1.8,1.2-2.8c0.3-0.7,0.6-1.6,0.9-2.3c0.3-0.8,0.6-1.6,0.9-2.3
		c0.3-0.8,0.5-1.6,0.7-2.4c0.3-0.7,0.2-1.5,0.8-2.3c0.3-0.4,0.3-1.2,0.5-1.8c1-3,1-3,1-6c0-0.8-0.1-1.5-0.3-2.2
		c-0.1-0.4-0.3-0.9-0.8-0.8c-0.5,0-0.6,0.5-0.9,0.9c-0.1,0.1-0.1,0.4-0.1,0.6c-0.3,1.5-0.5,3-0.7,4.5c-0.2,0.8-0.4,1.6-0.6,2.4
		c-0.3,0.9-0.6,1.9-0.5,2.8C217.3,72.2,217.1,72.5,217.1,72.5z"/>
	<path class="st1" d="M247.5,96.4c-0.1,1.2-1,2.1-1.5,3.2c-0.1,0.4-0.3,0.6-0.6,0.9c-1.2,1.5-2,3.3-3.6,4.3c-0.6,0.4-1.1,1-1.5,1.6
		c-1.9,2.7-4.5,3.5-7.4,3.2c-1.8-0.3-2.7-1.7-3.8-3c-0.1-0.1-1-3.4-1-3.5c0-1.6,0.1-3.9,0.3-5.5c0.3-1.9,0.3-3.8,0.7-5.7
		c0.3-1.1,0.7-2.3,1-3.4c0.1-0.6,0.5-0.7,1-0.7c1.4-0.1,2.5,0.2,3.5,1.4c-0.2,1.5,0,3.1-0.4,4.7c-0.3,1.1-0.2,2.2-0.5,3.3
		c-0.3,1.1-0.5,5-0.6,6c-0.1,1.1,0.3,3.3,1,4c0.5,0.6,1.2,0.6,2,0.3c1.3-0.6,2.3-1.5,3.2-2.6c1.1-1.3,2.1-2.6,3.1-3.8
		c1-1.2,1.9-2.6,2.9-3.7c0.5-0.6,0.7-1.4,1.5-2C247.7,95,247.5,96,247.5,96.4z M232.3,103L232.3,103C232.3,103,232.3,103,232.3,103
		c-0.1-0.2-0.3-0.4-0.3-0.6s-0.1-0.4-0.1-0.7h0.1c0-0.1,0-0.1,0-0.1c0.4-0.2,0.6-0.5,0.4-1c-0.1-0.3-0.1-0.6-0.2-0.9
		c0.1-0.8,0.5-1.6,0-2.4c-0.1,0.7-0.3,1.3-0.4,1.9c0,0.1,0.3,0.3,0.4,0.5c-0.3,0.6-0.3,1.2-0.2,1.8c-0.1,0-0.1,0-0.1,0v0.1
		c-0.4,0.2-0.4,0.5-0.3,0.9C231.6,103.1,232,103.1,232.3,103c-0.6,0.9-0.6,0.9,0,1.8C232.4,104.2,232.6,103.6,232.3,103z
		 M231.5,83.1c0.1-0.5,0.6-0.9,0.3-1.6c-0.1-0.4,0.2-1,0.2-1.5c0-0.5-0.1-1.1-0.2-1.7c1.6-0.5,3.1-0.4,4.6,0.4
		c0.1,0.2,0.3,0.6,0.2,0.9c-0.3,0.9-0.1,1.8-0.3,2.6c-0.3,1.3-0.8,2.5-2.2,3c-0.4,0.1-0.8,0.4-1.3,0.7C232,86.2,231.9,84,231.5,83.1
		z M233.2,92.8c0.1,0.5,0.1,0.9,0.2,1.4c0.1-0.4,0.2-0.7,0.2-1.1c0-0.1-0.1-0.3-0.2-0.4C233.3,92.8,233.2,92.8,233.2,92.8z"/>
	<path class="st1" d="M273.3,96.7c-0.3,0.4-0.9,1.7-1.3,2.1c-1.6,1.6-1,2.6-2.4,4.2c-0.6,0.7-1.6,2.6-2.2,3.3
		c-0.3,0.4-0.9,1.3-1.1,1.7c-0.5,1-1,1.3-1.8,1.6c-1,0.2-0.8,0.5-1.8,0.6c-1,0.1-1.7-0.2-2.5-0.9c-1.7-1.3-2.8-2.7-4.1-4.4
		c-0.3-0.4-0.7-0.9-1.2-1.1c-0.8-0.5-1.2-1.3-1.6-2.1c-0.2-0.4-0.3-0.6-0.6-1c-0.9-0.9-0.9-1.9-1.8-3c-1-0.2-1.1,0.1-1.5,1.1
		c0.1,1.6-0.5,3-0.9,4.5c-0.1,0.2-0.5,1.3-0.4,1.6c-0.7,2.3-1.5,2.6-2,1.7c-0.1-0.2-0.3-0.4-0.3-0.6c-0.1-1.4-0.3-2.8,0.1-4.3
		c0.3-1.5,0.5-3.1,0.6-4.6c0-0.6,0.4-1.2,0.1-1.8c-0.1-0.2,0.1-0.6,0.2-0.6c0.6-0.6,0.1-1.1,0.4-1.8c0.1-0.1,0-0.4,0-0.5
		c-0.1-1.5,0-1.8,0.2-2.6c0.1-0.4,0.1-0.7,0-1.1c0-1.1,0-2.3,0.7-3.3c0.1-0.2,0.2-0.6,0.1-0.9c-0.3-0.9,0.3-2.3,0.4-4
		c0.1-1,0.2-1.9,0.3-2.9c0.1-1.1,0.7-3.9,1.2-6.6c0.1-0.1,0.1-0.4,0.1-0.5c0.3-2,0.6-4,0.8-6c0.1-0.9,0.3-1.4,0.7-2.5
		c0,0,0.7-1.2,1.8-1.8c0.8-0.5,1.6-1,2.4-1.3c1.4-0.5,2.7-0.3,4.1,0.3c0.4,0.1,0.5,0.6,0.8,0.9c1,0.7,0.8,1.8,0.8,1.8
		c-0.2,0.8-0.4,1.4-0.5,2.1c-0.4,2-0.8,4-2,5.6c-0.1,0.1-0.2,0.3-0.3,0.5c0,0-0.6,2-1,2.7c-0.3,0.7-1.2,1.8-1.2,1.8
		c-0.5,1.1-1.2,2.1-1.5,3.3c0,0.1-0.1,0.4-0.2,0.5c-0.9,0.8-0.9,1.8-1.1,2.9c-0.3,1.3-0.8,2.5-1.3,3.7c-0.5,1.3-0.6,2.8-0.7,4.3
		c0.8-0.4,1.2-0.9,1.5-1.4c0.8-1.5,2.2-2.1,3.7-2.6c0.8-0.3,1.5-0.4,2.2-0.6c1.3,0.5,0.8,1.6,0.9,2.3c-0.6,0.9-1.2,1.7-1.7,2.4
		c-0.7,0.9-1.6,1.8-2.4,2.7c-1,1-2.1,1.8-3,3c1.2,1.5,0.8,3.3,2,4.8c1.6,1.8,2.9,3.6,4.6,5.2c1,0.9,1.4,1.6,2.3,2.5
		c1.1,1.1,1.2-0.1,2.5-0.9c2-1.2,1.6-1.9,2.8-3.3c0.7-0.9,1.4-2.5,2-3.3c0.3-0.5,0.7-1,1.1-1.4c0.8-0.9,2-2.4,2.7-3.3
		C273.8,94.7,274,95.2,273.3,96.7z M247.8,87.7c0.1,0.1,0.1,0.1,0.1,0.1c0.1,0,0.1,0,0.1,0c0-0.1,0-0.1-0.1-0.1
		C248,87.7,247.9,87.7,247.8,87.7z M248.4,102.5c-0.1,0-0.2,0-0.3,0c-0.1,0.1-0.1,0.2-0.1,0.3c0.1,0.1,0.2,0.1,0.3,0.1
		C248.3,102.8,248.4,102.7,248.4,102.5z M249.7,79.3c-0.1-0.1-0.1-0.1-0.1-0.2c-0.1,0-0.1,0.1-0.1,0.1c0.1,0.1,0.1,0.2,0.1,0.3
		C249.7,79.5,249.7,79.4,249.7,79.3z M250.1,78.3c0.7-2.8,0.5-4.6,1.3-7.4c0.1-0.1,0.5-1.7,0.4-1.8c0-0.1,0.1-0.8,0-0.9
		c-0.2-0.9-0.5,1.3-0.6,2c-0.1,0.8-0.2,2-0.5,2.8c-0.4,1.3-0.3,2.6-0.5,4C250.2,77,249.9,78.1,250.1,78.3z M250.5,82.3
		c0,0,0-0.1-0.1-0.1c0,0.1-0.1,0.1-0.1,0.1c0,0.1,0,0.1,0,0.1C250.4,82.3,250.5,82.3,250.5,82.3z M252,67.4c0.5-1.3,0.2-0.9,0.4-2
		C252,66,251.8,66.9,252,67.4z M253.7,92c0.5-0.9,1.4-1.3,2-2.1c0.5-0.7,0.8-1.6,1-2.7c-0.5,0.3-0.8,0.4-1.1,0.6
		c-1,1.1-1.9,2.1-2.8,3.2c-0.3,0.4-0.5,0.9-0.7,1.4c-0.1,0.2-0.1,0.4,0.1,0.5C252.7,92.7,253.4,92.5,253.7,92z M253.7,62.1
		c0.1,0.1,0.1,0,0.2,0c0.1-0.4,0.3-0.7,0.5-1c-0.1-0.1-0.2-0.1-0.3-0.1C253.9,61.3,253.8,61.7,253.7,62.1L253.7,62.1z M254.8,66.2
		c0,1.3,0.1,2.8-0.5,4c-0.1,0.1-0.1,0.4-0.1,0.5c0.3,0.6,0,1.2-0.1,1.8c0,0.2,0,0.2,0.5,1.1c0.1-0.4,0.3-0.7,0.3-1.1
		c0.8-1.7,1-3.5,1.8-5.2c0.5-1.1,0.8-2.3,0.8-3.5c0.1-0.7,0-1.4-0.5-2.1c-0.6,0-1.4-0.9-1.8,0.1c-0.1,1-0.1,1.8-0.2,2.8
		C254.9,65.2,254.8,65.7,254.8,66.2z M255.9,61c0.2,0.1,0.3,0.1,0.5,0.1c0.1,0,0.1-0.1,0.3-0.3c-0.2,0-0.4-0.1-0.5-0.1
		C256.1,60.8,256,61,255.9,61z"/>
	<path class="st1" d="M288,104c-1,1.4-2.2,2.5-3.6,3.5c-0.5,0.4-1.1,0.6-1.7,0.6c-1.6,0.3-3.3,0.6-5,0.6c-1,0-1.8-0.2-2.5-0.9
		c-0.8-0.8-1.8-1.4-2.3-2.6c-0.1-0.2-0.2-0.3-0.3-0.4c-0.1-0.3-0.3-1.8-0.5-2.4c-0.1-0.6-0.5-0.8-0.6-1.8c0-0.3-0.1-0.6-0.1-0.9
		c0.1-0.9,0.1-2.7,0.3-3.3c0.6-1.9,1.5-3.7,2.4-5.5c0.5-1,1-2,1.6-2.9c0.2-0.3,0.1-0.7,0.5-1c0.5-0.3,1.1-0.9,1.6-1
		c1.1-0.1,2.2-0.3,3.2,0.4c0.3,0.1,0.6,0.4,1,0.6c0.5-0.3,1.1-0.6,1.6-0.9c1,0.1,2,0.3,3.1,0c1.6-0.4,3,0.4,4.3,1.2
		c0.5,0.4,0.7,1.1,1,1.8c0.2,0.8,0.3,1.6,0.3,2.4c-0.1,1.8-0.2,3.5-0.3,5.2c-0.1,0.3-0.1,0.5-0.2,0.7c-0.1,0.3-0.4,0.4-0.5,0.7
		c-0.3,0.6-0.4,1.1-0.7,1.8c1,0.4,1.8,0.2,2.7,0.1c2-0.2,4-1.2,5.7-2.5c1.2-0.9,3.4-2.9,3-1.1c-0.7,1.3-1.8,2.1-3.2,3.2
		c-1.3,0.5-2.6,1.5-4,1.8c-1.7,0.5-3.4,0.9-5.1,0.9C289,102.8,288.4,103.4,288,104z M274.8,98.2c-0.2,0.9-0.1,1.5,0.1,2.1
		C275.1,99.5,275.1,99.2,274.8,98.2z M276,95.7c0-0.1-0.1-0.2-0.2-0.2c-0.1,0-0.3,0.1-0.3,0.2c0,0.4,0,0.8,0.1,1.3
		C276.2,96.6,276.2,96.2,276,95.7z M277.2,96.6c-0.1,0.4,0,0.8-0.1,1.1c-1.2,2.6-0.5,5.1,0.7,7.4c1,1.7,2.2,2,3.9,1.1
		c1.8-1,3.1-2.4,4.2-4.1c0.1-0.1,0.1-0.4,0.1-0.6c-0.5-0.3-0.9-0.6-1.4-0.9c-1.8-1-3.3-2.3-4.2-4.3c-0.7-1.3-1.2-2.6-1.2-4.2
		C278.1,93.4,277.3,94.8,277.2,96.6z M284.8,89.6c-0.3,0.4-0.5,0.9-0.8,1.3c-1.2,1.9-0.7,3.8,0.3,5.5c0.4,0.8,1.1,1.5,1.7,2.1
		c0.3,0.3,0.7,0.6,1.2,0.4c0.5-1.6,1.2-3.1,1.6-4.7c0.1-0.2,0.1-0.5,0-0.8c0-0.4-0.1-0.9-0.1-1.3c-0.1-1.8-0.7-3.3-2.7-3.7
		C285.5,88.5,285.1,89,284.8,89.6z"/>
	<path class="st1" d="M328,97.1c-0.2,0.4-0.4,1.1-0.8,1.5c-0.3,0.4-0.9,0.6-1.3,0.9c-0.5,0.4-1.1,0.9-1.7,1.1
		c-0.7,0.4-1.4,0.1-2.1,0c-1.5-0.4-2.6-0.5-3.9-1.2c-0.3-0.1-0.7-0.3-1-0.5c-0.7,1.4-0.5,1.3-1,2.6c-0.5,1.5-0.5,2-1,3.4
		c-0.6,1.5-1.4,2.9-2,4.4c-0.7,1.3-1.7,2.6-2.8,3.5c-1.4,1.2-3.1,1.6-4.7,0.8c-1.4-0.6-2.5-1.6-3.1-3.2c-0.3-0.8-0.8-1.4-1-2.3
		c-0.1-0.4-0.5-2.5-0.6-3.2c-0.2-0.8-0.4-1.6-0.1-2.4c0.1-0.2-0.1-0.6-0.2-0.8c-0.5-0.3-0.6-2.1-0.6-2.5c0-0.7,0-1.3-0.1-2.1
		c0-0.3-0.2-1.9-0.3-2.2c-0.1-0.1-0.9-3.5-0.8-4.3c0.2-0.6,0.1-1.2-0.3-1.5c-0.5-0.5-0.3-1.1-0.3-1.6c0,0-0.7-0.6-0.8-1.5
		c0-0.2,0.1-0.5,0.1-0.7c0.1-1.2,0.5-1.8,1.6-2c1.8-0.1,2.9,0.5,4.1,1.9c0.7,0.8,0.7,1.3,0.7,1.3c-0.2,0.7,0,1.2,0.1,1.7
		c0.1,0.3,0.2,2,0.4,2.5c0.2,0.8,0.8,1.6,0.1,2.5c-0.1,0.1-0.1,0.3,0,0.4c0.3,0.4,0.3,0.9,0.3,1.4c0.1,0.4,0,2.1,0.2,2.6
		c0.3,0.6,0.5,1.4,0.5,2.1c-0.2,1,0.4,1.5,0.5,2.3c0,0.4-0.1,0.8-0.1,1.1c-0.1,0.4-0.2,0.9,0.2,1.1c0.1,0.1,0.1,0.5,0.1,0.7
		c0.1,0.5,0.1,0.9,0.2,1.3c0.6,1.4,0.9,4.8,2.1,4.5c1.4-0.4,2-1.6,2.7-2.7c0.3-0.8,0.7-1.5,1.2-2.3c0.3-0.6,0.6-1.1,0.9-1.7
		c0.6-1.4,0.7-1.9,1.4-3.3c0.6-1.5,0.5-1.6,1.3-3c0.2-0.4,0.2-0.9-0.1-1.3c-0.2-0.3-0.4-0.6-0.5-0.9c-0.7-1.1-0.1-4.8,0-6.3
		c0.1-0.9-0.1-1.8-0.2-2.7c0,0-0.1-0.2,0.1-0.5c0.6-1.2,1-2.3,1.4-3.5c0.1-0.3,0.1-0.6,0.2-0.8c1.2-1.6,2.2-3.3,4.3-4
		c0.5-0.1,1.3,0.1,1.4,0.7c0.1,0.5,0.3,1.1,0.2,1.6c-0.3,1.6-0.4,3.1-1,4.7c-0.1,2.3-2.2,6.7-2.9,8.9c-0.3,1.1-0.3,2,0.5,2.7
		c0.4,0.4,0.8,0.7,1.1,1.1c0.5,0.5,1.6,0.8,2.2,1.1c0.6,0.3,1.8-0.2,2.7-1c0.3-0.2,0.9-0.6,1.2-0.9c0.9-1,2-3.3,1.9-1.2
		C328.3,96.2,328.3,96.4,328,97.1z M307.6,111.7c-0.3-0.6-1.2-1.2-1.4-1.7c-0.5-1-0.8-2.3-1-3.4c-0.1-0.9-0.6-1.5-0.7-2.4
		c-0.2-1.5-0.2-3-0.6-4.5c0.3-0.6,0.1-1.1-0.2-1.6c-0.1-0.1-0.3-0.9-0.3-0.9c-0.4-0.2,0.1,2.3,0.1,3.1c0,1.8,0.3,3.5,0.6,5.2
		c0.3,1.7,0.3,2,1.1,3.5C305.4,109.6,307.5,112.5,307.6,111.7z M318.4,91.1c0.4-0.8,1.3-3.5,1.2-4.3c0,0,0.3-1,0.3-1.1
		c0.7-1.6,1-2.4,1-4.3c0-0.5-0.1-1-0.3-1c-0.9-0.2-1.3,0.1-1.4,1c-0.2,1.1-0.3,2.3-0.3,3.5c-0.1,0.3-0.3,2.2-0.3,2.3
		c-0.1,0.7-0.5,3-0.5,3.8C318.1,91.3,318,91.8,318.4,91.1z"/>
	<path class="st1" d="M345.8,96.4c-0.1,1.2-1,2.1-1.5,3.2c-0.1,0.4-0.3,0.6-0.6,0.9c-1.2,1.5-2,3.3-3.6,4.3c-0.6,0.4-1.1,1-1.5,1.6
		c-1.9,2.7-4.5,3.5-7.4,3.2c-1.8-0.3-2.7-1.7-3.8-3c-0.1-0.1-1-3.4-1-3.5c0-1.6,0.1-3.9,0.3-5.5c0.3-1.9,0.3-3.8,0.7-5.7
		c0.3-1.1,0.7-2.3,1-3.4c0.1-0.6,0.5-0.7,1-0.7c1.4-0.1,2.5,0.2,3.5,1.4c-0.2,1.5,0,3.1-0.4,4.7c-0.3,1.1-0.2,2.2-0.5,3.3
		c-0.3,1.1-0.5,5-0.6,6c-0.1,1.1,0.3,3.3,1,4c0.5,0.6,1.2,0.6,2,0.3c1.3-0.6,2.3-1.5,3.2-2.6c1.1-1.3,2.1-2.6,3.1-3.8
		c1-1.2,1.9-2.6,2.9-3.7c0.5-0.6,0.7-1.4,1.5-2C345.9,95,345.8,96,345.8,96.4z M330.5,103L330.5,103C330.5,103,330.5,103,330.5,103
		c-0.1-0.2-0.3-0.4-0.3-0.6c-0.1-0.2-0.1-0.4-0.1-0.7h0.1c0-0.1,0-0.1,0-0.1c0.4-0.2,0.6-0.5,0.4-1c-0.1-0.3-0.1-0.6-0.2-0.9
		c0.1-0.8,0.5-1.6,0-2.4c-0.1,0.7-0.3,1.3-0.4,1.9c0,0.1,0.3,0.3,0.4,0.5c-0.3,0.6-0.3,1.2-0.2,1.8c-0.1,0-0.1,0-0.1,0v0.1
		c-0.4,0.2-0.4,0.5-0.3,0.9C329.8,103.1,330.2,103.1,330.5,103c-0.6,0.9-0.6,0.9,0,1.8C330.6,104.2,330.8,103.6,330.5,103z
		 M329.7,83.1c0.1-0.5,0.6-0.9,0.3-1.6c-0.1-0.4,0.2-1,0.2-1.5c0-0.5-0.1-1.1-0.2-1.7c1.6-0.5,3.1-0.4,4.6,0.4
		c0.1,0.2,0.3,0.6,0.2,0.9c-0.3,0.9-0.1,1.8-0.3,2.6c-0.3,1.3-0.8,2.5-2.2,3c-0.4,0.1-0.8,0.4-1.3,0.7
		C330.2,86.2,330.1,84,329.7,83.1z M331.4,92.8c0.1,0.5,0.1,0.9,0.2,1.4c0.1-0.4,0.2-0.7,0.2-1.1c0-0.1-0.1-0.3-0.2-0.4
		C331.5,92.8,331.5,92.8,331.4,92.8z"/>
	<path class="st1" d="M355.2,70.5c1.4-0.6,2.9-0.5,4.3-0.6c1.8-0.2,3.7-0.1,5.7,0.1c1.2,0.1,2.2,0.2,3.3-0.1c0.1,0,0.3,0.1,0.7,0.1
		c-0.1,0.3-0.1,0.6-0.2,0.8s-0.3,0.4-0.6,0.6c-0.3,0.1-0.5,0.4-0.9,0.5c-0.7,0.1-1.3,0.4-2,0.7c-0.3,0.2-0.8,0.1-1.2,0.1
		c-1.2,0-2.5,0.1-3.7,0.1c-0.5,0.1-1,0.1-1.4,0.2c-1.4,0.6-2.9,0.7-4.4,1c-1,0.2-1.6,0.9-1.9,1.7c-0.1,0.4-0.1,0.8-0.3,1.2
		c-0.3,1.2-1.5,8.1-1.8,9.4c-0.3,1.4-0.6,2.9-1,4.3c-0.1,0.2-0.1,0.6-0.3,0.7c-0.7,0.8-1.4,5.5-1.6,7.1c-0.2,2.3-0.2,4.7-0.2,7.1
		c0.1,1.4,0.4,2.8,0.7,4.3c0.1,0.5,0.4,0.9,0.7,1.3c1,1.3,1.8,1.4,2.7,0.4c1-1.1,1.9-2.3,2.7-3.5c0.7-1.3,1.8-2.3,2-3.8
		c0.1-0.1,0.2-0.3,0.3-0.4c2-2.1,2.1-2.8,3.5-5.3c0.4-0.8,0.8-1.6,1.2-2.3c0.2-0.4,0.6-0.7,1.2-0.7c0.3,0,0.4,0.4,0.4,0.6
		c-0.1,0.7-0.2,1.1-0.6,2.2c-0.3,0.7-0.4,1.3-0.8,1.9c-0.5,0.9-0.9,1.9-1.4,2.8c-1.1,1.6-0.8,1.3-2.2,2.8c-0.9,1-1.7,2.1-2.2,3.3
		c-0.6,1.3-1.4,2.5-2.4,3.3c-0.9,0.7-1.7,1.4-2.9,1.7c-0.8,0.2-1.8,0.2-2.5-0.2c-0.7-0.4-1.7-0.6-2-1.6c-1-0.9-1.2-2.1-1.8-3.1
		c-0.1-0.1-0.1-0.2-0.1-0.4c0.2-1.3-0.2-2.6-0.5-3.8c-0.1-0.4,0-0.6,0-0.9c0.1-2.5,0.3-5,0.3-7.4c0.1-1.2,0.2-2.4,0.4-3.5
		c0.3-1.6,0.8-3.3,0.8-5c-0.1-1.1,0.6-3.8,0.7-4.1c0.1-0.2-0.2-0.7-0.1-1c0.4-1.2,0-6.1,1-7.1c-0.5,0.1-0.9,0.3-1.4,0.4
		c-1.3,0.5-2.8,0.4-4.1,0.9c-0.3,0.1-0.6,0.2-1,0.4c-0.3,0.1-0.7,0.2-1.2,0.1c-0.5-0.1-1.2-0.1-1.7-0.1c-0.5-0.1-1-0.4-1.4-0.7
		c-0.4-1.1,1.9-1.7,3.1-2.1c2-0.6,4-1.1,6-1.6c0.6-0.1,1.1-0.4,1.4-0.9c0.1-0.1,1-0.7,1.2-1.3c0.3-0.6,0.4-1.4,0.5-2.1
		c0.3-0.9,0.5-1.9,0.4-3.1c-0.1-0.5,0.2-1.1,0.3-1.6c0-0.1,0.1-0.5-0.1-0.6c-0.1-0.2-0.2-1.3-0.3-2c-0.1-0.6,0.1-2.4,2.9-2.7
		c2.8-0.3,3.7,0.8,4.2,1.3c0.2,0.1,0.5,0.4,0.7,0.5c0.6,0.4,1,1,0.9,1.6c-0.1,0.9,0.2,2-0.3,2.9c-0.1,0.2-0.8,2.8-0.9,3.2
		C355.7,69.6,355.3,70,355.2,70.5z M345.3,99.3c-0.3,0.9-0.7,1.5,0,2.5C346,101.1,345.6,100.3,345.3,99.3z M345.3,103
		c-0.1,0-0.1,0-0.1,0l-0.1,0.1C345.1,103.1,345.2,103.1,345.3,103z M345.8,96c0.1-0.4,0.1-0.5,0.1-0.7s0-0.5-0.3-0.5
		c-0.1,0-0.3,0.1-0.3,0.1c-0.1,0.1-0.1,0.4-0.1,0.6C345.2,95.7,345.4,95.7,345.8,96z M345.7,96.9c-0.1,0.2-0.9,0.4-0.2,0.9
		C345.5,97.4,345.6,97.1,345.7,96.9z M346.2,87.4c-0.7,0.4-0.7,0.4-0.3,1.1C346.1,88.1,346.2,87.8,346.2,87.4z M346.1,91
		c0,0-0.1-0.1-0.1-0.1c0,0.1-0.1,0.2-0.1,0.3l0.1,0.1C346,91.2,346.1,91.1,346.1,91z M346.7,97.1c-0.2,1.1-0.7,2,0.3,3.4
		C346.8,99.3,347.1,98.4,346.7,97.1z M347.2,85.4c-0.6,0.2-0.6,0.2-0.7,1.6c0.1,0,0.3,0.1,0.3,0C347.2,86.5,347.2,86,347.2,85.4z
		 M346.8,87.8c-0.1-0.1-0.1-0.2-0.2-0.3l-0.1,0.1C346.6,87.7,346.7,87.8,346.8,87.8L346.8,87.8z M346.8,103.2
		c-0.1-0.1-0.1-0.1-0.1-0.2c-0.1,0-0.1,0.1-0.1,0.1c0,0.1,0,0.2,0.1,0.3C346.6,103.3,346.7,103.2,346.8,103.2z M346.7,105.3
		c0-0.1,0-0.2-0.1-0.3h-0.1C346.6,105.1,346.6,105.2,346.7,105.3L346.7,105.3z M347,107h-0.1l0.1,0.2L347,107z M347.8,76.1
		c-0.5,2.4-1.2,8-0.6,7.2C347.1,82.2,348.5,74.6,347.8,76.1z M354.2,63c0-0.6-0.3-0.6-0.8-1.4c-0.5-0.4-1,1.3-0.9,2.3
		c0.1,1.3,0,2.6-0.5,3.7c-0.2,0.4-0.3,1.1-0.4,1.6c-0.1,0.6,0.4,1.1,0.4,1.8c0.6-0.5,0.7-1.1,1-1.7c0.2-0.5,0.7-1.6,0.7-2.1
		C353.7,67.6,354.3,62,354.2,63z"/>
	<path class="st1" d="M389.2,96.9c-0.4,0.4-0.7,1.2-1.1,1.5c-1.7,1.3-2.2,2.3-3.8,3.8c-0.7,0.8-2.5,1.5-3.3,2.1
		c-0.7,0.5-1.4,1-2.1,1.4c-1.1,0.6-2.6,0.9-3.6,1.8c-2.6,0.9-5.2,1.6-7.8,1.3c-0.2,0-0.4-0.1-0.6-0.1c-1-0.4-1.9-0.7-2.9-1.1
		c-1.6-0.4-1.5-2.1-2.2-3c-0.7-0.7-1-1.7-0.9-2.8c0.1-1.4,0.2-2.8,0.3-4.2c0-0.3,0.1-0.6,0.2-0.9c1.4-3.4,3.1-6.6,5.2-9.6
		c1-1.4,2.2-2.8,3.7-3.8c0.5-0.4,1-0.6,1.2-1.3c1.6-0.6,2.9-0.7,4.4-0.6c1.6,0.1,2.9,0.6,4.2,1.5c0.3,0.3,0.6,0.6,0.5,1.1
		c0,0.4,0,0.6,0,0.9c-0.1,0.7-0.2,1.4-0.3,2.2c-0.3,0.5-0.8,1.1-1.2,1.8c-0.1,0.1-0.2,0.4-0.3,0.4c-1.1,0.7-2.1,1.3-3.1,2.1
		c-0.1,0.1-0.2,0-0.4,0c-0.4-1-0.2-2.1-0.1-3.3c0.1-1.4,0.1-2.8-0.6-4.1c-0.6,0.7-1.3,1.2-1.8,1.9c-2,2.6-4,5.2-5.4,8.2
		c-0.3,0.8-0.7,1.6-0.7,2.4c0,0.1,0,0.4-0.1,0.5c-1,1.8-0.6,3.5-0.6,5.2c0,1.5,0.7,2.7,1.4,3.8c0.4,0.9,1.2,1,2.1,1.1
		c1.7,0.1,3.4-0.3,5-1.1c1.7-0.9,3.6-1.8,5.3-2.8c1.5-0.9,2.9-1.8,4.2-2.8c0.9-0.6,1.8-1.8,2.8-2.6c0.7-0.6,1.2-1.5,1.8-2
		c0.1,0.1,0.2-0.4,0.6-0.3C389.2,95.8,389.6,96.1,389.2,96.9z M364.9,98.6c0.1-0.6,0.4-1.3-0.3-2.1
		C364.1,97.5,364.2,98.1,364.9,98.6C364.9,98.6,364.9,98.6,364.9,98.6c-0.5,0.4-0.5,0.7-0.3,1.2C365.2,99.3,364.8,99,364.9,98.6
		C365,98.6,365,98.6,364.9,98.6C365,98.6,365,98.6,364.9,98.6z M364.8,96.1c1.7-2.4,2.7-4.9,4.4-7.2c0.1-0.1,0.1-0.4,0.1-0.5
		c0.1-0.1-0.1-0.3-0.1-0.5c-1,0.5-1.2,1.3-1.6,1.9c-0.4,0.7-0.7,1.4-1.2,2.1c-0.9,1.1-1.2,2.3-1.8,3.5
		C364.5,95.6,364.7,95.8,364.8,96.1z M369.7,87.4c1-1.1,1-1.1,1.2-1.8C369.6,86.8,369.6,86.8,369.7,87.4z M372,84.3c0,0,0.1,0,0.2,0
		c0.2-0.3,0.5-0.5,0.7-0.8c-0.1-0.1-0.2-0.1-0.3-0.1c-0.3,0.2-0.5,0.5-0.7,0.8C372,84.2,372,84.3,372,84.3z"/>
	<path class="st1" d="M420.3,96.1c-0.1,1.3-3,6.5-3.7,7.3c-2,2.4-3.8,4.9-5.6,7.4c-0.4,0.6-1.1,1.1-1.8,1.6
		c-1.6,1.1-3.3,1.8-5.3,1.6c-1.4-0.1-2.5-0.9-3.3-2.1c-0.5-0.8-0.7-1.8-1-2.6c-0.1-0.1-0.1-0.1-0.1-0.2c-0.1-1-0.6-1.8-0.4-2.9
		c0.1-1,0.1-2,0.1-3c0-0.3,0.1-0.6,0-0.9c-0.1-0.8-0.1-1.6,0.4-2.3c0.2-0.3,0.2-0.7,0.3-1.1c0.3-1.1,0.8-2.3,1-3.4
		c0.2-0.8,0.4-1.6,0.5-2.4c0-0.7-0.2-1.5-0.1-2.3c0.2-0.8-0.3-1.4-0.5-2.1c-0.3-1.6-1.4-2.6-2.9-2.8c-0.4,0-1,0-1.2,0.2
		c-1,0.9-2.3,1.5-3,2.8c-0.6,1.1-1.2,2.3-1.6,3.5c-0.4,1.3-0.4,4.9-0.6,6.3c0,0.2-0.1,1-0.1,1.2c0,0.5,0.1,1,0.1,1.5
		c-0.1,0.6-0.1,1.4-0.2,2c-0.2,1.6-1.8,2.8-2.5,0.6c-1-1.1-1-2.5-1-4c0.1-0.8,0.1-2-0.3-2.7c-0.4-0.9-0.1-3.8-0.2-4.7
		c-0.1-0.3,0.1-0.6,0-0.9c-0.5-1.5,0-2.8,0.5-4.2c0.2-0.6,0.3-1,0.2-1.6c-0.2-0.8-0.1-1.6,0-2.4c0.3-2,0.7-4,1.1-6.1
		c0,0-0.2-0.2,0-0.8c0.7-1.1,0.8-2.4,1.2-3.6c0.4-1.8,0.9-3.6,1.3-5.5c0.3-1.2,1-2.3,1.6-3.5c0,0,0.7-1.3,1.4-1.7
		c1.1,0.1,1.2-0.4,2-1.1c0.8-0.7,1.8-0.9,2.9-0.9c0.5-0.1,0.9,0,1.2,0c1,0.6,1.6,1.6,1.9,2.8c0,0,0.1,0.4,0,0.8
		c-0.1,0.2-0.3,0.4-0.3,0.6c-0.1,1.1-0.7,2-1.4,2.8c-0.2,0.1-0.3,0.4-0.4,0.6c-1.8,2.3-2.7,5-4,7.4c-0.2,0.4-0.3,0.8-0.7,1.4
		c-0.2,1.1-1.7,2.5-1.7,2.5c-0.5,1.6-1.6,3.1-2,4.8c-0.2,0.6-0.3,1.1,0,1.6c0.4,0.2,0.6-0.1,0.8-0.2c0.4-0.2,0.7-0.5,1.1-0.7
		c1.1-0.8,2.2-1.3,3.6-1.2c1,0.1,2.1-0.1,3.2,0.4c2,0.9,4,1.8,5,4c0.5,0.9,0.6,1.2,1.2,2.1c0.1,0.5,0.1,1.5,0.3,2.1
		c0,0.8-0.7,2.7-0.9,3c-0.3,0.5-0.7,3-1.2,3.8c-0.2,0.4-0.4,0.9-0.3,1.2c0.1,0.4-0.3,1.1-0.5,1.3c-0.5,0.7-0.3,2.1-0.7,2.9
		c-0.3,0.6-0.5,1.1-0.2,1.8c0.1,0.1-0.1,0.4-0.1,0.6c-0.2,1.2-0.3,2.4,0.3,3.5c0.6,0.9,1.5,1.3,2.5,1.1c1-0.4,1.8-0.7,2.6-1.4
		c0.5-0.4,1-0.9,1.4-1.3c1.2-1.4,3.2-3.8,5-6.5c1.1-1.6,2.3-4.2,3.1-5.1c0.2-0.2,0.3-0.6,0.5-0.9C420.1,94.3,420.3,95.6,420.3,96.1z
		 M390.8,82.5c0.1-0.6,0.6-1.2,0.1-2C390.2,81.3,390.2,82,390.8,82.5C390.8,82.6,390.8,82.6,390.8,82.5c-0.6,0.3-0.6,0.6-0.6,1.1
		C391,83.4,390.7,83,390.8,82.5C390.8,82.6,390.8,82.6,390.8,82.5C390.8,82.6,390.8,82.6,390.8,82.5z M393.1,71.5
		c0.1-0.1,0.1-0.4,0.1-0.5c-0.1-0.1-0.1-0.3-0.3-0.4c-0.7,0.8-0.7,1.6-0.9,2.3c-0.2,0.8-0.3,1.6-0.5,2.3c-0.5,1.3-0.5,2.6-0.8,3.9
		c0,0.1,0.2,0.4,0.4,0.6C392,76.9,392.2,74.2,393.1,71.5z M393.2,69.8c0.7-1.3,0.6-1.3,0.6-2.1C392.9,69.3,392.9,69.3,393.2,69.8z
		 M393.8,73.5c0.1,0.1,0.1,0.1,0.1,0.1c0.1,0,0.1-0.1,0.3-0.1c-0.1,0-0.1-0.1-0.1-0.1C394,73.5,394,73.5,393.8,73.5z M394.2,64.7
		c0.1,0.1,0.1,0,0.2-0.1c0.1-0.3,0.3-0.6,0.5-0.9c-0.1-0.1-0.2-0.1-0.3-0.1C394.4,63.9,394.3,64.3,394.2,64.7
		C394.2,64.7,394.2,64.7,394.2,64.7z M394.9,71.2c0.1,0.4-0.8,2.6-0.1,2.1c0.3-0.3,2.3-2.8,2.4-3c0.4-0.9,1.1-1.6,1.7-2.4
		c0.9-1.2,1.4-2.5,1.2-4c-0.1-0.4,0-0.2-0.3-0.7c-0.6-1-0.7-1-1.8,0C396.6,64.7,394.9,69.7,394.9,71.2z M403.8,111.3
		c-0.5-0.6-0.8-1.1-1.2-1.7v-0.1c0-0.1,0-0.1,0-0.1c0.1-0.5,0-0.9-0.1-1.4c-0.3-1.5-0.6-3-0.1-4.6c0.1-0.4,0.1-0.8,0.1-1.1
		c0.1-0.4,0.2-0.9,0.2-1.3c0.1-0.4,0.5-0.6,0.1-1.1c-0.3,0.4-0.6,0.7-0.8,1.1c-0.9,2.4-0.8,4.8-0.2,7.2c0.1,0.4,0.5,0.8,0.7,1.2
		l-0.1,0.1c0.1,0,0.1,0.1,0.1,0.1C402.8,110.3,402.7,111,403.8,111.3z M405,94.7c0,0.1,0,0.4,0.1,0.5c0.1-0.1,0.1-0.1,0.2-0.1
		c0-0.1,0-0.3,0-0.4C405.2,94.7,405,94.7,405,94.7z M405.8,94c0.1-0.2,0.2-0.3,0.3-0.5c0.1-0.1,0.1-0.3,0.1-0.5
		C405.8,93.3,405.4,93.5,405.8,94z"/>
</g>
</svg>
