<?xml version="1.0" encoding="utf-8"?>
<!-- Generator: Adobe Illustrator 21.0.0, SVG Export Plug-In . SVG Version: 6.00 Build 0)  -->
<svg version="1.1" id="Layer_1" xmlns="http://www.w3.org/2000/svg" xmlns:xlink="http://www.w3.org/1999/xlink" x="0px" y="0px"
	 viewBox="0 0 375 136.5" style="enable-background:new 0 0 375 136.5;" xml:space="preserve">
<style type="text/css">
	.st0{enable-background:new    ;}
	.st1{fill:#FA3839;}
</style>
<g class="st0">
	<path class="st1" d="M67.9,75.5c-1.2,1.5-3.7,3.2-5.1,3.8c-3,1.5-5.9,2.5-8.1,3.3c-5.5,2-4.9,0.3-8.5,1.5c-1.7,0.6-2.8,1.7-3.9,3.3
		c-2.7,4.2-3.6,4.8-7.3,8.1c-1.8,1.7-4.1,2.8-6.4,3.3c-0.9,0.3-1.7,0.5-2.6,0.6c-2.1-0.6-4.2-1.4-6.2-2c-0.5-0.3-0.7-0.8-1.1-1.3
		c-0.1,1.5-0.2,4.2-0.6,4.8c-0.5,0.8-0.2,2,0.1,2.5c-0.6,2.3-1,8.9-1.7,11.1c-0.4,1.3-0.5,5.5-0.4,6.7c0.4,2.4-0.5,7.9-2.3,9.3
		c-0.4,0.3-0.6,0.5-0.9,0.9c-1.2-0.1-1.7-1-2.2-1.9c-1.2-2.2-1.7-8.3-2.2-10.6c-0.1-0.5,0-3.9,0.2-4.6c1-4.1,0.9-12.3,0.6-16.3
		c-0.1-1.8,0.5-3.7-0.5-5.3c-0.1-0.1-0.1-0.5,0-0.6c0.9-3.8,0.4-7.6,0.2-11.4c-0.1-1.5,0.4-3.2-0.5-4.7c-0.2-0.5-0.4-0.9-1-1.4
		c-0.5-1-0.5-1.9-0.7-3.2C7,70.7,6.5,69.9,6.4,69c-0.1-1.4-0.4-2.7-1.6-3.6c-0.4-0.3-0.6-0.9-1-1.5c-0.6-1.3,2.3-2,3.9-2.3
		c1.1-0.1,3.3,1.4,4.6,1.5c0.4,0,0.9,0.3,1.1,0.6c0.5,0.6,0.6,1.8,1.2,2.3c0.6,0.5,1.5,0.6,1.5,1.8c0,1.1,0.7,1.7,1.1,3.4
		c0.6,2.3,0.1,5.1,0.6,5.2c0,0.6,0.1,1.3,0.2,1.9c0.1-0.1,0.4-0.1,0.5-0.1c0.1-0.3,0.1-0.5,0.2-0.6c0.6-3.1,1.2-6,2.6-8.8
		c1.2-2.7,2.6-5.5,3.6-8.3c0.7-1.8,3.4-6.2,3.8-6.5c0.7-0.6,1.4-1.3,2-1.9c2.7-3.1,6-4.3,10-4.3c2.5,0,4.8-0.1,7,1.3
		c1.1,0.6,2.2,1.4,3,2.7c0.5,0.9,1.2,1.8,2.1,2.8c-0.1,0.9-0.4,2-0.2,3.1c0.2,3.3-0.5,6.5-0.6,9.7c-0.1,1.9-1,3.7-1.5,5.5
		c-0.4,1.3-3.3,5.9-3.2,7.5c0.6-0.1,3.3,0.6,3.8,0.5c4.2-0.1,2.8-0.6,6.9-1.7c1.1-0.3,3-1.7,4.3-2.3l1.4-1.3
		c2.2-1.1,3.2-3.6,4.6-4.7C70.8,68.6,69.8,73.5,67.9,75.5z M44.8,66.6c0.2-0.5,0.4-1.1,0.2-1.7c-0.7-2.5-0.7-5.1-0.5-7.8
		c0.1-1.8-2.1-2.2-2.1-3.9c0-0.4-0.5-0.8-0.9-1c-0.4-0.1-0.9-0.3-1.2-0.3c-0.9,0-1.6,0-2.3,0c-1.6,0.1-3,0.6-3.9,2.2
		c-0.2,0.5-0.9,0.9-1.5,1.1c-1.2,0.6-2,1.7-2.7,2.8c-3.4,5.3-5.4,11.3-7.4,17.3c-0.7,2-1.2,4.1-1.7,6.2c-1,3.8-2,7.6-1.6,11.7
		c0.4,0,0.6,0.1,0.6,0c3.3-4.3,7.6-7.4,12.6-9.5c1.8-0.9,3.8-1.8,5.8-2.5c1.6-0.6,2.3-2.2,3.1-3.7c-0.6-1.4,0.9-2.3,0.9-3.4
		c0-1.4,0.6-2.3,1.1-3.4C43.8,69.4,44.3,68,44.8,66.6z M36.2,85.8c-4.9,0.8-10.6,4.8-12.7,9c1.4,1,2,1.3,3.2,0.6
		c1.6-0.8,3.4-1.4,4.2-3.4c0.2-0.5,0.7-0.8,1.1-1.1c0.6-0.6,1.2-1,1.6-1.7C34.6,88.1,35.3,86.9,36.2,85.8z M38.7,83.9
		c-0.2,0.4-0.5,0.5-0.6,0.8c-0.1,0.3-0.1,0.6-0.2,0.9C38.4,85.2,39.2,84.9,38.7,83.9z M40.2,82c-0.1,0-0.2,0.1-0.5,0.1
		c0,0.3,0,0.5,0,0.6c0.1,0,0.5,0,0.5,0C40.2,82.5,40.2,82.2,40.2,82z M46.3,72.2c2.1-4.1,2.3-8.5,1.7-12.8c-0.1-0.9-0.7-1.5-1.1-2.3
		c0-0.1,0-0.1,0-0.1c0-0.1,0-0.1-0.1-0.3c0.1-1.1,0.2-2.5-1.7-3.2c0.7,1.3,1.2,2.3,1.7,3.2c0,0.1,0,0.1,0,0.3c0,0,0.1,0,0.1,0.1
		c-0.5,0.8-0.2,1.7-0.1,2.4c0.2,2.9,0.5,5.7-0.6,8.4c-0.2,0.6-0.2,1.3-0.5,1.9c-0.1,0.8-0.4,1.5-0.6,2.3c0,0.6-0.9,1-0.2,1.9
		C45.3,73.3,46.1,72.8,46.3,72.2z"/>
	<path class="st1" d="M122.6,75.2c-0.6,1-1.4,1.9-2,2.9c-3.2,6.1-8.4,9.7-13.7,13c-0.1,0.1-0.4,0.1-0.5,0.4
		c-1.6,1.8-3.7,1.9-5.8,1.8c-1.4,0-2.7,0.1-3.9,0.1c-1.8,0-3.6-0.3-5.2-1.3c-1-0.6-2-1.7-3-2.2c-1.6-0.6-0.9-1.8-1.6-2.8
		c-0.7-0.9-0.5-2.4-0.7-3.7c-0.1-0.4-0.4-1.9-0.6-1.9c-0.1-0.1-0.2-0.4-0.2-0.6c0.1-1,0.1-2.3,0.5-3.2c0.9-2.2,1.5-10,1.7-12.3
		c0.1-1,0.2-1.9,0.7-2.7c0.5-0.8,0.7-1.5,0.7-2.4c0-0.6,0.4-1.4,0.6-2c0.4-0.8,0.7-1.3,0.9-2c0.9-3.4,2.6-6.2,4.1-9.3
		c0.5-1.1,1-2.4,1.2-3.9c-0.6,0-1,0-1.4,0.1c-2.1,0.6-4.2,1.1-6.3,2c-1.7,0.6-3.3,1.4-4.9,2.3c-1.1,0.6-3.4,6.1-3.7,7.1
		c-1.2,5.1-5.8,13-8.5,17.2c-1.2,1.8-3.3,3.6-4.9,4.7c-0.2,0.1-2,0.6-1.4-0.8c0-2,1.6-3.7,2.5-4.8c3-3.9,6.3-12.3,7.8-17.4
		c0.7-2,0.7-2,0.9-3.3c-0.6-0.9-1.5-0.5-2.2-0.4c-3.4,0.5-8.3-1.4-10.7-4.3c-2-2.4-2-4.8,0.2-7.1c1.4-1.4,2.8-2.9,4.6-3.6
		c1.8-0.8,4.1-0.8,6.2-0.8c1.2,0,2.6,0.4,3.8,0.8c3.2,1,4.9,3.6,5.7,7.1c0,0.1,0.1,0.4,0.5,1c2.3-0.8,4.7-1.5,7-2.3
		c2.1-0.8,4.2-1.5,6.3-2.3c1.1-0.5,2.6-0.6,3.1-2.4c0.1-0.3,0.5-0.5,0.9-0.5c2,0,3.9,0,5.7,1.4c0.5,0.4,0.7,1.1,1.1,1.7
		c-0.4,1.8-1.7,2.4-2.7,3.3c-1.1,0.9-2,1.9-2.3,3.3c-0.5,1.7-1,5.2-1.4,6.5c-0.2,0.8-2.5,4.6-3.1,4.7c-1.2,1.7-2.1,9.7-2,10.7
		c0.1,0.8-0.6,1.8-0.6,2.7c0,0.8-1,4.2-0.9,5.2c0,0.8,0.1,1.7,0,2.3c-1.2,4.1,1,7,2.1,10.2c2.7,1.5,5.2,1.3,7.5,0.1
		c3.4-1.7,6.7-3.3,9.4-6.2c2.2-2.3,4.7-5.1,7-7.3c0.5-0.4,1.1-1,2.1-0.6C124,73.8,122.8,74.9,122.6,75.2z M76.5,44.1
		c-0.1-1.4-0.2-2.9-0.6-4.3c-0.1-0.6-0.7-1.3-1.2-1.7c-1.5-1-4.6-1.1-5.7,0.4c-0.9,1.1-1.7,1-2.7,2.2c-0.6,0.6-0.4,2.4-0.2,3.6
		c3,3.1,6.3,2,9.6,1.4C76,45.5,76.5,44.6,76.5,44.1z M92.8,68.9c0.2-0.8,0.5-1.7,0.2-2.5c0-0.1,0-0.1,0-0.3c0.7-0.9,1.4-1.8,2.2-2.9
		c-2,0.4-2.1,1.8-2.2,2.9c0,0.1,0,0.1-0.1,0.3c0.1,0,0.1,0,0.1,0c-0.5,0.8-1.2,1.4-1.5,2.2c-1.2,4.3-1.6,8.6-0.1,13
		c0.2,0.8,0.7,1.3,1.2,2c0.7-0.8,0-1.3,0-1.9c0-0.8-0.2-1.5-0.4-2.3c0-0.8,0.1-1.4-0.1-2C91.4,74.4,92,71.7,92.8,68.9z M95.5,88.6
		c-0.1-0.3-0.1-0.6-0.2-0.9c-0.1-0.3-0.4-0.5-0.6-0.8C94.1,88,94.8,88.2,95.5,88.6z M98.7,92.5c0-0.3,0-0.4,0-0.6
		c-0.1-0.1-0.4-0.1-0.5-0.3c0,0.3,0,0.5,0,0.8C98.2,92.5,98.5,92.5,98.7,92.5z"/>
	<path class="st1" d="M150,88c-1.7,2.5-4.1,4.5-6.5,6.2c-0.9,0.6-2,1-3.1,1.1c-3,0.5-6,1.1-9.1,1.1c-1.7,0-3.3-0.4-4.4-1.7
		c-1.5-1.4-3.3-2.5-4.2-4.6c-0.1-0.4-0.4-0.5-0.6-0.8c-0.1-0.5-0.6-3.2-0.9-4.3c-0.1-1.1-0.9-1.4-1.1-3.3c0-0.5-0.2-1.1-0.2-1.7
		c0.1-1.5,0.2-4.8,0.6-5.9c1.1-3.4,2.7-6.6,4.3-9.8c1-1.8,1.7-3.6,3-5.2c0.4-0.5,0.1-1.3,0.9-1.8c1-0.5,2-1.7,3-1.8
		c2-0.3,3.9-0.5,5.8,0.6c0.6,0.3,1.1,0.6,1.7,1c1-0.5,2-1.1,2.8-1.7c1.8,0.3,3.7,0.5,5.5,0c3-0.8,5.4,0.6,7.8,2.2
		c0.9,0.6,1.4,2,1.7,3.2c0.4,1.4,0.6,2.9,0.6,4.3c-0.1,3.2-0.4,6.4-0.5,9.4c-0.1,0.5-0.1,0.9-0.4,1.3c-0.2,0.5-0.7,0.8-1,1.3
		c-0.5,1-0.7,2-1.2,3.2c1.7,0.6,3.3,0.4,4.9,0.1c3.7-0.4,7.3-2.2,10.3-4.5c2.1-1.5,6.2-5.2,5.4-1.9c-1.2,2.3-3.3,3.8-5.8,5.7
		c-2.3,0.9-4.7,2.7-7.1,3.3c-3.1,0.9-6.2,1.5-9.2,1.5C151.9,85.8,150.8,86.8,150,88z M126.1,77.5c-0.4,1.5-0.2,2.7,0.1,3.8
		C126.8,79.8,126.8,79.3,126.1,77.5z M128.4,73c0-0.1-0.2-0.4-0.4-0.4c-0.2,0-0.6,0.3-0.6,0.4c0,0.6,0,1.4,0.1,2.4
		C128.6,74.6,128.7,73.8,128.4,73z M130.5,74.6c-0.1,0.6,0,1.4-0.2,1.9c-2.1,4.7-1,9.2,1.2,13.2c1.7,3.1,4.1,3.6,7,1.9
		c3.2-1.8,5.7-4.3,7.6-7.4c0.2-0.3,0.1-0.6,0.2-1.1c-0.9-0.5-1.6-1-2.5-1.5c-3.2-1.8-5.9-4.2-7.6-7.6c-1.2-2.3-2.1-4.7-2.2-7.5
		C132.2,68.9,130.7,71.4,130.5,74.6z M144.3,62c-0.5,0.8-0.9,1.5-1.4,2.3c-2.2,3.4-1.2,6.7,0.6,9.8c0.7,1.4,2,2.7,3.1,3.8
		c0.5,0.5,1.2,1.1,2.1,0.6c1-2.8,2.1-5.6,3-8.4c0.1-0.4,0.1-0.9,0-1.4c0-0.8-0.1-1.5-0.2-2.3c-0.1-3.3-1.2-5.9-4.8-6.6
		C145.5,60.1,144.9,61,144.3,62z"/>
	<path class="st1" d="M198.6,73.6c0.4,0.9-0.5,2-0.7,2.3c-1.8,2-4.7,4.6-6.8,5.6c-3.1,1.4-2.5,0.8-8.4,3.2c-0.7,0.3-1.5,0.8-2.3,1.1
		c-0.2,2.2-0.7,2.7-0.5,4.6c0,0.1,0,0.1,0,0.3c-1.2,6.1-1.7,9.4-4.6,15.4c-0.2,0.5-0.5,1-0.7,1.7c-1.1,1.8-2.2,3.7-3.3,5.6
		c-0.6,0.1-1.4,0.1-2,1.1c-0.5,1-1.2,1.9-1.8,2.9c-0.6,0.9-1.2,1.9-2.5,2.3c-0.2,0.1-0.5,0.5-0.9,0.8c-0.6,0.6-1.1,1.4-1.8,2
		c-0.5,0.4-1.1,0.8-1.8,1.3c-2.6,0.9-8.4,1.8-8.4,1.8c-2.7,0.3-5.5,0.6-8.4,0.9c-1.1,0.1-2.3,0.4-2.8-0.8c-0.1-0.1-0.7-0.1-0.9,0
		c-1.2,0.9-1.8,0.8-2.6-0.1c-0.2-0.4-0.9-0.4-1.4-0.5c0,0-0.9-0.1-1.6-1.1c0-0.8,0.1-1.5,0-2c-0.7-2.4-0.9-4.8-0.5-7.5
		c0.2-1.5,0.6-3.1,1.4-4.6c0.6-1.4,1.2-2.9,1.8-4.3c1-2.5,2.8-4.7,5.1-6.1c3.1-1.9,5.7-3.3,8.6-5.3c0.9-0.5,1.6-1.1,2.5-1.7
		c4.6-2.2,8.1-3.4,12.8-5c1.4-0.4,2.6-1.4,4.1-2c0.5-1.1,1.2-2.9,1.5-5.6c0.1-2-0.1-7.6-0.1-9.8c0-3.1,0.5-5.6,0.2-6.9
		c-0.7-3.3,1.1-3.8,3.6-4.5c0.5-0.1,0.9-0.1,1.4-0.1c1,0.1,1.8,0,2.6,1c0.5,2,1.7,3.1,1.2,5.3c0,0.3,0.6,1.8,0.7,3.6
		c0,1.3-0.9,3.1-0.9,4.5c0.1,2.2,0.7,3.7,0.7,3.9c0.2,1.3-0.6,5.3,0.6,5c2.8-0.8,4.7-1.3,7.8-2.8c4.1-1.9,4.4-2.9,6.3-4.7
		C196.9,73.2,198.1,72.6,198.6,73.6z M137.3,122.7c-0.1-0.4-0.4-0.8-0.5-1c0-0.1-0.2,0-0.4,0c-0.1,0.1-0.4,0.4-0.4,0.5
		c0,0.4,0.2,0.8,0.2,1c0.5-0.1,0.6-0.1,0.9-0.3C137.3,123,137.3,122.7,137.3,122.7z M170.6,91.1c0-0.6-0.4-1.9-2-1.5
		c-3.7,1.4-6.4,1.9-10,4.1c-3.4,2-7.1,2.4-10.3,5.2c-0.9,0.8-1.8,1.4-2.8,1.9c-3.7,2.2-5.4,5.7-6.7,9.3c-0.4,1-0.4,2.2-0.1,3.1
		c0.4,1.7,0.9,3.2,1.6,4.7c0.9,2.2,2.3,3.8,4.9,3.9c2.6,0.1,5.4,0.4,8.3-1.4c1.1-0.6,2.6-0.9,3.2-1.8c1.1-1.4,3-2.3,3.3-4.3
		c0.1-0.6,0.9-1.3,1.4-1.9c0.9-1.4,2-2.7,2.7-4.1c0.6-1.3,1.5-2,2.3-2.8c0.7-2.4,0.6-4.7,2.2-7c0.2-1.8,0,0.6,0.5-1.1
		C169.1,97,170.4,92.3,170.6,91.1z M172.6,46.2c0.5-1.5-0.5-2.5,0-4.1c2.8-1.5,5.3-1.1,7.6-0.4c0.5,0.1,0.7,0.6,1,1.1
		c1.1,2.4,1.2,4.8-0.5,8c-1.5,2.9-3.2,4.7-5.4,3.6c-0.7-1.8-2.6-0.8-2.8-2.7c-0.1-0.5-0.2-0.9-0.1-1.3
		C172.7,49,172.2,47.6,172.6,46.2z"/>
	<path class="st1" d="M245.3,77.9c-1.5,1.1-3.9,3.7-5.4,4.8c-4.3,3.2-7.5,5.1-11.8,8.3c-2.8,2-6.9,2.2-10.3,2.3
		c-1.1,0-2.3-0.1-3.6-0.1c-1.5-0.1-2.8-0.3-4.1-1.3c-0.6-0.5-1.4-0.6-2.3-0.4c-1.2,0.5-2.5-0.1-3.1-1.7c-0.5,0-1-0.1-1.4-0.6
		c-1.1-0.3-1.6-1.3-2.2-2.2c0.9,0.5,1.8,0.9,2.3,2c0.5,0,1.1,0,1.4,0.6c0.4,0,0.7,0,1.1,0c0,0,0,0,0,0.1c0.2,0,0.5,0.1,0.6,0.3
		c-0.1-0.1-0.4-0.3-0.5-0.4h-0.1c-1.8-1.9-3.6-3.9-4.9-6.2c-1.4-2.2-2.3-4.7-3.6-7.4c-0.5-0.6,0.1,3.3,0.7,4.7
		c0.2,0.9,0.5,1.9,0.6,2.8c1.6,0.4,2,1.7,2.1,3.1c-1-0.8-2-1.7-2.1-3.1c-1.6-1.3-2.3-2.9-2.5-5.1c-0.1-1.9-0.5-3.8-0.9-5.7
		c0-0.3-0.2-0.6-0.1-0.9c1.1-4.6,1.1-9.5,4.4-13.4c0.4-0.4,0.7-0.9,0.9-1.4c0.5-2,1.6-3.6,3-5.2c1.1-1.4,2.5-2.8,4.1-3.8
		c0.7-0.4,1.4-1.1,2-1.8c0.5-0.3,1-0.6,1.5-0.8c1.4-0.3,2.8-0.5,4.2-0.8c0.4-0.1,0.7-0.1,1-0.1c2.6,1,5.2,0.5,7.8,0.6
		c2.1,0.3,3.8,1,5.2,2.8c0.2,0.4,0.6,0.9,0.7,1.4c0.2,1.9,0.7,3.9,0,5.9c-0.1,0.4-0.1,0.9-0.2,1.4c-0.1,1.7-0.7,2.9-1.8,4.2
		c-1,1-1.7,2.4-2.7,3.4c-1.8,1.9-3.9,3.6-5.8,5.5c-2.6,2.5-5.9,3.7-8.9,5.5c-2,1.1-3.8,2.3-5.5,4.1c-0.4,1.9,0.7,3.2,1.8,5.2
		l1.4,0.9c0.6,0.6,2.8,1.5,3.8,1.8c2.5,0.6,3.6,1.1,6.2,1.9c0.6,0.3,1.4,0.4,1.8,0.3c3.9-1,8.4-2.9,11.8-5.1c4.4-2.9,7.3-5,11.6-8
		c1.2-0.9,2.8-2.9,4.3-4.1C250.7,72.1,246.9,76.6,245.3,77.9z M204.5,71.7c1.2-0.5,2.2-0.9,3.3-1.3c4.2-1.9,7.9-4.3,10.3-8.4
		c0.6-1,1.4-2.2,1.1-3.3c-0.4-1.5-0.6-3.1-1.8-4.2c-0.2-0.3-0.7-0.6-1.1-0.5c-1.5,0.1-3.1,0.5-3.8,1.7c-0.7,1.1-1.8,1.7-2.7,2.5
		c-0.7,0.9-1.5,1.9-2.5,2.5c-0.5,0.4-0.9,0.9-1.1,1.4c-0.4,0.9-0.9,1.7-1.1,2.4c-0.9,1.9-1.8,3.8-1.8,6.1
		C203.8,71,203.5,71.9,204.5,71.7z M210.2,74.2c-0.5-0.3-0.7-0.6-0.9-0.5c-0.7,0.1-1.5,0.3-1.4,1.3
		C208.8,75.1,209.3,74.6,210.2,74.2z M219.9,65.7c-3,2-5.3,4.7-8.6,5.9c-0.2,0.6-0.4,1-0.6,1.5c0.1,0,0.2,0.1,0.2,0.3
		c0.5-0.5,1-1.1,1.6-1.5c0.6-0.5,1.1-1,1.7-1.3c2.1-1,3.6-2.7,5.3-3.9C219.8,66.3,219.8,66,219.9,65.7z M222.2,63.3
		c0,0.1,0.2,0.1,0.4,0.1c0-0.1,0.1-0.3,0.1-0.4c-0.1,0-0.2,0-0.4,0C222.2,63.2,222.2,63.3,222.2,63.3z"/>
	<path class="st1" d="M296.6,75.1c-0.7,0.6-1.2,2.2-2,2.7c-3.1,2.4-3.9,4.2-6.9,6.9c-1.4,1.4-4.4,2.7-6,3.8
		c-1.2,0.9-2.5,1.8-3.8,2.5c-2,1.1-4.7,1.7-6.5,3.2c-4.7,1.7-9.4,2.8-14.2,2.3c-0.4,0-0.7-0.1-1.1-0.3c-1.7-0.6-3.5-1.3-5.2-2
		c-2.8-0.6-2.7-3.8-4.1-5.3c-1.2-1.3-1.7-3.1-1.6-5c0.1-2.5,0.4-5,0.6-7.5c0-0.5,0.1-1.1,0.4-1.7c2.5-6.1,5.5-11.8,9.4-17.2
		c1.8-2.5,3.9-5.1,6.7-6.7c0.9-0.6,1.8-1.1,2.1-2.3c2.8-1.1,5.3-1.3,7.9-1.1c2.8,0.1,5.3,1.1,7.5,2.7c0.6,0.5,1.1,1,1,1.9
		c0,0.6,0,1.1,0,1.7c-0.1,1.3-0.4,2.5-0.5,3.9c-0.6,0.9-1.5,2-2.2,3.3c-0.2,0.3-0.4,0.6-0.6,0.8c-2,1.3-3.8,2.4-5.7,3.7
		c-0.1,0.1-0.4,0-0.7,0c-0.7-1.8-0.4-3.8-0.1-5.9c0.2-2.5,0.2-5-1.1-7.4c-1.1,1.3-2.3,2.2-3.3,3.4c-3.7,4.6-7.3,9.3-9.7,14.8
		c-0.6,1.4-1.4,2.8-1.2,4.3c0,0.3,0,0.6-0.1,0.9c-1.7,3.2-1.1,6.4-1.1,9.4c0,2.7,1.4,4.8,2.6,6.9c0.7,1.5,2.2,1.8,3.8,1.9
		c3.1,0.1,6.2-0.5,9.1-2c3.1-1.7,6.5-3.2,9.6-5.1c2.7-1.7,5.2-3.3,7.6-5.1c1.6-1.1,3.3-3.3,5.1-4.6c1.4-1,2.1-2.7,3.3-3.6
		c0.2,0.1,0.4-0.8,1.1-0.5C296.6,73.2,297.4,73.7,296.6,75.1z M252.7,78.2c0.1-1.1,0.7-2.4-0.5-3.7
		C251.2,76.3,251.4,77.3,252.7,78.2c0,0,0,0,0,0.1c-1,0.5-0.9,1.1-0.6,2c1.2-0.8,0.5-1.4,0.6-2c0.1,0,0.1,0,0.1,0
		C252.8,78.2,252.8,78.2,252.7,78.2z M252.5,73.7c3.1-4.3,4.9-8.8,7.9-12.8c0.1-0.3,0.2-0.6,0.2-0.9c0.1-0.3-0.1-0.5-0.1-0.9
		c-1.7,0.9-2.1,2.3-2.8,3.4c-0.7,1.3-1.2,2.5-2.2,3.7c-1.6,2-2.1,4.2-3.3,6.4C252,72.8,252.3,73.2,252.5,73.7z M261.4,58.1
		c1.7-1.9,1.7-1.9,2.1-3.2C261.2,57.1,261.2,57.1,261.4,58.1z M265.6,52.6c0,0,0.2,0,0.4,0c0.4-0.5,0.9-0.9,1.4-1.4
		c-0.2-0.1-0.4-0.3-0.5-0.3c-0.5,0.4-0.9,0.9-1.2,1.4C265.5,52.5,265.5,52.6,265.6,52.6z"/>
	<path class="st1" d="M314,27.9c2.6-1.1,5.2-0.9,7.8-1.1c3.3-0.4,6.8-0.1,10.2,0.1c2.1,0.3,4.1,0.4,5.9-0.1c0.2,0,0.6,0.1,1.2,0.1
		c-0.1,0.5-0.1,1-0.4,1.4c-0.2,0.4-0.6,0.6-1.1,1c-0.5,0.3-1,0.6-1.6,0.9c-1.2,0.3-2.3,0.8-3.6,1.3c-0.6,0.4-1.5,0.1-2.2,0.3
		c-2.2,0-4.6,0.1-6.8,0.3c-0.9,0.1-1.8,0.1-2.6,0.4c-2.5,1-5.3,1.3-8,1.8c-1.7,0.4-2.8,1.5-3.5,3.1c-0.1,0.8-0.2,1.4-0.5,2.2
		c-0.6,2.2-2.7,14.5-3.3,16.8c-0.6,2.5-1.1,5.2-1.7,7.8c-0.1,0.4-0.2,1-0.6,1.3c-1.4,1.4-2.6,9.9-2.8,12.7
		c-0.4,4.2-0.4,8.4-0.4,12.7c0.1,2.5,0.7,5.1,1.2,7.6c0.1,0.9,0.7,1.7,1.2,2.4c1.8,2.3,3.2,2.5,4.8,0.6c1.7-2,3.4-4.1,4.8-6.4
		c1.2-2.3,3.2-4.1,3.7-6.7c0.1-0.3,0.4-0.5,0.5-0.8c3.6-3.8,3.8-5,6.4-9.5c0.7-1.4,1.4-2.8,2.2-4.2c0.4-0.8,1.1-1.3,2.2-1.3
		c0.6,0,0.7,0.6,0.7,1c-0.1,1.3-0.4,1.9-1.1,3.9c-0.5,1.3-0.7,2.4-1.4,3.4c-1,1.5-1.6,3.4-2.6,5c-2,2.9-1.5,2.4-4.1,5
		c-1.6,1.8-3.1,3.7-4.1,6c-1.1,2.3-2.5,4.5-4.3,6c-1.6,1.3-3.1,2.5-5.2,3.1c-1.5,0.4-3.2,0.4-4.6-0.4c-1.2-0.8-3.1-1.1-3.7-2.9
		c-1.8-1.5-2.1-3.7-3.2-5.6c-0.1-0.1-0.1-0.4-0.1-0.6c0.4-2.3-0.4-4.6-1-6.9c-0.1-0.6,0-1.1,0-1.7c0.2-4.5,0.5-8.9,0.6-13.4
		c0.1-2.2,0.4-4.3,0.7-6.4c0.6-2.9,1.5-5.9,1.5-9c-0.1-2,1.1-6.7,1.4-7.4c0.2-0.4-0.4-1.3-0.2-1.8c0.7-2.2,0-10.9,1.8-12.7
		c-0.9,0.3-1.6,0.5-2.5,0.8c-2.3,0.9-5.1,0.6-7.4,1.7c-0.5,0.3-1.1,0.4-1.7,0.6c-0.6,0.3-1.2,0.4-2.1,0.1c-1-0.3-2.1-0.3-3.1-0.3
		c-0.9-0.1-1.7-0.6-2.6-1.3c-0.7-2,3.4-3.1,5.7-3.7c3.6-1,7.3-2,10.8-2.9c1.1-0.3,2-0.8,2.6-1.5c0.2-0.3,1.7-1.3,2.2-2.3
		c0.5-1.1,0.7-2.5,1-3.8c0.5-1.7,1-3.4,0.7-5.5c-0.1-0.9,0.4-1.9,0.5-2.9c0-0.3,0.1-0.9-0.1-1c-0.2-0.4-0.4-2.4-0.6-3.6
		c-0.1-1,0.2-4.3,5.3-4.8c5.1-0.5,6.7,1.4,7.5,2.3c0.4,0.3,0.9,0.6,1.4,0.9c1.1,0.6,1.7,1.8,1.6,2.8c-0.2,1.7,0.4,3.6-0.5,5.2
		c-0.2,0.4-1.5,5.1-1.6,5.7C315,26.1,314.3,26.9,314,27.9z M296.1,79.6c-0.6,1.5-1.2,2.7,0,4.5C297.4,82.6,296.8,81.2,296.1,79.6z
		 M296.1,86.2c-0.1,0-0.2,0-0.2,0l-0.1,0.1C295.9,86.3,296,86.3,296.1,86.2z M297,73.6c0.1-0.6,0.1-0.9,0.1-1.3c0-0.4,0-0.9-0.6-0.9
		c-0.2,0-0.5,0.1-0.5,0.3c-0.1,0.3-0.2,0.8-0.1,1C296,73,296.4,73.1,297,73.6z M296.9,75.1c-0.2,0.4-1.6,0.8-0.4,1.5
		C296.6,76.1,296.8,75.6,296.9,75.1z M297.9,58.2c-1.4,0.8-1.4,0.8-0.5,2C297.6,59.5,297.8,58.8,297.9,58.2z M297.6,64.7
		c0,0-0.1-0.1-0.2-0.3c0,0.3-0.1,0.4-0.2,0.5l0.2,0.1C297.5,64.9,297.6,64.8,297.6,64.7z M298.7,75.6c-0.4,2-1.2,3.6,0.5,6.1
		C298.9,79.4,299.5,77.8,298.7,75.6z M299.7,54.5c-1.1,0.4-1.1,0.4-1.2,2.8c0.1,0,0.5,0.1,0.5,0C299.6,56.5,299.7,55.7,299.7,54.5z
		 M299,58.8c-0.1-0.3-0.2-0.4-0.4-0.5l-0.1,0.1c0,0.3,0.2,0.4,0.4,0.5L299,58.8z M298.9,86.4c-0.1-0.1-0.2-0.3-0.2-0.4
		c-0.1,0-0.1,0.1-0.1,0.1c0,0.3,0,0.4,0.1,0.5C298.6,86.7,298.7,86.6,298.9,86.4z M298.7,90.3c0-0.1,0-0.4-0.1-0.5h-0.1
		c0,0.1,0.1,0.4,0.1,0.5H298.7z M299.4,93.3h-0.2l0.1,0.4L299.4,93.3z M300.7,37.8c-1,4.3-2.2,14.4-1.1,13
		C299.5,48.8,301.9,35.2,300.7,37.8z M312.3,14.4c0-1-0.5-1.1-1.5-2.5c-0.9-0.8-1.7,2.4-1.6,4.2c0.1,2.3,0,4.6-0.9,6.6
		c-0.4,0.8-0.6,1.9-0.7,2.8c-0.1,1,0.7,1.9,0.7,3.2c1.1-0.9,1.4-2,1.7-3.1c0.4-0.9,1.4-2.9,1.2-3.8
		C311.4,22.6,312.4,12.7,312.3,14.4z"/>
	<path class="st1" d="M371.4,74.1c-0.6,1.4-2.3,3.4-3.6,3.9c-3.2,2.3-3.9,3.3-5.4,3.9c-3,1.4-1.2,0.3-4.2,1.7c-0.7,0.4-1.1,1-2,1.5
		c-1.2,0.6-2,1.7-2,3.2c0,1.3-0.4,2.4-0.7,3.6c-0.6,1.5-1.4,2.5-2.6,3.4c-1.6,1.4-3.2,2.8-4.9,4.1c-1.1,0.9-2.2,1.9-4.1,1.8
		c-1.4-0.1-2.8,0.9-4.3,1.4c-0.5,0.1-1.1,0.5-1.6,0.4c-2.5-0.1-4.9-0.4-7.5-0.6c-0.4-1.3-0.6-2.4-0.9-3.4c2.5-5.1,7-7.5,11.5-9.8
		c1-0.5,2-1,3.1-1.4c1.8-0.8,3-0.9,3.1-3.9c0,0,0.7-1.5,0.4-1.9c-0.2-0.6-0.9-0.8-1.1-1.7c-0.4-1.7-2-2.3-3.6-2.5
		c-2.2-0.4-4.4-0.1-6.8-0.4c-1.6-0.1-3.2-0.1-4.6-1c-0.2-0.1-1.4-0.5-1.5-0.8c-0.2-0.5-1.6-1.4-1.6-1.4c-0.7-0.8-1-2.3-1.6-3.2
		c-0.1-0.3-0.1-1.1,0.1-1.5c0.2-0.8-1-2.2-0.7-2.7c0.4-1,0.1-3.3-0.1-4.5c-0.4-0.8,0.7-1.7,0.2-1.9c-0.4-1.4,0.5-1.9,0.9-3.1
		c0.1-0.5,1.4-1.1,1.6-2c0.1-0.6,0.7-1.4,0.7-1.9c0.5-0.8,2.3-3.9,3.7-4.6c1.5-0.6,3.7-0.3,4.7-1.3c0.2-0.3,3.3-1,3.6-1
		c2.3,0,4.6,0.3,7,1c2.5,0.9,4.2,2.3,5.3,4.7c0.1,0.1,0.4,3.6-0.4,4.7c-1.5,6.2-11.8,11.6-11,6.7c0-0.6-0.1-1.3,0-1.7
		c0.5-1.3,1.1-2.4,1.7-3.7c0.4-0.6,0.9-1.3,1.2-2c0.4-0.6,0.5-1.5-0.2-2.2c-0.7-0.8-1.5-1.4-2.6-0.9c-2.7,1.1-4.9,3.1-6.7,5.3
		c-1.5,2.2-2.7,4.5-2.6,7.3c0.1,1.8,0.1,4.2,1.7,5.3c0.4,0.3,0.7,0.8,1,1.1c1.2,1,1.8,1,3.3,1c2.2,0.3,4.6,0.6,6.8,0.6
		c3.4,0.1,6,1.5,7.9,4.6c0.6,0.9,1.1,1.7,1.7,2.5c1.1,0.5,2.1,0.4,3.1-0.3c3.8-1.5,2.2,0.3,6.5-3.2c3.2-1.4,3.1-3.2,6.4-4.3
		c0.2-0.1,0.6-0.3,1-0.3c0.1,0,0.4,0.3,0.5,0.4C371.5,73.6,371.5,73.8,371.4,74.1z M327.1,57.9c-0.1-0.1-0.4-0.3-0.5-0.3
		c0,0-0.2,0.1-0.2,0.3c0.1,0.1,0.2,0.3,0.4,0.4C326.8,58.2,326.9,58.1,327.1,57.9z M330,63.4l-0.2-0.1c-0.1,0-0.2,0.3-0.2,0.3
		c-0.6,1.5-0.5,5.9,0,4.8C330.2,66.5,329.8,64.9,330,63.4z M329.8,57.4c0,0,0.1,0.1,0.1,0.3c0-0.1,0.1-0.1,0.1-0.3
		c0,0,0-0.1-0.1-0.3C329.9,57.3,329.8,57.3,329.8,57.4z M343.7,90.9c-1.2,0.5-2.1,0.9-3,1.4c-1.7,0.9-3.3,2.2-5.2,2.9
		c-1.6,0.6-2.6,1.8-3.6,3.2c1,1.1,2.2,1.5,3.6,1.4c1.7-0.3,3.5-1,4.6-2.4c1.4-1.4,2.5-3.2,3.6-4.8C343.9,92.3,343.7,91.7,343.7,90.9
		z M343.2,98.8c0-0.3-0.1-0.5-0.2-0.6c-0.6-0.3-0.6,0.4-0.9,0.8V99c0,0,0,0-0.1,0c0,0.1,0,0.1,0,0.1c-0.1-0.1-0.2-0.3-0.5-0.3
		c-0.2-0.1-0.5,0-0.7,0.1c0.1,0.1,0,0.5,0.1,0.6c0.2,0.1,0.6,0.4,0.7,0.3c0.2-0.1,0.2-0.5,0.4-0.8c0.1,0,0.1,0,0.1-0.1
		C342.6,99.3,343.1,99.7,343.2,98.8z M350.2,81.9c0-0.1-0.4-0.3-0.6-0.4c-0.1,0.3-0.4,0.5-0.4,0.8c-0.2,1.5-0.5,2.9-0.6,4.3
		c-0.1,2-0.6,3.7-1.7,5.6c-0.6,1.3-2.1,2-1.5,2.2c0.5,0.1,1.7-1.3,2.2-0.8c0.4-0.6,0.7-1.1,0.9-1.8c0.4-1,0.2-2.2,0.7-3.2
		C350.2,86.4,350.1,84.2,350.2,81.9z"/>
</g>
</svg>
