<?xml version="1.0" encoding="utf-8"?>
<!-- Generator: Adobe Illustrator 21.0.0, SVG Export Plug-In . SVG Version: 6.00 Build 0)  -->
<svg version="1.1" id="Layer_1" xmlns="http://www.w3.org/2000/svg" xmlns:xlink="http://www.w3.org/1999/xlink" x="0px" y="0px"
	 viewBox="0 0 255 116.7" style="enable-background:new 0 0 255 116.7;" xml:space="preserve">
<style type="text/css">
	.st0{enable-background:new    ;}
	.st1{fill:#3283FC;}
</style>
<g class="st0">
	<path class="st1" d="M55.4,79.1c-0.6,1.4-2.4,3.4-3.7,3.9c-3.3,2.3-4.1,3.3-5.6,3.9c-3.1,1.4-1.3,0.3-4.3,1.7c-0.8,0.4-1.1,1-2,1.5
		c-1.3,0.6-2,1.7-2,3.2c0,1.3-0.4,2.4-0.8,3.6c-0.6,1.5-1.4,2.5-2.7,3.4c-1.7,1.4-3.3,2.8-5.1,4.1c-1.1,0.9-2.3,1.9-4.2,1.8
		c-1.4-0.1-2.9,0.9-4.5,1.4c-0.5,0.1-1.1,0.5-1.7,0.4c-2.5-0.1-5.1-0.4-7.8-0.6c-0.4-1.3-0.6-2.4-0.9-3.4c2.5-5.1,7.3-7.5,11.8-9.8
		c1-0.5,2-1,3.2-1.4c1.9-0.8,3.1-0.9,3.2-3.9c0,0,0.8-1.5,0.4-1.9c-0.3-0.6-0.9-0.8-1.1-1.7c-0.4-1.7-2-2.3-3.7-2.5
		c-2.3-0.4-4.6-0.1-7-0.4c-1.7-0.1-3.3-0.1-4.7-1c-0.3-0.1-1.4-0.5-1.5-0.8C10.4,80,9,79.1,9,79.1c-0.8-0.8-1-2.3-1.7-3.2
		c-0.1-0.3-0.1-1.1,0.1-1.5c0.3-0.8-1-2.2-0.8-2.7c0.4-1,0.1-3.3-0.1-4.5c-0.4-0.8,0.8-1.7,0.3-1.9c-0.4-1.4,0.5-1.9,0.9-3.1
		c0.1-0.5,1.4-1.1,1.7-2c0.1-0.6,0.8-1.4,0.8-1.9c0.5-0.8,2.4-3.9,3.8-4.6c1.5-0.6,3.8-0.3,4.8-1.3c0.3-0.3,3.4-1,3.7-1
		c2.4,0,4.7,0.3,7.3,1c2.5,0.9,4.3,2.3,5.5,4.7c0.1,0.1,0.4,3.6-0.4,4.7c-1.5,6.2-12.2,11.6-11.3,6.7c0-0.6-0.1-1.3,0-1.7
		c0.5-1.3,1.1-2.4,1.8-3.7c0.4-0.6,0.9-1.3,1.3-2c0.4-0.6,0.5-1.5-0.3-2.2c-0.8-0.8-1.5-1.4-2.7-0.9c-2.8,1.1-5.1,3.1-6.9,5.3
		c-1.5,2.2-2.8,4.5-2.7,7.3c0.1,1.8,0.1,4.2,1.8,5.3c0.4,0.3,0.8,0.8,1,1.1c1.3,1,1.9,1,3.4,1c2.3,0.3,4.7,0.6,7,0.6
		c3.6,0.1,6.2,1.5,8.1,4.6c0.6,0.9,1.1,1.7,1.8,2.5c1.1,0.5,2.2,0.4,3.2-0.3c3.9-1.5,2.3,0.3,6.7-3.2c3.3-1.4,3.2-3.2,6.6-4.3
		c0.3-0.1,0.6-0.3,1-0.3c0.1,0,0.4,0.3,0.5,0.4C55.5,78.6,55.5,78.8,55.4,79.1z M9.6,62.9c-0.1-0.1-0.4-0.3-0.5-0.3
		c0,0-0.3,0.1-0.3,0.3c0.1,0.1,0.3,0.3,0.4,0.4C9.3,63.2,9.4,63.1,9.6,62.9z M12.6,68.4l-0.3-0.1c-0.1,0-0.3,0.3-0.3,0.3
		c-0.6,1.5-0.5,5.9,0,4.8C12.7,71.5,12.4,69.9,12.6,68.4z M12.4,62.4c0,0,0.1,0.1,0.1,0.3c0-0.1,0.1-0.1,0.1-0.3c0,0,0-0.1-0.1-0.3
		C12.5,62.3,12.4,62.3,12.4,62.4z M26.7,95.9c-1.3,0.5-2.2,0.9-3.1,1.4c-1.8,0.9-3.4,2.2-5.3,2.9c-1.7,0.6-2.7,1.8-3.7,3.2
		c1,1.1,2.3,1.5,3.7,1.4c1.8-0.3,3.6-1,4.7-2.4c1.4-1.4,2.5-3.2,3.7-4.8C27,97.3,26.7,96.7,26.7,95.9z M26.2,103.8
		c0-0.3-0.1-0.5-0.3-0.6c-0.6-0.3-0.6,0.4-0.9,0.8v0.1c0,0,0,0-0.1,0c0,0.1,0,0.1,0,0.1c-0.1-0.1-0.3-0.3-0.5-0.3
		c-0.3-0.1-0.5,0-0.8,0.1c0.1,0.1,0,0.5,0.1,0.6c0.3,0.1,0.6,0.4,0.8,0.3c0.3-0.1,0.3-0.5,0.4-0.8c0.1,0,0.1,0,0.1-0.1
		C25.6,104.3,26.1,104.7,26.2,103.8z M33.5,86.9c0-0.1-0.4-0.3-0.6-0.4c-0.1,0.3-0.4,0.5-0.4,0.8c-0.3,1.5-0.5,2.9-0.6,4.3
		c-0.1,2-0.6,3.7-1.8,5.6c-0.6,1.3-2.2,2-1.5,2.2c0.5,0.1,1.8-1.3,2.3-0.8c0.4-0.6,0.8-1.1,0.9-1.8c0.4-1,0.3-2.2,0.8-3.2
		C33.5,91.4,33.3,89.2,33.5,86.9z"/>
	<path class="st1" d="M103.6,79.7c-0.5,0.8-1.7,3.1-2.4,3.7c-2.9,2.8-1.8,4.6-4.5,7.5c-1.1,1.3-2.9,4.6-4.2,6
		c-0.6,0.6-1.7,2.3-2,3.1c-0.9,1.8-1.8,2.3-3.4,2.8c-1.9,0.4-1.5,0.9-3.4,1.1c-1.8,0.3-3.2-0.4-4.6-1.5c-3.2-2.4-5.2-4.8-7.6-7.9
		c-0.6-0.8-1.4-1.5-2.3-2c-1.5-0.9-2.2-2.4-3.1-3.8c-0.4-0.6-0.6-1.1-1.1-1.8c-1.7-1.7-1.7-3.4-3.3-5.3c-1.8-0.4-2,0.1-2.8,2
		c0.3,2.9-0.9,5.5-1.7,8c-0.1,0.4-0.9,2.3-0.8,2.9c-1.4,4.1-2.8,4.6-3.8,3.1c-0.3-0.4-0.5-0.8-0.6-1.1c-0.3-2.5-0.5-5.1,0.3-7.6
		c0.6-2.7,0.9-5.5,1.1-8.3c0-1.1,0.8-2.2,0.3-3.3c-0.1-0.4,0.1-1,0.4-1.1c1.1-1,0.3-2,0.8-3.3c0.1-0.3,0-0.6,0-0.9
		c-0.3-2.7,0-3.2,0.4-4.6c0.1-0.6,0.1-1.3,0-1.9c0-2,0-4.1,1.3-5.9c0.3-0.4,0.4-1.1,0.1-1.5c-0.6-1.5,0.5-4.1,0.8-7.3
		c0.1-1.8,0.4-3.4,0.6-5.2c0.1-1.9,1.3-7,2.2-11.8c0.1-0.3,0.1-0.6,0.1-0.9c0.5-3.6,1.1-7.3,1.5-10.8c0.3-1.5,0.5-2.5,1.3-4.5
		c0,0,1.4-2.2,3.3-3.2c1.5-0.9,2.9-1.8,4.5-2.3c2.5-0.9,5.1-0.5,7.6,0.5c0.8,0.3,0.9,1.1,1.5,1.7c1.9,1.3,1.5,3.2,1.5,3.2
		c-0.4,1.4-0.8,2.5-0.9,3.7c-0.8,3.6-1.5,7.1-3.8,10c-0.3,0.3-0.4,0.5-0.5,0.9c0,0-1.1,3.6-1.8,4.8S72.1,40,72.1,40
		c-0.9,2-2.2,3.8-2.8,5.9c0,0.3-0.1,0.6-0.4,0.9c-1.7,1.4-1.7,3.3-2,5.2c-0.5,2.3-1.5,4.5-2.4,6.6c-0.9,2.4-1.1,5-1.3,7.8
		c1.5-0.6,2.2-1.7,2.8-2.5c1.5-2.7,4.1-3.8,6.9-4.7c1.4-0.5,2.8-0.8,4.2-1.1c2.4,0.9,1.5,2.8,1.7,4.1c-1.1,1.7-2.2,3.1-3.2,4.3
		c-1.4,1.7-2.9,3.3-4.5,4.8c-1.8,1.8-3.9,3.2-5.6,5.3c2.2,2.7,1.5,6,3.8,8.5c2.9,3.2,5.5,6.5,8.5,9.4c1.8,1.7,2.7,2.8,4.3,4.5
		c2,1.9,2.3-0.3,4.6-1.5c3.8-2.2,3.1-3.4,5.2-5.9c1.4-1.5,2.5-4.5,3.8-6c0.6-0.9,1.3-1.8,2-2.5c1.4-1.5,3.7-4.3,5.1-5.9
		C104.6,76.3,105,77.1,103.6,79.7z M56,63.7c0.1,0.1,0.1,0.3,0.1,0.3c0.1,0,0.3,0,0.3,0c0-0.1,0-0.3-0.1-0.3
		C56.2,63.7,56.1,63.7,56,63.7z M57,90.3c-0.1,0-0.4,0-0.5,0c-0.1,0.1-0.3,0.4-0.3,0.5c0.1,0.1,0.4,0.1,0.6,0.3
		C56.9,90.8,57,90.6,57,90.3z M59.6,48.7c-0.1-0.1-0.1-0.3-0.3-0.4c-0.1,0-0.3,0.1-0.3,0.1c0.1,0.3,0.3,0.4,0.3,0.5
		C59.4,49,59.4,48.8,59.6,48.7z M60.2,46.8c1.4-5.1,1-8.3,2.4-13.2c0.1-0.3,0.9-3.1,0.8-3.3c0-0.3,0.3-1.4,0-1.7
		c-0.4-1.5-1,2.3-1.1,3.6c-0.3,1.4-0.4,3.6-0.9,5c-0.8,2.4-0.5,4.7-0.9,7.1C60.4,44.5,59.9,46.4,60.2,46.8z M61,53.9
		c0,0,0-0.1-0.1-0.3c0,0.1-0.1,0.1-0.1,0.1c0,0.1,0,0.1,0,0.3C60.8,54,61,54,61,53.9z M63.9,27.2c1-2.3,0.4-1.5,0.8-3.6
		C63.7,24.8,63.4,26.4,63.9,27.2z M66.9,71.5c1-1.5,2.7-2.4,3.8-3.8c1-1.3,1.5-2.8,1.8-4.8c-1,0.5-1.5,0.8-2,1.1
		c-1.8,1.9-3.6,3.8-5.2,5.7c-0.6,0.8-0.9,1.7-1.4,2.5c-0.1,0.4-0.3,0.8,0.3,0.9C65.1,72.6,66.4,72.2,66.9,71.5z M67.1,17.8
		c0.1,0.1,0.3,0,0.4,0c0.3-0.6,0.5-1.3,0.9-1.8c-0.3-0.1-0.4-0.1-0.5-0.1c-0.4,0.5-0.6,1.1-0.9,1.8L67.1,17.8z M69,25.2
		c0,2.4,0.1,5-1,7.1c-0.1,0.3-0.3,0.8-0.1,0.9c0.6,1.1,0,2.2-0.3,3.2c0,0.4,0,0.4,0.9,2c0.3-0.8,0.5-1.3,0.6-1.9
		c1.4-3.1,1.8-6.4,3.3-9.3c0.9-1.9,1.5-4.1,1.5-6.2c0.1-1.3,0-2.5-0.9-3.7c-1.1,0-2.7-1.5-3.3,0.1c-0.3,1.8-0.3,3.3-0.4,5
		C69.2,23.3,69,24.1,69,25.2z M71.1,15.9c0.4,0.1,0.6,0.3,0.9,0.3c0.1,0,0.3-0.3,0.5-0.5c-0.4,0-0.8-0.1-1-0.1
		C71.4,15.5,71.3,15.7,71.1,15.9z"/>
	<path class="st1" d="M136.1,79.4c-0.3,2.2-1.9,3.7-2.8,5.7c-0.3,0.6-0.6,1.1-1.1,1.7c-2.2,2.7-3.7,5.9-6.7,7.8
		c-1.1,0.8-2,1.8-2.8,2.9c-3.6,4.8-8.4,6.4-13.9,5.7c-3.3-0.5-5-3.1-7.1-5.3c-0.3-0.3-1.8-6.1-1.8-6.4c0-2.8,0.1-7,0.6-9.9
		c0.5-3.4,0.6-6.9,1.3-10.2c0.5-2,1.3-4.1,1.8-6.1c0.3-1,1-1.3,1.8-1.3c2.5-0.1,4.7,0.4,6.5,2.5c-0.4,2.7,0,5.6-0.8,8.4
		c-0.5,1.9-0.4,3.9-1,6c-0.5,1.9-0.9,8.9-1.1,10.8c-0.3,2,0.6,6,1.8,7.3c0.9,1,2.3,1.1,3.8,0.5c2.4-1,4.3-2.7,6-4.6
		c2-2.3,3.9-4.6,5.9-6.7s3.6-4.6,5.5-6.6c1-1.1,1.3-2.5,2.8-3.6C136.4,76.8,136.1,78.6,136.1,79.4z M107.6,91.2l0.1-0.1
		C107.6,91.1,107.6,91.1,107.6,91.2c-0.3-0.4-0.5-0.6-0.6-1c-0.1-0.4-0.1-0.8-0.3-1.3h0.1c0-0.1,0-0.1,0-0.1
		c0.8-0.4,1.1-0.9,0.8-1.8c-0.3-0.5-0.3-1-0.4-1.5c0.1-1.4,1-2.9,0-4.3c-0.3,1.3-0.6,2.3-0.8,3.4c0,0.3,0.5,0.5,0.8,0.9
		c-0.5,1-0.6,2.2-0.4,3.3c-0.1,0-0.1,0-0.1,0v0.1c-0.8,0.4-0.8,0.9-0.5,1.7C106.4,91.3,107,91.3,107.6,91.2c-1.1,1.5-1.1,1.7,0,3.3
		C107.8,93.3,108.3,92.2,107.6,91.2z M106.1,55.4c0.3-0.9,1.1-1.5,0.6-2.8c-0.3-0.8,0.4-1.8,0.4-2.7s-0.3-1.9-0.4-3.1
		c3.1-0.9,5.7-0.6,8.5,0.6c0.1,0.4,0.6,1.1,0.4,1.7c-0.5,1.5-0.3,3.2-0.5,4.7c-0.5,2.4-1.5,4.5-4.2,5.3c-0.8,0.3-1.5,0.8-2.4,1.3
		C107,60.9,106.9,57.1,106.1,55.4z M109.3,72.9c0.1,0.9,0.3,1.7,0.4,2.5c0.1-0.6,0.4-1.3,0.4-1.9c0-0.3-0.3-0.5-0.4-0.8
		C109.5,72.7,109.4,72.9,109.3,72.9z"/>
	<path class="st1" d="M168.3,82.4c-4.1,4.1-6.6,7-11.7,9.8c-3.6,2.2-5.3,3.4-9.4,4.2c-1.8,0.3-3.4,0.1-5.1,0.1
		c-0.6-0.1-2.2-0.1-2.5-0.6c-1.5-1.5-3.4-1-4.5-3.2c-1.7-2.8-2.4-6-2.5-9.2c-0.1-5-0.5-10.2,0.6-15.1c0.5-2.2,0.3-4.5,0.9-6.6
		c0.1-0.6,0.3-3.2,0.5-3.9c0.4-0.6,0.5-1.5,0.6-2.3c0.1-6,1.4-11.8,2.7-17.7c0-0.4,0-0.8-0.1-1.3s0.1-1.5,0.1-1.5
		c0.5-0.6,0.6-2.3,0.6-2.9c0-1.7-0.6-3.7,1-5c0.3-0.3,0.4-0.9,0.3-1.3c-0.4-1.9,0.6-5.6,0.4-5.7c0.4-1.5,0.5-2.8,0.9-4.1
		c0.5-1.4,1.1-2.7,1.8-4.2c0,0,1.1-2.7,5.3-2.7c8.3,0,10.3,3.4,10.3,3.4c0.3,0.9,0.4,2.2,1,3.1c1,1.3-0.3,2.3,0,3.4
		c0.4,1.8-0.4,3.3-1.1,4.8c-1.3,2.5-3.2,4.8-3.6,7.6c-0.6,4.5-2.7,6.9-2.7,6.9c-1,2.8-2.8,5.3-3.4,8.4c-0.3,1.4-1,2.8-1.7,4.1
		c-1.1,2.5-2.2,5.1-2.7,7.9c-0.3,1.7-1,3.3-1.8,4.7c-0.8,1.5-1.3,2.9-1.4,4.6c-0.3,2.9-0.6,5.7-1,8.7c-0.1,0.9-0.4,1.8-0.5,2.7
		c-0.1,1.1-0.4,2.3,0.1,3.7c0.6,1.7,0.6,6.9,1.5,7.6c2.9,2.3,4.7,2.7,8.3,2c4.2-0.9,5.1-2.2,8.5-4.7c1.4-1,3.2-3.1,4.6-4.1
		c2.2-1.5,2.5-2.3,4.2-4.2c0.6-0.8,1.9-2.2,2.7-1.8C171,78.8,169.8,80.8,168.3,82.4z M135.8,79.6c0-0.9,0-1.8-0.1-2.8
		c0-0.1-0.1-0.3-0.3-0.3c0,0-0.1,0.1-0.1,0.3c0,0.9,0,1.8,0,2.8C135.5,79.6,135.6,79.6,135.8,79.6z M137.1,63.3
		c-0.8,0.8-0.8,0.8-0.4,5.5C137.3,67,137.3,67,137.1,63.3z M139.1,51c0.6-4.5,1.3-8.8,1.5-13.6c-0.5,0.5-1,0.6-1,1
		c-0.5,3.4-1.5,6.5-1.5,10.3c0,2-0.5,4.1-0.8,6.1c-0.3,2-0.9,3.8-0.1,6.5c0.4-0.4,0.6-0.5,0.8-0.8c0.3-0.4,0.3-0.9,0.4-1.4
		c0.1-2.7,0.4-5.2,0.8-7.9h0.1c0-0.1,0-0.3,0-0.3C139.1,51,139.1,51,139.1,51z M141.1,35.3c1.4-1.5,1-3.4,1.1-5.1c0.1,0,0.1,0,0.1,0
		c0-0.1,0-0.1,0-0.1c-0.1-0.9,0.8-1.7-0.3-2.9c-0.5,1.1-0.8,1.9,0.3,2.9c0,0.1,0,0.1-0.1,0.1C140.8,31.3,140.3,32.8,141.1,35.3z
		 M141.6,55.2c-0.1-0.1-0.1-0.4-0.3-0.5l-0.3,0.1c0.1,0.3,0.1,0.4,0.3,0.6C141.5,55.3,141.6,55.3,141.6,55.2z M142.7,49.1
		c0-0.1-0.1-0.1-0.3-0.1c-0.5,0.1-0.9,0.9-0.6,1.7c0,0,0.1,0.1,0.1,0.3c0.3-0.1,0.5-0.3,0.5-0.4C142.7,50,143.3,49.6,142.7,49.1z
		 M142.6,47.2c0.4,0,0.9,0.1,1,0c1.3-1,5.5-14.6,5.9-16.2c0.1-0.9,0.1-1.9,0.5-2.7c0.8-2,1.5-8.1,1.7-8.9c0.1-0.9,0.3-1.8,0.3-2.7
		c0-0.4-1.1-1.9-1.4-1.9c-0.5-0.1-2.2,0.6-2.3,1c-0.8,1.3-2.5,2.3-1.4,3.8c0.4,0.6,0.3,1.4-0.1,1.9c-0.4,0.6,0.5,3.6-0.1,3.9
		c-0.1,0.1-0.4,4.3-1.4,6.1C144.7,32.7,142.2,45.9,142.6,47.2z M143.8,32.4c0,0.1,0.3,0.4,0.4,0.5c0.1-0.1,0.3-0.4,0.3-0.5
		c0-0.3-0.1-0.4-0.3-0.6C144,32,143.8,32.2,143.8,32.4z"/>
	<path class="st1" d="M202.4,82.4c-4.1,4.1-6.6,7-11.7,9.8c-3.6,2.2-5.3,3.4-9.4,4.2c-1.8,0.3-3.4,0.1-5.1,0.1
		c-0.6-0.1-2.2-0.1-2.5-0.6c-1.5-1.5-3.4-1-4.5-3.2c-1.7-2.8-2.4-6-2.5-9.2c-0.1-5-0.5-10.2,0.6-15.1c0.5-2.2,0.3-4.5,0.9-6.6
		c0.1-0.6,0.3-3.2,0.5-3.9c0.4-0.6,0.5-1.5,0.6-2.3c0.1-6,1.4-11.8,2.7-17.7c0-0.4,0-0.8-0.1-1.3c-0.1-0.5,0.1-1.5,0.1-1.5
		c0.5-0.6,0.6-2.3,0.6-2.9c0-1.7-0.6-3.7,1-5c0.3-0.3,0.4-0.9,0.3-1.3c-0.4-1.9,0.6-5.6,0.4-5.7c0.4-1.5,0.5-2.8,0.9-4.1
		c0.5-1.4,1.1-2.7,1.8-4.2c0,0,1.1-2.7,5.3-2.7c8.3,0,10.3,3.4,10.3,3.4c0.3,0.9,0.4,2.2,1,3.1c1,1.3-0.3,2.3,0,3.4
		c0.4,1.8-0.4,3.3-1.1,4.8c-1.3,2.5-3.2,4.8-3.6,7.6c-0.6,4.5-2.7,6.9-2.7,6.9c-1,2.8-2.8,5.3-3.4,8.4c-0.3,1.4-1,2.8-1.7,4.1
		c-1.1,2.5-2.2,5.1-2.7,7.9c-0.3,1.7-1,3.3-1.8,4.7c-0.8,1.5-1.3,2.9-1.4,4.6c-0.3,2.9-0.6,5.7-1,8.7c-0.1,0.9-0.4,1.8-0.5,2.7
		c-0.1,1.1-0.4,2.3,0.1,3.7c0.6,1.7,0.6,6.9,1.5,7.6c2.9,2.3,4.7,2.7,8.3,2c4.2-0.9,5.1-2.2,8.5-4.7c1.4-1,3.2-3.1,4.6-4.1
		c2.2-1.5,2.5-2.3,4.2-4.2c0.6-0.8,1.9-2.2,2.7-1.8C205.1,78.8,203.9,80.8,202.4,82.4z M169.8,79.6c0-0.9,0-1.8-0.1-2.8
		c0-0.1-0.1-0.3-0.3-0.3c0,0-0.1,0.1-0.1,0.3c0,0.9,0,1.8,0,2.8C169.6,79.6,169.7,79.6,169.8,79.6z M171.2,63.3
		c-0.8,0.8-0.8,0.8-0.4,5.5C171.4,67,171.4,67,171.2,63.3z M173.2,51c0.6-4.5,1.3-8.8,1.5-13.6c-0.5,0.5-1,0.6-1,1
		c-0.5,3.4-1.5,6.5-1.5,10.3c0,2-0.5,4.1-0.8,6.1c-0.3,2-0.9,3.8-0.1,6.5c0.4-0.4,0.6-0.5,0.8-0.8c0.3-0.4,0.3-0.9,0.4-1.4
		c0.1-2.7,0.4-5.2,0.8-7.9h0.1c0-0.1,0-0.3,0-0.3C173.2,51,173.2,51,173.2,51z M175.2,35.3c1.4-1.5,1-3.4,1.1-5.1c0.1,0,0.1,0,0.1,0
		c0-0.1,0-0.1,0-0.1c-0.1-0.9,0.8-1.7-0.3-2.9c-0.5,1.1-0.8,1.9,0.3,2.9c0,0.1,0,0.1-0.1,0.1C174.9,31.3,174.4,32.8,175.2,35.3z
		 M175.7,55.2c-0.1-0.1-0.1-0.4-0.3-0.5l-0.3,0.1c0.1,0.3,0.1,0.4,0.3,0.6C175.6,55.3,175.7,55.3,175.7,55.2z M176.8,49.1
		c0-0.1-0.1-0.1-0.3-0.1c-0.5,0.1-0.9,0.9-0.6,1.7c0,0,0.1,0.1,0.1,0.3c0.3-0.1,0.5-0.3,0.5-0.4C176.8,50,177.3,49.6,176.8,49.1z
		 M176.7,47.2c0.4,0,0.9,0.1,1,0c1.3-1,5.5-14.6,5.9-16.2c0.1-0.9,0.1-1.9,0.5-2.7c0.8-2,1.5-8.1,1.7-8.9c0.1-0.9,0.3-1.8,0.3-2.7
		c0-0.4-1.1-1.9-1.4-1.9c-0.5-0.1-2.2,0.6-2.3,1c-0.8,1.3-2.5,2.3-1.4,3.8c0.4,0.6,0.3,1.4-0.1,1.9c-0.4,0.6,0.5,3.6-0.1,3.9
		c-0.1,0.1-0.4,4.3-1.4,6.1C178.7,32.7,176.3,45.9,176.7,47.2z M177.9,32.4c0,0.1,0.3,0.4,0.4,0.5c0.1-0.1,0.3-0.4,0.3-0.5
		c0-0.3-0.1-0.4-0.3-0.6C178.1,32,177.9,32.2,177.9,32.4z"/>
	<path class="st1" d="M249.3,79.1c-0.6,1.4-2.4,3.4-3.7,3.9c-3.3,2.3-4.1,3.3-5.6,3.9c-3.1,1.4-1.3,0.3-4.3,1.7
		c-0.8,0.4-1.1,1-2,1.5c-1.3,0.6-2,1.7-2,3.2c0,1.3-0.4,2.4-0.8,3.6c-0.6,1.5-1.4,2.5-2.7,3.4c-1.7,1.4-3.3,2.8-5.1,4.1
		c-1.1,0.9-2.3,1.9-4.2,1.8c-1.4-0.1-2.9,0.9-4.5,1.4c-0.5,0.1-1.1,0.5-1.7,0.4c-2.5-0.1-5.1-0.4-7.8-0.6c-0.4-1.3-0.6-2.4-0.9-3.4
		c2.5-5.1,7.3-7.5,11.8-9.8c1-0.5,2-1,3.2-1.4c1.9-0.8,3.1-0.9,3.2-3.9c0,0,0.8-1.5,0.4-1.9c-0.3-0.6-0.9-0.8-1.1-1.7
		c-0.4-1.7-2-2.3-3.7-2.5c-2.3-0.4-4.6-0.1-7-0.4c-1.7-0.1-3.3-0.1-4.7-1c-0.3-0.1-1.4-0.5-1.5-0.8c-0.3-0.5-1.7-1.4-1.7-1.4
		c-0.8-0.8-1-2.3-1.7-3.2c-0.1-0.3-0.1-1.1,0.1-1.5c0.3-0.8-1-2.2-0.8-2.7c0.4-1,0.1-3.3-0.1-4.5c-0.4-0.8,0.8-1.7,0.3-1.9
		c-0.4-1.4,0.5-1.9,0.9-3.1c0.1-0.5,1.4-1.1,1.7-2c0.1-0.6,0.8-1.4,0.8-1.9c0.5-0.8,2.4-3.9,3.8-4.6c1.5-0.6,3.8-0.3,4.8-1.3
		c0.3-0.3,3.4-1,3.7-1c2.4,0,4.7,0.3,7.3,1c2.5,0.9,4.3,2.3,5.5,4.7c0.1,0.1,0.4,3.6-0.4,4.7c-1.5,6.2-12.2,11.6-11.3,6.7
		c0-0.6-0.1-1.3,0-1.7c0.5-1.3,1.1-2.4,1.8-3.7c0.4-0.6,0.9-1.3,1.3-2c0.4-0.6,0.5-1.5-0.3-2.2c-0.8-0.8-1.5-1.4-2.7-0.9
		c-2.8,1.1-5.1,3.1-6.9,5.3c-1.5,2.2-2.8,4.5-2.7,7.3c0.1,1.8,0.1,4.2,1.8,5.3c0.4,0.3,0.8,0.8,1,1.1c1.3,1,1.9,1,3.4,1
		c2.3,0.3,4.7,0.6,7,0.6c3.6,0.1,6.2,1.5,8.1,4.6c0.6,0.9,1.1,1.7,1.8,2.5c1.1,0.5,2.2,0.4,3.2-0.3c3.9-1.5,2.3,0.3,6.7-3.2
		c3.3-1.4,3.2-3.2,6.6-4.3c0.3-0.1,0.6-0.3,1-0.3c0.1,0,0.4,0.3,0.5,0.4C249.5,78.6,249.5,78.8,249.3,79.1z M203.6,62.9
		c-0.1-0.1-0.4-0.3-0.5-0.3c0,0-0.3,0.1-0.3,0.3c0.1,0.1,0.3,0.3,0.4,0.4C203.3,63.2,203.4,63.1,203.6,62.9z M206.6,68.4l-0.3-0.1
		c-0.1,0-0.3,0.3-0.3,0.3c-0.6,1.5-0.5,5.9,0,4.8C206.7,71.5,206.4,69.9,206.6,68.4z M206.4,62.4c0,0,0.1,0.1,0.1,0.3
		c0-0.1,0.1-0.1,0.1-0.3c0,0,0-0.1-0.1-0.3C206.5,62.3,206.4,62.3,206.4,62.4z M220.7,95.9c-1.3,0.5-2.2,0.9-3.1,1.4
		c-1.8,0.9-3.4,2.2-5.3,2.9c-1.7,0.6-2.7,1.8-3.7,3.2c1,1.1,2.3,1.5,3.7,1.4c1.8-0.3,3.6-1,4.7-2.4c1.4-1.4,2.5-3.2,3.7-4.8
		C221,97.3,220.7,96.7,220.7,95.9z M220.2,103.8c0-0.3-0.1-0.5-0.3-0.6c-0.6-0.3-0.6,0.4-0.9,0.8v0.1c0,0,0,0-0.1,0
		c0,0.1,0,0.1,0,0.1c-0.1-0.1-0.3-0.3-0.5-0.3c-0.3-0.1-0.5,0-0.8,0.1c0.1,0.1,0,0.5,0.1,0.6c0.3,0.1,0.6,0.4,0.8,0.3
		c0.3-0.1,0.3-0.5,0.4-0.8c0.1,0,0.1,0,0.1-0.1C219.6,104.3,220.1,104.7,220.2,103.8z M227.5,86.9c0-0.1-0.4-0.3-0.6-0.4
		c-0.1,0.3-0.4,0.5-0.4,0.8c-0.3,1.5-0.5,2.9-0.6,4.3c-0.1,2-0.6,3.7-1.8,5.6c-0.6,1.3-2.2,2-1.5,2.2c0.5,0.1,1.8-1.3,2.3-0.8
		c0.4-0.6,0.8-1.1,0.9-1.8c0.4-1,0.3-2.2,0.8-3.2C227.5,91.4,227.3,89.2,227.5,86.9z"/>
</g>
</svg>
