<?xml version="1.0" encoding="utf-8"?>
<!-- Generator: Adobe Illustrator 21.0.0, SVG Export Plug-In . SVG Version: 6.00 Build 0)  -->
<svg version="1.1" id="Layer_1" xmlns="http://www.w3.org/2000/svg" xmlns:xlink="http://www.w3.org/1999/xlink" x="0px" y="0px"
	 viewBox="0 0 282.5 136.5" style="enable-background:new 0 0 282.5 136.5;" xml:space="preserve">
<style type="text/css">
	.st0{enable-background:new    ;}
	.st1{fill:#F7EF5E;}
</style>
<g class="st0">
	<path class="st1" d="M52.8,86.6c-0.6,1.4-2.3,3.4-3.6,3.9c-3.2,2.3-3.9,3.3-5.4,3.9c-3,1.4-1.2,0.3-4.2,1.7c-0.7,0.4-1.1,1-2,1.5
		c-1.2,0.6-2,1.7-2,3.2c0,1.3-0.4,2.4-0.7,3.6c-0.6,1.5-1.4,2.5-2.6,3.4c-1.6,1.4-3.2,2.8-4.9,4.1c-1.1,0.9-2.2,1.9-4.1,1.8
		c-1.4-0.1-2.8,0.9-4.3,1.4c-0.5,0.1-1.1,0.5-1.6,0.4c-2.5-0.1-4.9-0.4-7.5-0.6c-0.4-1.3-0.6-2.4-0.9-3.4c2.5-5.1,7-7.5,11.5-9.8
		c1-0.5,2-1,3.1-1.4c1.8-0.8,3-0.9,3.1-3.9c0,0,0.7-1.5,0.4-1.9c-0.2-0.6-0.9-0.8-1.1-1.7c-0.4-1.7-2-2.3-3.6-2.5
		c-2.2-0.4-4.4-0.1-6.8-0.4c-1.6-0.1-3.2-0.1-4.6-1c-0.2-0.1-1.4-0.5-1.5-0.8C9.3,87.5,8,86.6,8,86.6c-0.7-0.8-1-2.3-1.6-3.2
		c-0.1-0.3-0.1-1.1,0.1-1.5c0.2-0.8-1-2.2-0.7-2.7c0.4-1,0.1-3.3-0.1-4.5c-0.4-0.8,0.7-1.7,0.2-1.9c-0.4-1.4,0.5-1.9,0.9-3.1
		c0.1-0.5,1.4-1.1,1.6-2c0.1-0.6,0.7-1.4,0.7-1.9c0.5-0.8,2.3-3.9,3.7-4.6c1.5-0.6,3.7-0.3,4.7-1.3c0.2-0.3,3.3-1,3.6-1
		c2.3,0,4.6,0.3,7,1c2.5,0.9,4.2,2.3,5.3,4.7c0.1,0.1,0.4,3.6-0.4,4.7c-1.5,6.2-11.8,11.6-11,6.7c0-0.6-0.1-1.3,0-1.7
		c0.5-1.3,1.1-2.4,1.7-3.7c0.4-0.6,0.9-1.3,1.2-2c0.4-0.6,0.5-1.5-0.2-2.2c-0.7-0.8-1.5-1.4-2.6-0.9c-2.7,1.1-4.9,3.1-6.7,5.3
		c-1.5,2.2-2.7,4.5-2.6,7.3c0.1,1.8,0.1,4.2,1.7,5.3c0.4,0.3,0.7,0.8,1,1.1c1.2,1,1.8,1,3.3,1c2.2,0.3,4.6,0.6,6.8,0.6
		c3.4,0.1,6,1.5,7.9,4.6c0.6,0.9,1.1,1.7,1.7,2.5c1.1,0.5,2.1,0.4,3.1-0.3c3.8-1.5,2.2,0.3,6.5-3.2c3.2-1.4,3.1-3.2,6.4-4.3
		c0.2-0.1,0.6-0.3,1-0.3c0.1,0,0.4,0.3,0.5,0.4C52.9,86.1,52.9,86.3,52.8,86.6z M8.5,70.4c-0.1-0.1-0.4-0.3-0.5-0.3
		c0,0-0.2,0.1-0.2,0.3c0.1,0.1,0.2,0.3,0.4,0.4C8.2,70.7,8.3,70.6,8.5,70.4z M11.4,75.9l-0.2-0.1c-0.1,0-0.2,0.3-0.2,0.3
		c-0.6,1.5-0.5,5.9,0,4.8C11.5,79,11.2,77.4,11.4,75.9z M11.2,69.9c0,0,0.1,0.1,0.1,0.3c0-0.1,0.1-0.1,0.1-0.3c0,0,0-0.1-0.1-0.3
		C11.3,69.8,11.2,69.8,11.2,69.9z M25.1,103.4c-1.2,0.5-2.1,0.9-3,1.4c-1.7,0.9-3.3,2.2-5.2,2.9c-1.6,0.6-2.6,1.8-3.6,3.2
		c1,1.1,2.2,1.5,3.6,1.4c1.7-0.3,3.4-1,4.6-2.4c1.4-1.4,2.5-3.2,3.6-4.8C25.3,104.8,25.1,104.2,25.1,103.4z M24.6,111.3
		c0-0.3-0.1-0.5-0.2-0.6c-0.6-0.3-0.6,0.4-0.9,0.8v0.1c0,0,0,0-0.1,0c0,0.1,0,0.1,0,0.1c-0.1-0.1-0.2-0.3-0.5-0.3
		c-0.2-0.1-0.5,0-0.7,0.1c0.1,0.1,0,0.5,0.1,0.6c0.2,0.1,0.6,0.4,0.7,0.3c0.2-0.1,0.2-0.5,0.4-0.8c0.1,0,0.1,0,0.1-0.1
		C24,111.8,24.5,112.2,24.6,111.3z M31.6,94.4c0-0.1-0.4-0.3-0.6-0.4c-0.1,0.3-0.4,0.5-0.4,0.8c-0.2,1.5-0.5,2.9-0.6,4.3
		c-0.1,2-0.6,3.7-1.7,5.6c-0.6,1.3-2.1,2-1.5,2.2c0.5,0.1,1.7-1.3,2.2-0.8c0.4-0.6,0.7-1.1,0.9-1.8c0.4-1,0.2-2.2,0.7-3.2
		C31.6,98.9,31.5,96.7,31.6,94.4z"/>
	<path class="st1" d="M79.4,100.5c-1.7,2.5-4.1,4.5-6.5,6.2c-0.9,0.6-2,1-3.1,1.1c-3,0.5-6,1.1-9.1,1.1c-1.7,0-3.3-0.4-4.4-1.7
		c-1.5-1.4-3.3-2.5-4.2-4.6c-0.1-0.4-0.4-0.5-0.6-0.8c-0.1-0.5-0.6-3.2-0.9-4.3c-0.1-1.1-0.9-1.4-1.1-3.3c0-0.5-0.2-1.1-0.2-1.7
		c0.1-1.5,0.2-4.8,0.6-5.9c1.1-3.4,2.7-6.6,4.3-9.8c1-1.8,1.7-3.6,3-5.2c0.4-0.5,0.1-1.3,0.9-1.8c1-0.5,2-1.7,3-1.8
		c2-0.3,3.9-0.5,5.8,0.6c0.6,0.3,1.1,0.6,1.7,1c1-0.5,2-1.1,2.8-1.7c1.8,0.3,3.7,0.5,5.5,0c3-0.8,5.4,0.6,7.8,2.2
		c0.9,0.6,1.4,2,1.7,3.2c0.4,1.4,0.6,2.9,0.6,4.3c-0.1,3.2-0.4,6.4-0.5,9.4c-0.1,0.5-0.1,0.9-0.4,1.3c-0.2,0.5-0.7,0.8-1,1.3
		c-0.5,1-0.7,2-1.2,3.2c1.7,0.6,3.3,0.4,4.9,0.1c3.7-0.4,7.3-2.2,10.3-4.5c2.1-1.5,6.2-5.2,5.4-1.9c-1.2,2.3-3.3,3.8-5.8,5.7
		c-2.3,0.9-4.7,2.7-7.1,3.3c-3.1,0.9-6.2,1.5-9.2,1.5C81.3,98.3,80.2,99.3,79.4,100.5z M55.5,90c-0.4,1.5-0.2,2.7,0.1,3.8
		C56.1,92.3,56.1,91.8,55.5,90z M57.7,85.5c0-0.1-0.2-0.4-0.4-0.4c-0.2,0-0.6,0.3-0.6,0.4c0,0.6,0,1.4,0.1,2.4
		C58,87.1,58.1,86.3,57.7,85.5z M59.8,87.1c-0.1,0.6,0,1.4-0.2,1.9c-2.1,4.7-1,9.2,1.2,13.2c1.7,3.1,4.1,3.6,7,1.9
		c3.2-1.8,5.7-4.3,7.6-7.4c0.2-0.3,0.1-0.6,0.2-1.1c-0.9-0.5-1.6-1-2.5-1.5c-3.2-1.8-5.9-4.2-7.6-7.6c-1.2-2.3-2.1-4.7-2.2-7.5
		C61.6,81.4,60.1,83.9,59.8,87.1z M73.6,74.5c-0.5,0.8-0.9,1.5-1.4,2.3c-2.2,3.4-1.2,6.7,0.6,9.8c0.7,1.4,2,2.7,3.1,3.8
		c0.5,0.5,1.2,1.1,2.1,0.6c1-2.8,2.1-5.6,3-8.4c0.1-0.4,0.1-0.9,0-1.4c0-0.8-0.1-1.5-0.2-2.3c-0.1-3.3-1.2-5.9-4.8-6.6
		C74.9,72.6,74.2,73.5,73.6,74.5z"/>
	<path class="st1" d="M152.5,87.6c-0.7,0.6-1.2,2.2-2,2.7c-3.1,2.4-3.9,4.2-6.9,6.9c-1.4,1.4-4.4,2.7-6,3.8
		c-1.2,0.9-2.5,1.8-3.8,2.5c-2,1.1-4.7,1.7-6.5,3.2c-4.7,1.7-9.4,2.8-14.2,2.3c-0.4,0-0.7-0.1-1.1-0.3c-1.7-0.6-3.4-1.3-5.2-2
		c-2.8-0.6-2.7-3.8-4.1-5.3c-1.2-1.3-1.7-3.1-1.6-5c0.1-2.5,0.4-5,0.6-7.5c0-0.5,0.1-1.1,0.4-1.7c2.5-6.1,5.5-11.8,9.4-17.2
		c1.8-2.5,3.9-5.1,6.7-6.7c0.9-0.6,1.8-1.1,2.1-2.3c2.8-1.1,5.3-1.3,7.9-1.1c2.8,0.1,5.3,1.1,7.5,2.7c0.6,0.5,1.1,1,1,1.9
		c0,0.6,0,1.1,0,1.7c-0.1,1.3-0.4,2.5-0.5,3.9c-0.6,0.9-1.5,2-2.2,3.3c-0.2,0.3-0.4,0.6-0.6,0.8c-2,1.3-3.8,2.4-5.7,3.7
		c-0.1,0.1-0.4,0-0.7,0c-0.7-1.8-0.4-3.8-0.1-5.9c0.2-2.5,0.2-5-1.1-7.4c-1.1,1.3-2.3,2.2-3.3,3.4c-3.7,4.6-7.3,9.3-9.7,14.8
		c-0.6,1.4-1.4,2.8-1.2,4.3c0,0.3,0,0.6-0.1,0.9c-1.7,3.2-1.1,6.4-1.1,9.4c0,2.7,1.4,4.8,2.6,6.9c0.7,1.5,2.2,1.8,3.8,1.9
		c3.1,0.1,6.2-0.5,9.1-2c3.1-1.7,6.5-3.2,9.6-5.1c2.7-1.7,5.2-3.3,7.6-5.1c1.6-1.1,3.3-3.3,5.1-4.6c1.4-1,2.1-2.7,3.3-3.6
		c0.2,0.1,0.4-0.8,1.1-0.5C152.5,85.7,153.2,86.2,152.5,87.6z M108.5,90.7c0.1-1.1,0.7-2.4-0.5-3.7C107,88.8,107.3,89.8,108.5,90.7
		c0,0,0,0,0,0.1c-1,0.5-0.9,1.1-0.6,2c1.2-0.8,0.5-1.4,0.6-2c0.1,0,0.1,0,0.1,0C108.6,90.7,108.6,90.7,108.5,90.7z M108.4,86.2
		c3.1-4.3,4.9-8.8,7.9-12.8c0.1-0.3,0.2-0.6,0.2-0.9c0.1-0.3-0.1-0.5-0.1-0.9c-1.7,0.9-2.1,2.3-2.8,3.4c-0.7,1.3-1.2,2.5-2.2,3.7
		c-1.6,2-2.1,4.2-3.3,6.4C107.9,85.3,108.1,85.7,108.4,86.2z M117.2,70.6c1.7-1.9,1.7-1.9,2.1-3.2C117,69.6,117,69.6,117.2,70.6z
		 M121.4,65.1c0,0,0.2,0,0.4,0c0.4-0.5,0.9-0.9,1.4-1.4c-0.2-0.1-0.4-0.3-0.5-0.3c-0.5,0.4-0.9,0.9-1.2,1.4
		C121.3,65,121.3,65.1,121.4,65.1z"/>
	<path class="st1" d="M184.3,86.9c-0.2,2.2-1.8,3.7-2.7,5.7c-0.2,0.6-0.6,1.1-1.1,1.7c-2.1,2.7-3.6,5.9-6.5,7.8
		c-1.1,0.8-2,1.8-2.7,2.9c-3.4,4.8-8.1,6.4-13.4,5.7c-3.2-0.5-4.8-3.1-6.9-5.3c-0.2-0.3-1.7-6.1-1.7-6.4c0-2.8,0.1-7,0.6-9.9
		c0.5-3.4,0.6-6.9,1.2-10.2c0.5-2,1.2-4.1,1.7-6.1c0.2-1,1-1.3,1.7-1.3c2.5-0.1,4.6,0.4,6.3,2.5c-0.4,2.7,0,5.6-0.7,8.4
		c-0.5,1.9-0.4,3.9-1,6c-0.5,1.9-0.9,8.9-1.1,10.8c-0.2,2,0.6,6,1.7,7.3c0.9,1,2.2,1.1,3.7,0.5c2.3-1,4.2-2.7,5.8-4.6
		c2-2.3,3.8-4.6,5.7-6.7c1.8-2.2,3.5-4.6,5.3-6.6c1-1.1,1.2-2.5,2.7-3.6C184.5,84.3,184.3,86.1,184.3,86.9z M156.7,98.7l0.1-0.1
		C156.7,98.6,156.7,98.6,156.7,98.7c-0.2-0.4-0.5-0.6-0.6-1c-0.1-0.4-0.1-0.8-0.2-1.3h0.1c0-0.1,0-0.1,0-0.1
		c0.7-0.4,1.1-0.9,0.7-1.8c-0.2-0.5-0.2-1-0.4-1.5c0.1-1.4,1-2.9,0-4.3c-0.2,1.3-0.6,2.3-0.7,3.4c0,0.3,0.5,0.5,0.7,0.9
		c-0.5,1-0.6,2.2-0.4,3.3c-0.1,0-0.1,0-0.1,0v0.1c-0.7,0.4-0.7,0.9-0.5,1.7C155.4,98.8,156,98.8,156.7,98.7c-1.1,1.5-1.1,1.7,0,3.3
		C156.8,100.8,157.3,99.7,156.7,98.7z M155.2,62.9c0.2-0.9,1.1-1.5,0.6-2.8c-0.2-0.8,0.4-1.8,0.4-2.7s-0.2-1.9-0.4-3.1
		c3-0.9,5.5-0.6,8.3,0.6c0.1,0.4,0.6,1.1,0.4,1.7c-0.5,1.5-0.2,3.2-0.5,4.7c-0.5,2.4-1.5,4.5-4.1,5.3c-0.7,0.3-1.5,0.8-2.3,1.3
		C156,68.4,155.9,64.6,155.2,62.9z M158.3,80.4c0.1,0.9,0.2,1.7,0.4,2.5c0.1-0.6,0.4-1.3,0.4-1.9c0-0.3-0.2-0.5-0.4-0.8
		C158.5,80.2,158.4,80.4,158.3,80.4z"/>
	<path class="st1" d="M213.2,74.1c0.7,0.1,1.5,0.1,2.2,0.3c2.6,0.5,3.2,1.4,3.1,4.2c0,0.9-0.1,1.9,0,2.8c0.1,1.4,0.6,2.9,0.5,4.3
		c-0.1,1.3-0.9,2.5-1.1,3.8c-0.5,2.4-0.7,5-1.4,7.3c-0.7,3.1,0,3.9,0.4,7c0,0.3,0,0.5,0.1,0.6c0.6,3.3,2.5,4.2,5.2,2.4
		c3.1-2,4.4-3.3,6.9-6c2-2.3,3.9-3.9,5.8-6.5c0.6-0.9,1.4-1.8,2-2.7c0.5-0.5,0.7-1.1,1.4-1.5c1.8-2,1.5-2.2,3.6-4.2
		c0.1-0.1,1.4-1.4,1.6-1.5c2-1.1,2.3,1,2,1.7c-0.5,1-2.3,3.6-3.2,4.5c-1.7,1.7-2,2.9-3.2,4.2c-2.2,2.7-5.3,5.2-7.3,8.3
		c-2.1,3.3-5.3,5.2-8.1,7.6c-1.1,0.9-2.5,1.4-3.8,2c-3.4,1.7-6.5,0.8-9.6-1.1c-0.7-0.5-1.4-1.1-1.6-2.2c-0.6-2.5-2.2-4.8-2.2-7.6
		c-0.4,0.1-0.7,0.3-0.7,0.4c-1.8,3.9-4.9,6.1-9.1,6.9c-1,0.3-2.1,0.5-3.2,0.8c-4.3,0.9-8.9-2.7-10-6.1c-0.4-0.9-0.9-1.8-1.4-2.7
		c-0.7-1.8-1.1-3.7-1.1-5.6c0-1.5-0.4-3.1,0-4.5c0.4-1.4,0.2-2.7,0.1-3.9c-0.2-1.3,1-1.8,0.6-3.2c-0.2-0.9,0.4-2.2,0.5-3.2
		c0.7-0.9,1-1.5,1.5-3.1c0.5-1.4,1.1-2.7,0.9-4.2c1.4-2.5,1.6-5.6,3.6-7.9c0.6-0.6,1.1-1.4,1.5-2.2c0.9-1.9,2.1-3.4,3.6-4.7
		c0.5-0.4,1-0.8,1.5-0.6c2.2,0.5,4.6,0,6.9,0c1.7,0.1,3.5,0.3,5.2,0.5c3.7,0.5,6.2,2.9,8.1,5.9c0.6,0.9,0.6,2.4,0.9,3.6
		c-1.1,0.9-1.7,1.9-2.2,3.1c-0.2,1-1.4,1.7-2.2,2.7C212,73.8,212.6,74,213.2,74.1z M189.4,107.5c-1.1-1-2-1.9-2.7-2.7
		c0.1-1-0.2-1.8-0.6-2.5c-1.2-2.5-2.2-5.2-2-8.1c0-0.6-0.1-1.3-0.2-2c0-0.8,0-1.5,0-2.3c-0.1-0.6,0.5-1.3-0.4-1.9
		c-0.2,0.8-0.7,1.5-0.9,2.3c-0.7,4.5,0.4,8.7,2.3,12.7c0.4,0.8,1.1,1.3,1.7,1.8C187.1,105.9,187.2,107.5,189.4,107.5z M185.9,77.8
		c-0.1,0.1-0.5,0.1-0.5,0.3c0,0.3,0.1,0.5,0.2,0.8c0.1-0.1,0.2-0.3,0.4-0.4C186,78.2,186,78.1,185.9,77.8z M186.5,76.4
		c0.1-0.4,0.2-0.6,0.4-0.9c0-0.3,0-0.6,0-0.9C186.2,75.2,185.6,75.7,186.5,76.4z M189.2,94c0-0.9,0-1.7,0-2.4
		C188.9,92.3,188.3,93.1,189.2,94z M198.4,64.6c-0.6,0.6-1.2,1.1-1.8,1.8c-0.6,0.6-0.7,1.7-1.1,2.4c-2.6,5-3.9,10.2-4.1,15.8
		c0,0.6,0.1,1.3-0.1,1.7c-0.7,1.7-0.5,3.3-0.7,5c-0.7,4.5,1.1,8.1,2.7,12c0.5,1.4,1.6,1.8,3,1.7c1.8-0.1,3.3-1,4.6-2.3
		c1.7-1.9,3.3-3.9,4.9-6c0.6-0.8,1.1-1.8,1.2-2.7c0.4-1.9,0-3.8,0.7-5.7c-0.5-2.8,0.9-5.2,1.6-7.8c0.4-1.7,1.8-3.1,1.5-5.1
		c-1.8-0.8-3.1-2.3-3.6-4.5c-0.1-0.6-0.6-1.1-1-1.7c-0.2-0.6-0.6-1.3-0.7-1.9c-0.5-2.3-2-3.6-3.8-5
		C200.5,63.1,199.3,63.7,198.4,64.6z M213.7,101.5c0.2-0.9,0.2-0.9,0.2-3.3C213.5,98.4,213.5,98.4,213.7,101.5z M215.2,82.3
		c-0.4,2.2-0.7,3.9-0.9,6.4c0.2,1.4-0.2,2.5-0.2,3.8c-0.2,1.4-0.5,2.7-0.1,4.3c0.1-0.3,0.4-0.3,0.4-0.5c0.1-0.1,0.2-0.4,0.1-0.9
		c0.2-4.6,1.1-8.9,1.4-13.9C215.6,81.9,215.2,82,215.2,82.3z"/>
	<path class="st1" d="M275.4,89.9c-3.9,4.1-6.4,7-11.3,9.8c-3.4,2.2-5.2,3.4-9.1,4.2c-1.7,0.3-3.3,0.1-4.9,0.1
		c-0.6-0.1-2.1-0.1-2.5-0.6c-1.5-1.5-3.3-1-4.3-3.2c-1.6-2.8-2.3-6-2.5-9.2c-0.1-5-0.5-10.2,0.6-15.1c0.5-2.2,0.2-4.5,0.9-6.6
		c0.1-0.6,0.2-3.2,0.5-3.9c0.4-0.6,0.5-1.5,0.6-2.3c0.1-6,1.4-11.8,2.6-17.7c0-0.4,0-0.8-0.1-1.3c-0.1-0.5,0.1-1.5,0.1-1.5
		c0.5-0.6,0.6-2.3,0.6-2.9c0-1.7-0.6-3.7,1-5c0.2-0.3,0.4-0.9,0.2-1.3c-0.4-1.9,0.6-5.6,0.4-5.7c0.4-1.5,0.5-2.8,0.9-4.1
		c0.5-1.4,1.1-2.7,1.7-4.2c0,0,1.1-2.7,5.2-2.7c8,0,10,3.4,10,3.4c0.2,0.9,0.4,2.2,1,3.1c1,1.3-0.2,2.3,0,3.4
		c0.4,1.8-0.4,3.3-1.1,4.8c-1.2,2.5-3.1,4.8-3.4,7.6c-0.6,4.5-2.6,6.9-2.6,6.9c-1,2.8-2.7,5.3-3.3,8.4c-0.2,1.4-1,2.8-1.6,4.1
		c-1.1,2.5-2.1,5.1-2.6,7.9c-0.2,1.7-1,3.3-1.7,4.7c-0.7,1.5-1.2,2.9-1.4,4.6c-0.2,2.9-0.6,5.7-1,8.7c-0.1,0.9-0.4,1.8-0.5,2.7
		c-0.1,1.1-0.4,2.3,0.1,3.7c0.6,1.7,0.6,6.9,1.5,7.6c2.8,2.3,4.6,2.7,8,2c4.1-0.9,4.9-2.2,8.3-4.7c1.4-1,3.1-3.1,4.4-4.1
		c2.1-1.5,2.5-2.3,4.1-4.2c0.6-0.8,1.8-2.2,2.6-1.8C278,86.3,276.9,88.3,275.4,89.9z M243.9,87.1c0-0.9,0-1.8-0.1-2.8
		c0-0.1-0.1-0.3-0.2-0.3c0,0-0.1,0.1-0.1,0.3c0,0.9,0,1.8,0,2.8C243.6,87.1,243.8,87.1,243.9,87.1z M245.2,70.8
		c-0.7,0.8-0.7,0.8-0.4,5.5C245.4,74.5,245.4,74.5,245.2,70.8z M247.1,58.5c0.6-4.5,1.2-8.8,1.5-13.6c-0.5,0.5-1,0.6-1,1
		c-0.5,3.4-1.5,6.5-1.5,10.3c0,2-0.5,4.1-0.7,6.1c-0.2,2-0.9,3.8-0.1,6.5c0.4-0.4,0.6-0.5,0.7-0.8c0.2-0.4,0.2-0.9,0.4-1.4
		c0.1-2.7,0.4-5.2,0.7-7.9h0.1c0-0.1,0-0.3,0-0.3C247.1,58.5,247.1,58.5,247.1,58.5z M249.1,42.8c1.4-1.5,1-3.4,1.1-5.1
		c0.1,0,0.1,0,0.1,0c0-0.1,0-0.1,0-0.1c-0.1-0.9,0.7-1.7-0.2-2.9c-0.5,1.1-0.7,1.9,0.2,2.9c0,0.1,0,0.1-0.1,0.1
		C248.8,38.8,248.3,40.3,249.1,42.8z M249.6,62.7c-0.1-0.1-0.1-0.4-0.2-0.5l-0.2,0.1c0.1,0.3,0.1,0.4,0.2,0.6
		C249.4,62.8,249.6,62.8,249.6,62.7z M250.7,56.6c0-0.1-0.1-0.1-0.2-0.1c-0.5,0.1-0.9,0.9-0.6,1.7c0,0,0.1,0.1,0.1,0.3
		c0.2-0.1,0.5-0.3,0.5-0.4C250.7,57.5,251.2,57.1,250.7,56.6z M250.5,54.7c0.4,0,0.9,0.1,1,0c1.2-1,5.3-14.6,5.7-16.2
		c0.1-0.9,0.1-1.9,0.5-2.7c0.7-2,1.5-8.1,1.6-8.9c0.1-0.9,0.2-1.8,0.2-2.7c0-0.4-1.1-1.9-1.4-1.9c-0.5-0.1-2.1,0.6-2.2,1
		c-0.7,1.3-2.5,2.3-1.4,3.8c0.4,0.6,0.2,1.4-0.1,1.9c-0.4,0.6,0.5,3.6-0.1,3.9c-0.1,0.1-0.4,4.3-1.4,6.1
		C252.5,40.2,250.2,53.4,250.5,54.7z M251.6,39.9c0,0.1,0.2,0.4,0.4,0.5c0.1-0.1,0.2-0.4,0.2-0.5c0-0.3-0.1-0.4-0.2-0.6
		C251.9,39.5,251.6,39.7,251.6,39.9z"/>
</g>
</svg>
